<svg width="15" height="15" viewBox="0 0 15 15" fill="none" xmlns="http://www.w3.org/2000/svg">
<path d="M4.05017 0.46875C4.05017 0.34443 4.00235 0.225201 3.91722 0.137294C3.83209 0.049386 3.71663 0 3.59624 0C3.47585 0 3.36039 0.049386 3.27526 0.137294C3.19013 0.225201 3.14231 0.34443 3.14231 0.46875V0.9375H2.23444C1.75287 0.9375 1.29103 1.13504 0.950518 1.48667C0.610001 1.83831 0.418701 2.31522 0.418701 2.8125L0.418701 3.75H14.9446V2.8125C14.9446 2.31522 14.7533 1.83831 14.4128 1.48667C14.0723 1.13504 13.6104 0.9375 13.1289 0.9375H12.221V0.46875C12.221 0.34443 12.1732 0.225201 12.088 0.137294C12.0029 0.049386 11.8874 0 11.7671 0C11.6467 0 11.5312 0.049386 11.4461 0.137294C11.3609 0.225201 11.3131 0.34443 11.3131 0.46875V0.9375H4.05017V0.46875ZM14.9446 13.125V4.6875H0.418701V13.125C0.418701 13.6223 0.610001 14.0992 0.950518 14.4508C1.29103 14.8025 1.75287 15 2.23444 15H13.1289C13.6104 15 14.0723 14.8025 14.4128 14.4508C14.7533 14.0992 14.9446 13.6223 14.9446 13.125ZM11.7671 6.5625H12.6749C12.7953 6.5625 12.9108 6.61189 12.9959 6.69979C13.081 6.7877 13.1289 6.90693 13.1289 7.03125V7.96875C13.1289 8.09307 13.081 8.2123 12.9959 8.30021C12.9108 8.38811 12.7953 8.4375 12.6749 8.4375H11.7671C11.6467 8.4375 11.5312 8.38811 11.4461 8.30021C11.3609 8.2123 11.3131 8.09307 11.3131 7.96875V7.03125C11.3131 6.90693 11.3609 6.7877 11.4461 6.69979C11.5312 6.61189 11.6467 6.5625 11.7671 6.5625Z" fill="#50B256"/>
</svg>
