<svg width="17" height="37" viewBox="0 0 17 37" fill="none" xmlns="http://www.w3.org/2000/svg">
<path fill-rule="evenodd" clip-rule="evenodd" d="M1.18412 36.8504C0.681607 36.6813 0.299691 36.3857 0.122104 36.0283C-0.0554825 35.6709 -0.0142467 35.281 0.236772 34.9439L12.5013 18.5055L0.232523 2.06999C0.104997 1.90278 0.0281454 1.72031 0.00639943 1.53311C-0.0153465 1.34591 0.0184429 1.15768 0.10582 0.979272C0.193197 0.800862 0.332433 0.6358 0.515501 0.493604C0.69857 0.351409 0.921849 0.234894 1.17247 0.150773C1.42308 0.0666518 1.69608 0.0165903 1.97572 0.00347498C2.25536 -0.00964032 2.53611 0.0144493 2.80178 0.074356C3.06745 0.134263 3.3128 0.228801 3.52366 0.352521C3.73453 0.47624 3.90675 0.626693 4.03039 0.795207L16.7749 17.8681C16.9229 18.066 17 18.2842 17 18.5055C17 18.7268 16.9229 18.9451 16.7749 19.1429L4.03039 36.2158C3.778 36.5524 3.33663 36.8082 2.80308 36.9272C2.26952 37.0461 1.68731 37.0185 1.18412 36.8504Z" fill="#4EBC57"/>
</svg>
