<svg width="17" height="37" viewBox="0 0 17 37" fill="none" xmlns="http://www.w3.org/2000/svg">
<path fill-rule="evenodd" clip-rule="evenodd" d="M15.8159 0.149617C16.3184 0.318677 16.7003 0.614309 16.8779 0.971692C17.0555 1.32908 17.0142 1.71904 16.7632 2.05609L4.49875 18.4945L16.7675 34.93C16.895 35.0972 16.9719 35.2797 16.9936 35.4669C17.0153 35.6541 16.9816 35.8423 16.8942 36.0207C16.8068 36.1991 16.6676 36.3642 16.4845 36.5064C16.3014 36.6486 16.0781 36.7651 15.8275 36.8492C15.5769 36.9333 15.3039 36.9834 15.0243 36.9965C14.7446 37.0096 14.4639 36.9856 14.1982 36.9256C13.9325 36.8657 13.6872 36.7712 13.4763 36.6475C13.2655 36.5238 13.0932 36.3733 12.9696 36.2048L0.22508 19.1319C0.0770677 18.934 -1.97357e-06 18.7158 -1.9639e-06 18.4945C-1.95423e-06 18.2732 0.0770677 18.0549 0.22508 17.8571L12.9696 0.784161C13.222 0.447574 13.6634 0.19176 14.1969 0.0728103C14.7305 -0.0461397 15.3127 -0.0185187 15.8159 0.149617Z" fill="#4EBC57"/>
</svg>
