<svg width="8" height="9" viewBox="0 0 8 9" fill="none" xmlns="http://www.w3.org/2000/svg">
<path fill-rule="evenodd" clip-rule="evenodd" d="M0.238441 7.9082C0.126546 7.78471 0.068767 7.62139 0.0778144 7.45418C0.0868617 7.28697 0.161994 7.12957 0.286684 7.01659L5.73374 2.08114L1.90417 1.91182C1.82123 1.90814 1.73998 1.88816 1.66508 1.85303C1.59017 1.8179 1.52306 1.7683 1.46759 1.70708C1.41211 1.64586 1.36936 1.5742 1.34176 1.4962C1.31417 1.4182 1.30227 1.33539 1.30676 1.25249C1.31124 1.16959 1.33202 1.08823 1.3679 1.01305C1.40379 0.937872 1.45407 0.87035 1.51589 0.814338C1.57771 0.758327 1.64985 0.714922 1.72819 0.686604C1.80653 0.658286 1.88954 0.645607 1.97248 0.649294L7.32471 0.887178C7.40769 0.89076 7.48898 0.91067 7.56394 0.945764C7.63889 0.980859 7.70604 1.03045 7.76154 1.0917C7.81703 1.15294 7.85978 1.22464 7.88734 1.30269C7.91489 1.38073 7.92671 1.46359 7.92212 1.54651L7.63266 6.89621C7.62818 6.9791 7.6074 7.06047 7.57152 7.13564C7.53563 7.21082 7.48535 7.27834 7.42353 7.33436C7.36171 7.39037 7.28957 7.43377 7.21123 7.46209C7.13289 7.49041 7.04988 7.50309 6.96694 7.4994C6.79944 7.49195 6.6424 7.41831 6.53036 7.29466C6.47489 7.23343 6.43213 7.16178 6.40454 7.08378C6.37694 7.00578 6.36505 6.92296 6.36954 6.84007L6.57753 3.0124L1.13048 7.94785C1.00579 8.06083 0.841759 8.12012 0.674469 8.11269C0.507179 8.10525 0.350335 8.0317 0.238441 7.9082Z" fill="#4EBC57"/>
</svg>
