<svg width="9" height="8" viewBox="0 0 9 8" fill="none" xmlns="http://www.w3.org/2000/svg">
<path fill-rule="evenodd" clip-rule="evenodd" d="M0.738563 7.4082C0.626668 7.28471 0.568889 7.12139 0.577936 6.95418C0.586984 6.78697 0.662116 6.62957 0.786806 6.51659L6.23386 1.58114L2.40429 1.41182C2.32135 1.40814 2.24011 1.38816 2.1652 1.35303C2.09029 1.3179 2.02318 1.2683 1.96771 1.20708C1.91223 1.14586 1.86948 1.0742 1.84188 0.996199C1.81429 0.918199 1.80239 0.835386 1.80688 0.752487C1.81136 0.669588 1.83214 0.588228 1.86803 0.51305C1.90391 0.437872 1.95419 0.37035 2.01601 0.314338C2.07783 0.258327 2.14997 0.214922 2.22831 0.186604C2.30665 0.158286 2.38966 0.145607 2.4726 0.149294L7.82483 0.387178C7.90781 0.39076 7.9891 0.41067 8.06406 0.445764C8.13902 0.480859 8.20617 0.530449 8.26166 0.591696C8.31715 0.652943 8.3599 0.724642 8.38746 0.802687C8.41501 0.880732 8.42683 0.963588 8.42224 1.04651L8.13279 6.39621C8.1283 6.4791 8.10752 6.56047 8.07164 6.63564C8.03576 6.71082 7.98547 6.77834 7.92365 6.83436C7.86183 6.89037 7.7897 6.93377 7.71135 6.96209C7.63301 6.99041 7.55 7.00309 7.46707 6.9994C7.29956 6.99195 7.14252 6.91831 7.03049 6.79466C6.97501 6.73343 6.93226 6.66178 6.90466 6.58378C6.87707 6.50578 6.86517 6.42296 6.86966 6.34007L7.07766 2.5124L1.6306 7.44785C1.50591 7.56083 1.34188 7.62012 1.17459 7.61269C1.0073 7.60525 0.850457 7.5317 0.738563 7.4082Z" fill="#FFC21C"/>
</svg>
