<svg width="13" height="6" viewBox="0 0 13 6" fill="none" xmlns="http://www.w3.org/2000/svg">
<path fill-rule="evenodd" clip-rule="evenodd" d="M0.0525683 0.417923C0.111968 0.240567 0.215838 0.105773 0.341405 0.0430956C0.466973 -0.019582 0.603989 -0.00502823 0.722412 0.0835667L6.49806 4.41221L12.2727 0.0820674C12.3315 0.0370582 12.3956 0.00993421 12.4613 0.00225917C12.5271 -0.00541588 12.5932 0.00650982 12.6559 0.0373488C12.7186 0.0681879 12.7766 0.11733 12.8266 0.181942C12.8765 0.246555 12.9175 0.325359 12.947 0.413812C12.9766 0.502265 12.9942 0.598617 12.9988 0.697313C13.0034 0.796009 12.9949 0.895097 12.9739 0.988864C12.9528 1.08263 12.9196 1.16922 12.8761 1.24365C12.8327 1.31807 12.7798 1.37885 12.7206 1.42249L6.72201 5.92056C6.65249 5.9728 6.57581 6 6.49806 6C6.42031 6 6.34363 5.9728 6.27411 5.92056L0.275516 1.42249C0.157256 1.33341 0.0673753 1.17763 0.025582 0.989321C-0.0162112 0.801007 -0.00650654 0.595523 0.0525683 0.417923Z" fill="white"/>
</svg>
