<svg width="15" height="8" viewBox="0 0 15 8" fill="none" xmlns="http://www.w3.org/2000/svg">
<path d="M0.81551 1.33853L0.81551 1.33853C0.888715 1.11995 1.02726 0.92049 1.22975 0.819413C1.44548 0.711731 1.68319 0.742009 1.87217 0.883387L1.87234 0.883515L7.49802 5.09976L13.1207 0.883614C13.121 0.883323 13.1214 0.883033 13.1218 0.882743C13.2118 0.814106 13.3172 0.767382 13.4324 0.753944C13.5486 0.740379 13.6629 0.762175 13.7663 0.813026C13.8685 0.863312 13.955 0.939333 14.0243 1.02902C14.0937 1.11872 14.1469 1.22325 14.1841 1.33458C14.2214 1.44613 14.2429 1.56533 14.2485 1.68565C14.2541 1.80602 14.2439 1.92746 14.2178 2.04362C14.1918 2.15961 14.1498 2.27073 14.092 2.36973C14.0345 2.46822 13.9603 2.55613 13.8699 2.62304C13.8696 2.62327 13.8692 2.6235 13.8689 2.62373L7.8722 7.12041C7.87219 7.12042 7.87219 7.12042 7.87218 7.12043L7.87199 7.12057L7.72201 6.92056C7.65249 6.9728 7.57581 7 7.49806 7C7.42031 7 7.34363 6.9728 7.27411 6.92056L0.81551 1.33853ZM0.81551 1.33853L0.815347 1.33902C0.741544 1.5609 0.730241 1.81243 0.78152 2.04349C0.832235 2.272 0.946448 2.48761 1.1251 2.62218L1.12553 2.62251L7.12392 7.12041L0.81551 1.33853Z" fill="#969696" stroke="#969696" stroke-width="0.5"/>
</svg>
