<svg width="8" height="9" viewBox="0 0 8 9" fill="none" xmlns="http://www.w3.org/2000/svg">
<path fill-rule="evenodd" clip-rule="evenodd" d="M0.238563 7.9082C0.126668 7.78471 0.0688891 7.62139 0.0779365 7.45418C0.0869838 7.28697 0.162116 7.12957 0.286806 7.01659L5.73386 2.08114L1.90429 1.91182C1.82135 1.90814 1.74011 1.88816 1.6652 1.85303C1.59029 1.8179 1.52318 1.7683 1.46771 1.70708C1.41223 1.64586 1.36948 1.5742 1.34188 1.4962C1.31429 1.4182 1.30239 1.33539 1.30688 1.25249C1.31136 1.16959 1.33214 1.08823 1.36803 1.01305C1.40391 0.937872 1.45419 0.87035 1.51601 0.814338C1.57783 0.758327 1.64997 0.714922 1.72831 0.686604C1.80665 0.658286 1.88966 0.645607 1.9726 0.649294L7.32483 0.887178C7.40781 0.89076 7.4891 0.91067 7.56406 0.945764C7.63902 0.980859 7.70617 1.03045 7.76166 1.0917C7.81715 1.15294 7.8599 1.22464 7.88746 1.30269C7.91501 1.38073 7.92683 1.46359 7.92224 1.54651L7.63279 6.89621C7.6283 6.9791 7.60752 7.06047 7.57164 7.13564C7.53576 7.21082 7.48547 7.27834 7.42365 7.33436C7.36183 7.39037 7.2897 7.43377 7.21135 7.46209C7.13301 7.49041 7.05 7.50309 6.96707 7.4994C6.79956 7.49195 6.64252 7.41831 6.53049 7.29466C6.47501 7.23343 6.43226 7.16178 6.40466 7.08378C6.37707 7.00578 6.36517 6.92296 6.36966 6.84007L6.57766 3.0124L1.1306 7.94785C1.00591 8.06083 0.841881 8.12012 0.674591 8.11269C0.507301 8.10525 0.350457 8.0317 0.238563 7.9082Z" fill="#4EBC57"/>
</svg>
