<svg width="15" height="22" viewBox="0 0 15 22" fill="none" xmlns="http://www.w3.org/2000/svg">
<path d="M11.0289 6.51532C9.04888 4.54494 6.67958 2.78773 3.34858 0.828856C2.92141 0.578011 2.54512 0.512599 2.23447 0.645154C1.92382 0.777709 1.70728 1.08667 1.5928 1.56864C1.07203 3.70223 0.704833 5.79853 0.514042 7.80074C0.267828 10.335 0.340957 12.2717 0.742897 14.0963C1.4259 17.2416 4.11967 19.4724 7.28313 19.516C7.76753 19.5259 8.24865 19.4618 8.72179 19.4012C8.8469 19.3854 8.97998 19.3663 9.11645 19.3552L9.19123 19.5304C9.34078 19.8809 9.49712 20.2473 9.65347 20.6137C9.82681 21.0199 10.0629 21.2864 10.3663 21.4017C10.5936 21.493 10.8427 21.4809 11.0816 21.379C11.0896 21.3756 11.0976 21.3722 11.1055 21.3688C11.3172 21.269 11.9774 20.8744 11.5287 19.8229C11.3724 19.4565 11.216 19.0901 11.0597 18.7237L10.9713 18.5166C10.9872 18.5098 10.9998 18.495 11.0157 18.4883C14.0299 16.5712 15.0559 12.7532 13.4041 9.58821C12.8497 8.55368 12.0973 7.58478 11.0289 6.51532ZM9.59808 15.3646C9.30324 14.8501 9.32436 14.4362 9.67779 13.8523C10.1863 13.0139 10.6471 12.1299 11.0942 11.28C11.239 11.0017 11.3885 10.7119 11.5413 10.4302C12.0982 11.3601 12.2931 12.5009 12.0684 13.6514C11.831 14.8825 11.1459 15.9469 10.1658 16.6288C10.1522 16.597 10.1386 16.5651 10.125 16.5332C9.97439 16.1361 9.81582 15.7424 9.59808 15.3646ZM8.28857 12.1853L8.27147 12.2114C8.26127 12.1876 8.24768 12.1557 8.23748 12.1318C7.98034 11.5071 7.73222 10.9256 7.45341 10.3384C7.28454 9.98678 7.29058 9.75822 7.47303 9.43556C7.83337 8.80161 8.15505 8.16532 8.49043 7.49494C8.55659 7.36313 8.62275 7.23133 8.68892 7.09952C8.91716 7.30343 9.13404 7.50278 9.34295 7.70552C9.662 8.01191 9.9492 8.3319 10.2001 8.6109C9.58187 9.788 8.95689 10.9492 8.28857 12.1853ZM6.2515 7.4334L4.86137 4.17558L7.11384 5.74725L6.2515 7.4334ZM6.40301 13.0181L6.32686 12.9941C4.99131 12.6225 3.73987 12.2714 2.45774 11.9146C2.43722 11.2266 2.4201 10.5465 2.40192 9.81987L2.40085 9.77324L3.31923 10.0499C3.97845 10.2488 4.65701 10.4489 5.331 10.6603C5.35373 10.6694 5.38782 10.6831 5.40258 10.6957C5.7482 11.4615 6.07672 12.2535 6.40301 13.0181ZM2.54173 7.69818L2.95309 4.99926L4.33301 8.2332L2.54173 7.69818ZM8.22139 17.2796L8.28257 17.423C7.18143 17.6669 5.94572 17.4409 4.91306 16.8082C3.89176 16.18 3.17229 15.2441 2.85906 14.1349L5.04936 14.7445C5.80864 14.9572 6.5986 15.1756 7.36924 15.3929C7.39197 15.402 7.4147 15.4111 7.42606 15.4157C7.68777 16.029 7.95628 16.6583 8.22139 17.2796Z" fill="white"/>
</svg>
