<svg width="14" height="22" viewBox="0 0 14 22" fill="none" xmlns="http://www.w3.org/2000/svg">
<path d="M10.4902 6.5545C8.57271 4.58412 6.2783 2.82691 3.05259 0.868041C2.63892 0.617195 2.27452 0.551784 1.97369 0.684338C1.67286 0.816893 1.46316 1.12585 1.35231 1.60782C0.847997 3.74141 0.492405 5.83772 0.307645 7.83992C0.0692127 10.3742 0.14003 12.3109 0.529266 14.1355C1.19068 17.2808 3.79931 19.5115 6.86278 19.5552C7.33187 19.5651 7.79778 19.501 8.25597 19.4403C8.37713 19.4246 8.50599 19.4055 8.63815 19.3943L8.71057 19.5696C8.85539 19.9201 9.00679 20.2865 9.1582 20.6529C9.32606 21.0591 9.5547 21.3256 9.84855 21.4409C10.0686 21.5322 10.3098 21.5201 10.5412 21.4181C10.5489 21.4147 10.5567 21.4114 10.5644 21.408C10.7693 21.3082 11.4086 20.9135 10.9742 19.8621C10.8228 19.4957 10.6714 19.1293 10.52 18.7629L10.4344 18.5558C10.4498 18.549 10.462 18.5342 10.4774 18.5274C13.3963 16.6104 14.3899 12.7924 12.7903 9.6274C12.2534 8.59286 11.5248 7.62397 10.4902 6.5545ZM9.10456 15.4037C8.81904 14.8893 8.83949 14.4754 9.18175 13.8915C9.67417 13.0531 10.1204 12.1691 10.5534 11.3192C10.6937 11.0409 10.8384 10.7511 10.9863 10.4693C11.5256 11.3993 11.7144 12.5401 11.4968 13.6906C11.267 14.9217 10.6035 15.9861 9.65433 16.668C9.64116 16.6361 9.628 16.6043 9.61483 16.5724C9.46898 16.1753 9.31541 15.7816 9.10456 15.4037ZM7.83644 12.2245L7.81988 12.2506C7.81001 12.2267 7.79684 12.1949 7.78697 12.171C7.53795 11.5463 7.29768 10.9648 7.02768 10.3776C6.86414 10.026 6.87 9.79741 7.04668 9.47475C7.39563 8.84079 7.70714 8.2045 8.03192 7.53412C8.09599 7.40232 8.16006 7.27051 8.22413 7.13871C8.44516 7.34262 8.65519 7.54196 8.8575 7.7447C9.16646 8.0511 9.44458 8.37109 9.68752 8.65008C9.08887 9.82718 8.48363 10.9884 7.83644 12.2245ZM5.86375 7.47259L4.51757 4.21476L6.69884 5.78643L5.86375 7.47259ZM6.01048 13.0573L5.93674 13.0333C4.6434 12.6616 3.43151 12.3106 2.18991 11.9538C2.17004 11.2657 2.15346 10.5857 2.13585 9.85905L2.13482 9.81243L3.02416 10.0891C3.66256 10.288 4.31967 10.488 4.97235 10.6995C4.99436 10.7086 5.02738 10.7223 5.04167 10.7348C5.37637 11.5007 5.6945 12.2926 6.01048 13.0573ZM2.27124 7.73737L2.6696 5.03845L4.00591 8.27238L2.27124 7.73737ZM7.77138 17.3188L7.83063 17.4622C6.76429 17.706 5.56764 17.4801 4.56762 16.8473C3.5786 16.2192 2.88187 15.2833 2.57854 14.1741L4.69961 14.7836C5.43489 14.9963 6.19989 15.2148 6.94617 15.4321C6.96818 15.4412 6.99019 15.4503 7.00119 15.4549C7.25463 16.0682 7.51465 16.6975 7.77138 17.3188Z" fill="#1F873C"/>
</svg>
