<svg width="34" height="40" viewBox="0 0 34 40" fill="none" xmlns="http://www.w3.org/2000/svg">
<path d="M33.1838 19.8635C33.0811 17.8572 32.5224 16.0711 31.5303 14.5419C30.2645 12.5845 28.4399 11.3367 25.954 10.7128C23.9355 10.2112 21.746 10.1623 19.2715 10.6027C18.9522 10.6639 18.6215 10.725 18.3136 10.7984C18.3934 9.92984 18.5873 9.07349 18.8952 8.25384C19.5794 6.40657 20.7539 4.8162 22.4531 3.40934C22.5557 3.3237 22.6583 3.2503 22.7724 3.16467C22.9206 3.05456 23.0574 2.94446 23.2057 2.82212C23.8443 2.27161 23.9469 1.30516 23.4224 0.583378C22.9434 -0.0894693 22.1794 -0.187338 21.4952 0.326472C19.4425 1.8679 17.8917 3.65401 16.7969 5.77042C16.6145 5.28108 16.3864 4.82843 16.1127 4.41249C15.0978 2.84659 13.5925 1.80674 11.6425 1.31739C10.9355 1.13389 10.2171 1.08496 9.51006 1.03602C9.38462 1.02379 9.27059 1.01155 9.14515 1.01155C8.42673 0.950386 7.86795 1.36633 7.63988 2.11258C7.59426 2.25938 7.54866 2.40618 7.49164 2.55299C7.40041 2.83436 7.29778 3.12796 7.22935 3.44604C6.77321 5.33001 6.80743 7.03048 7.30919 8.62085C7.52585 9.30593 7.85655 9.94207 8.31269 10.5293C8.30129 10.5293 8.27848 10.5293 8.26707 10.5415C6.12321 10.9697 4.43549 11.8505 3.12409 13.2207C1.69864 14.7132 0.843386 16.6461 0.478473 19.1173C0.193385 21.0502 0.250403 23.1054 0.649526 25.4053C1.17409 28.427 1.94952 30.7636 3.07847 32.7332C5.84952 37.5655 9.9662 40 15.3373 40C15.4969 40 15.668 40 15.8276 39.9878C16.0101 39.9878 16.1697 39.9633 16.3294 39.9388C16.5118 39.9144 16.6829 39.8899 16.8197 39.9021C18.0399 40.0367 19.1802 40.0122 20.2978 39.8654C25.0531 39.2048 28.5882 36.6358 30.8004 32.2439C32.6364 28.6105 33.4232 24.4511 33.1838 19.8635ZM8.52936 13.6488C10.4337 13.2207 12.4522 13.2818 14.8811 13.8568C15.1206 13.918 15.3601 13.9914 15.6109 14.0648C15.8618 14.1382 16.1127 14.2238 16.3864 14.285C16.5688 14.3339 16.9338 14.3829 17.2987 14.2605C19.6364 13.502 21.7688 13.2207 23.8215 13.3919C25.1443 13.502 26.2504 13.8446 27.2083 14.4073C28.8162 15.3616 29.7969 16.8663 30.2303 19.0316C30.561 20.6954 30.5382 22.4693 30.1733 24.5857C29.7171 27.2771 29.1013 29.2344 28.1662 30.9349C26.2276 34.4949 23.2855 36.4767 19.4311 36.8193C19.0434 36.856 18.6101 36.8682 18.1311 36.8682C17.8346 36.8682 17.5495 36.8437 17.2417 36.8315C17.1048 36.8193 16.968 36.807 16.8311 36.807L16.2495 36.7703V36.8682C16.0899 36.8682 15.9416 36.8682 15.782 36.8682C15.0408 36.8682 14.3338 36.856 13.6381 36.7581C9.89779 36.2321 7.10392 34.2013 5.33637 30.7269C4.28725 28.6472 3.64865 26.2494 3.35216 23.191C3.19251 21.5517 3.22671 20.2061 3.47759 18.9338C4.03636 16.0099 5.68988 14.285 8.52936 13.6488ZM14.482 10.4437C14.482 10.4681 14.482 10.4926 14.482 10.5171C14.4592 10.5171 14.4364 10.5048 14.4136 10.5048C13.353 10.3091 12.1329 9.97877 11.1066 9.11019C10.3653 8.47404 9.9434 7.65439 9.84076 6.6023C9.76094 5.80712 9.82936 4.9997 10.0574 4.14335C11.4487 4.32686 12.4636 4.79173 13.2504 5.58692C14.0487 6.40657 14.4706 7.50759 14.5162 8.97562C14.539 9.4405 14.5048 9.92984 14.482 10.4437Z" fill="white"/>
</svg>
