<svg width="42" height="43" viewBox="0 0 42 43" fill="none" xmlns="http://www.w3.org/2000/svg">
<path d="M41.816 18.5996C41.5798 17.7703 41.2137 16.9898 40.8476 16.2459C40.6705 15.88 40.5051 15.5386 40.3516 15.1849C40.1627 14.7581 39.8556 14.1605 39.2415 13.9532C38.6156 13.7459 37.9778 14.0629 37.5645 14.3068C37.0567 14.6117 36.2772 14.7459 35.734 14.6239C34.7656 14.4044 34.7301 13.4044 34.7656 12.9776C34.8246 12.1361 35.2261 11.6483 36.0765 11.4044C36.785 11.197 37.3991 10.9775 37.6472 10.4165C37.8952 9.85555 37.6708 9.24579 37.3755 8.57504C36.9031 7.52625 36.478 6.58721 36.0765 5.72134C35.2261 3.90424 34.0688 3.45301 32.3327 4.23351C31.5533 4.58717 30.7974 4.95303 29.9117 5.36768C29.8526 5.39207 29.8054 5.41646 29.7464 5.44085C29.77 5.23353 29.7936 5.0506 29.8172 4.85547C30.0416 2.61153 28.6953 0.611499 26.6168 0.111491C24.5618 -0.388517 22.318 0.84321 21.7393 2.80666C21.5976 3.27008 21.7157 3.7335 21.7983 4.09936C21.881 4.44083 22.1172 4.70913 22.4361 4.81889C22.7549 4.92864 23.0974 4.86767 23.3572 4.64815C23.617 4.42864 23.8769 4.19692 24.0304 3.84326C24.3611 3.13593 24.9516 2.66031 25.5893 2.61153C26.1089 2.57495 26.5813 2.81885 26.9002 3.31886C27.0537 3.55057 27.0773 4.01399 27.101 4.46522C27.1128 4.75791 27.1364 5.06279 27.1836 5.36768C27.2072 5.53841 27.2309 5.73353 27.2545 5.94086C27.3135 6.58721 27.3962 7.30673 27.8332 7.84333C28.4709 8.63602 30.1243 8.09943 30.4431 7.98967C30.9982 7.79454 31.506 7.53844 32.002 7.28234C32.4508 7.05063 32.876 6.83111 33.3247 6.67257C33.4074 6.66038 33.6082 6.69696 33.7027 6.74575C34.0806 7.40429 34.3876 8.13601 34.6947 8.83115C34.7301 8.91651 34.7656 9.00188 34.801 9.07505C31.7658 11.0141 31.9076 13.2946 32.5925 14.8922C33.1004 16.0874 34.1396 17.3191 36.2654 17.3191C36.8795 17.3191 37.5763 17.2215 38.3676 16.9898C38.403 17.0752 38.4502 17.1606 38.4857 17.2459C38.7809 17.8679 39.088 18.5264 39.3242 19.1728C39.395 19.3679 39.3005 19.6362 39.1352 19.7338C38.6982 19.9899 38.2258 20.1972 37.7298 20.4167C37.6826 20.4411 37.6353 20.4533 37.5881 20.4777C36.0174 18.2703 34.1987 17.6118 32.1556 18.4898C31.6359 18.7216 31.199 19.0142 30.8447 19.3679C30.8919 18.5996 30.7856 17.8679 30.5022 17.2459C29.1559 14.3312 27.3135 13.4776 23.995 14.2459C23.8887 14.0264 23.7824 13.8068 23.6879 13.5751C23.5462 13.258 23.4163 12.9776 23.2982 12.7337C23.1092 12.3312 22.9203 11.9044 22.873 11.7092C23.0265 11.5873 23.4281 11.3922 23.8296 11.2092C24.0776 11.0873 24.3493 10.9531 24.6681 10.7946C24.798 10.7336 24.9516 10.6726 25.1287 10.6117C25.7782 10.38 26.8766 9.9897 26.8884 8.57504C26.9002 7.27014 26.1562 6.30672 24.798 5.84329C24.7862 5.8311 24.7744 5.8189 24.7508 5.80671C24.6445 5.70914 24.4792 5.55061 24.243 5.47743C23.9831 5.39207 23.7351 5.34328 23.4989 5.3067C23.1801 5.24572 22.8494 5.36768 22.625 5.61158C22.4006 5.85549 22.3062 6.19696 22.377 6.52623C22.4479 6.8555 22.5423 7.30673 22.8848 7.63601C23.1683 7.9043 23.4635 8.11162 23.7706 8.30675C23.2627 8.57504 22.7431 8.83115 22.2471 9.08725L22.0463 9.18481C20.3457 10.0507 19.9087 11.3068 20.6882 13.1117C21.0189 13.88 21.3614 14.6361 21.7038 15.38L21.9282 15.8678C22.0109 16.0386 22.0818 16.1971 22.1526 16.3435C20.8772 16.3435 19.5899 16.3557 18.3144 16.3679C17.9129 16.3801 17.5822 16.563 17.2751 16.7581C16.9799 16.941 16.8146 17.2581 16.8146 17.6118C16.8146 17.9654 16.9799 18.2825 17.2751 18.4655C17.5704 18.6606 17.9011 18.8435 18.3026 18.8557C20.2276 18.8801 22.1881 18.8801 24.0776 18.8801C25.1641 18.8801 26.2388 18.8801 27.3253 18.8801C27.597 18.8801 27.8922 18.9167 28.1875 18.9411C28.1993 19.0752 28.1993 19.185 28.1993 19.2947C28.2229 21.4777 27.4907 22.2582 25.4003 22.2826C24.6209 22.2948 23.8414 22.2948 22.9793 22.2826C21.7157 22.2704 21.0897 22.2704 20.6173 22.6241C20.0505 23.0509 20.0505 23.7338 20.0387 24.6607C20.0387 24.8314 20.0387 25.0143 20.0268 25.2217C19.9678 28.5266 18.031 30.8193 14.984 31.2218C14.6061 31.2705 14.2991 31.4657 14.0156 31.673C13.744 31.8681 13.5905 32.1974 13.6023 32.5389C13.6141 32.8803 13.7912 33.1974 14.0865 33.3681C14.3935 33.5633 14.7833 33.795 15.2557 33.7706C17.1216 33.673 18.9049 32.795 20.2748 31.3193C21.6448 29.8437 22.4243 27.9778 22.4833 26.0387C22.4951 25.5753 22.5069 25.0997 22.5542 24.8924C22.7431 24.868 23.1683 24.8802 23.5934 24.9046C23.1565 26.1729 23.369 27.4412 24.243 28.6729C23.0738 30.5266 23.0738 31.551 24.2312 33.5633C23.4281 34.5999 23.1919 35.856 23.5698 37.2341H22.6486C20.8063 37.2341 19.0584 37.2341 17.3106 37.2462C17.2633 37.2462 17.2161 37.2462 17.1689 37.2462C16.7201 37.2462 16.1532 37.2462 15.7162 37.5877C14.5943 38.4902 13.496 39.4414 12.4331 40.3682C12.1142 40.6365 11.8072 40.917 11.4883 41.1853C11.134 41.4902 11.0395 41.9902 11.2403 42.4171C11.4056 42.7707 11.7481 42.978 12.1142 42.978C12.2323 42.978 12.3504 42.9537 12.4685 42.9049C12.5984 42.8561 12.7284 42.8073 12.8583 42.7585C13.3661 42.5634 13.8857 42.3683 14.3817 42.0634C15.0903 41.6244 15.7044 41.0268 16.2004 40.5146C16.6847 40.0146 17.2279 39.8195 18.1018 39.8195C21.9046 39.8682 25.7783 39.856 29.5102 39.8439H30.5258C32.8642 39.8317 34.4821 38.4414 34.5412 36.3682C34.5648 35.5999 34.3168 34.8925 34.0451 34.1364C33.9743 33.9291 33.8916 33.7096 33.8208 33.4901C34.9073 31.9657 34.86 30.2461 33.7027 28.6973C34.5176 27.5876 34.7419 26.3558 34.3994 25.0387H34.5884C35.4269 25.0387 36.2182 25.0387 36.9976 25.0387C38.3439 25.0265 39.4068 24.368 40.1745 23.0875C40.3162 22.8558 40.4933 22.6363 40.6823 22.3923C40.9775 22.0143 41.2846 21.6362 41.4972 21.1606C41.6979 20.5874 42.064 19.5142 41.816 18.5996ZM26.6876 30.0632C27.4316 30.0144 28.1875 29.9778 28.9433 29.9778C29.6991 29.9778 30.4431 30.0022 31.199 30.0632C31.9902 30.1242 32.0139 30.9047 32.002 31.1486C31.9666 31.8315 31.6359 32.1852 30.9746 32.2218C30.5258 32.2462 30.077 32.2462 29.6046 32.234C29.3921 32.234 29.1677 32.2218 28.9551 32.2218C28.7425 32.2218 28.5181 32.2218 28.3056 32.234C27.8332 32.2462 27.3844 32.2462 26.9356 32.2218C26.2743 32.1852 25.9318 31.8315 25.9082 31.1364C25.8727 30.9047 25.9082 30.112 26.6876 30.0632ZM31.8249 26.8314C31.6714 27.1119 31.3525 27.2949 30.9392 27.3436C29.8054 27.4656 28.5772 27.4656 26.9356 27.3558C26.3333 27.3193 25.9554 26.9412 25.8845 26.3314C25.8373 25.929 25.9318 25.6363 26.1916 25.4412C26.7939 26.3924 27.3253 27.0997 28.2937 27.2095C29.1086 27.2949 30.0298 26.9412 31.9194 26.1485C31.9666 26.3924 31.9312 26.6363 31.8249 26.8314ZM25.8727 35.9657C25.8609 35.4535 26.416 34.9291 27.0419 34.8804C27.2663 34.8682 27.4907 34.856 27.7269 34.856C27.9158 34.856 28.1166 34.856 28.3174 34.8682C28.5181 34.8682 28.7307 34.8804 28.9315 34.8804C29.1323 34.8804 29.333 34.8804 29.5338 34.8682C29.9826 34.856 30.4077 34.856 30.8211 34.8804C31.4588 34.9291 32.0139 35.4413 32.002 35.9535C31.9902 36.3682 31.8603 37.0755 31.0573 37.1487C29.6637 37.2706 28.2347 37.2706 26.8057 37.1487C26.0263 37.0877 25.8845 36.3804 25.8727 35.9657ZM33.7735 22.4167C33.431 22.4045 33.0767 22.3923 32.7224 22.3923C32.5689 22.3923 32.4036 22.3923 32.2501 22.4045C32.2382 21.5997 32.6162 21.0631 33.3602 20.8191C34.0806 20.5752 35.0136 20.8801 35.3324 21.807C35.3915 22.0021 35.4741 22.2094 35.5686 22.4167C34.9899 22.4533 34.3876 22.4289 33.7735 22.4167ZM28.7307 24.7217C28.6953 24.6729 28.6126 24.5265 28.5181 24.1241C28.9905 23.685 29.3921 23.1728 29.7345 22.6363C29.7464 23.0997 29.7936 23.5997 29.8999 24.1363C29.1322 24.6363 28.837 24.7217 28.7307 24.7217Z" fill="white"/>
<path d="M11.8072 27.3315C11.9135 27.0997 12.0316 26.8314 12.1379 26.551C12.2323 26.2949 12.2087 26.0509 12.1969 25.8924C12.1969 25.8558 12.1969 25.8192 12.1851 25.7948C12.1497 23.1241 13.2362 21.1118 15.5037 19.6606C15.8343 19.4533 16.0351 19.124 16.2005 18.8191C16.3658 18.5142 16.3776 18.1484 16.2123 17.8435C16.0587 17.5386 15.7635 17.3313 15.421 17.3069C15.0549 17.2825 14.5943 17.2459 14.181 17.4776C12.1142 18.6362 10.7207 20.4655 9.89398 23.0753C9.65779 23.8314 9.26807 24.5021 8.84292 24.8924C7.47297 26.1485 6.03216 27.3924 4.63859 28.5876C3.61114 29.4656 2.56007 30.3803 1.53261 31.3071C1.21374 31.5876 1.07202 31.9779 0.96573 32.3559C0.859442 32.7096 0.953923 33.0876 1.19012 33.3559C1.37908 33.5511 1.62709 33.6608 1.89871 33.6608C1.98138 33.6608 2.06405 33.6486 2.14672 33.6242C2.39472 33.5633 2.66636 33.4779 2.94979 33.3925C3.1978 33.3072 3.35133 33.1486 3.43399 33.0511C3.4458 33.0389 3.45762 33.0267 3.46943 33.0145L9.95303 27.4168L10.3073 27.6973C10.5435 27.8802 10.8388 27.9534 11.134 27.8802C11.4411 27.8071 11.6773 27.6119 11.8072 27.3315Z" fill="white"/>
</svg>
