<svg width="44" height="45" viewBox="0 0 44 45" fill="none" xmlns="http://www.w3.org/2000/svg">
<path d="M43.7051 21.5766C43.4098 20.2839 42.7012 19.2473 42.0163 18.2473C41.9808 18.1863 41.9454 18.1375 41.8982 18.0765C41.8391 17.9911 41.7919 17.9058 41.7328 17.8204C41.3549 17.2838 41.1896 16.6741 41.2368 15.9667C41.2959 14.9789 41.3431 14.1618 41.3549 13.3203C41.3903 11.6618 40.6463 10.3325 39.2055 9.49101C38.6032 9.13735 37.9182 8.78368 37.127 8.40563C36.4184 8.06416 35.9106 7.55195 35.5917 6.83243C35.261 6.08851 34.9067 5.36899 34.5406 4.68605C33.7257 3.18603 32.4385 2.40553 30.8087 2.44211C29.9348 2.4665 29.1317 2.50309 28.3641 2.56407C27.62 2.62504 26.9823 2.44211 26.3564 1.9665C25.7186 1.49088 25.0573 1.05185 24.3959 0.649401C22.9788 -0.216467 21.4907 -0.216467 20.0735 0.649401C19.3413 1.10063 18.6209 1.60064 18.0186 2.02747C17.4517 2.42992 16.8494 2.61285 16.1763 2.56407C15.1488 2.4909 14.3576 2.45431 13.6135 2.44211C12.0192 2.41772 10.7437 3.17383 9.94067 4.63727C9.53913 5.36899 9.18484 6.1251 8.85416 6.85682L8.81873 6.92999C8.52349 7.57634 8.0629 8.03977 7.43698 8.35684C6.70477 8.7227 5.94894 9.10076 5.21673 9.5154C3.79954 10.3447 3.06733 11.6618 3.09095 13.3081C3.10276 14.1862 3.15 15.0277 3.20905 15.8326C3.2681 16.6131 3.09095 17.2838 2.63036 17.9546C2.20521 18.5765 1.78006 19.2351 1.37852 19.9424C0.5164 21.4302 0.516399 23.0034 1.39033 24.4791C1.75643 25.101 2.15797 25.7474 2.70122 26.5645C3.09095 27.1498 3.25629 27.7718 3.20905 28.4669C3.13819 29.4791 3.10276 30.3084 3.09095 31.0645C3.05552 32.7475 3.81135 34.089 5.26396 34.9183C6.0198 35.3451 6.77563 35.7232 7.41336 36.0402C8.05109 36.3573 8.51168 36.8207 8.81873 37.4915C9.18484 38.272 9.53913 39.0403 9.95248 39.7842C10.7437 41.211 11.9838 41.9672 13.5545 41.9672C13.5663 41.9672 13.5781 41.9672 13.5899 41.9672H13.6844C14.204 41.9672 14.7473 41.955 15.2905 41.8818C16.6132 41.6989 17.6407 41.9672 18.5146 42.6989C19.5421 43.5525 20.5577 44.1013 21.6206 44.3818C21.6561 44.394 21.7033 44.394 21.7387 44.394H22.7189C22.7544 44.394 22.8016 44.394 22.837 44.3818C23.8881 44.1135 24.9156 43.5647 25.9785 42.6867C26.8406 41.9672 27.8444 41.7111 29.1317 41.8818C29.7104 41.955 30.3009 41.9672 30.915 41.9672H30.9268C32.4739 41.9672 33.7021 41.2232 34.4816 39.8208C34.9185 39.0403 35.2964 38.2232 35.6271 37.4915C35.9342 36.8329 36.3948 36.3573 37.0325 36.0402C37.7293 35.6988 38.4851 35.3207 39.2173 34.8939C40.6581 34.0524 41.4021 32.7353 41.3667 31.0645C41.3549 30.284 41.3077 29.4548 41.2486 28.4669C41.2014 27.7352 41.3667 27.1133 41.7682 26.5401C41.8273 26.4669 41.8745 26.3815 41.9336 26.2962C41.969 26.2474 42.0044 26.1986 42.0281 26.1498C42.713 25.1498 43.4098 24.1132 43.7169 22.8205C43.7287 22.7839 43.7287 22.7351 43.7287 22.6985V21.6863C43.7169 21.6497 43.7169 21.6132 43.7051 21.5766ZM38.4969 28.7474C38.5323 29.1987 38.556 29.6621 38.5796 30.1133C38.5914 30.3816 38.6032 30.6621 38.6268 30.9304C38.6741 31.6743 38.3906 32.1743 37.7293 32.5158C37.5167 32.6255 37.3041 32.7353 37.0915 32.8451C36.631 33.089 36.1586 33.3329 35.6862 33.5646C34.6115 34.1134 33.7966 34.9426 33.2651 36.0524C32.9227 36.7598 32.5802 37.4671 32.2495 38.1744C31.907 38.8817 31.4228 39.1744 30.6906 39.1256C30.3717 39.1013 30.0529 39.0891 29.7458 39.0647C29.3443 39.0403 28.9309 39.0159 28.5294 38.9915C27.2775 38.8939 26.1438 39.1866 25.14 39.8696L25.0573 39.9305C24.4432 40.3452 23.8409 40.7598 23.2268 41.1745C22.5654 41.6257 21.9513 41.6257 21.2899 41.1867L20.9002 40.9184C20.4278 40.6013 19.9318 40.2598 19.4594 39.9305C18.5501 39.2842 17.5344 38.9671 16.4125 38.9671C16.3062 38.9671 16.1999 38.9671 16.0818 38.9793C15.3968 39.0159 14.6764 39.0647 13.8261 39.1256C13.0821 39.1744 12.5861 38.8817 12.2318 38.15C12.1491 37.9793 12.0664 37.8086 11.9838 37.6378C11.6649 36.9671 11.3224 36.2841 10.9681 35.6134C10.5194 34.7719 9.82257 34.1012 8.81873 33.5768L8.47625 33.3938C7.80308 33.0402 7.1063 32.6743 6.44495 32.2963C6.04342 32.0646 5.85446 31.6987 5.86627 31.1743C5.87808 30.3206 5.92532 29.4913 5.98437 28.7108C6.07885 27.3815 5.7836 26.1742 5.09863 25.1254C4.67347 24.4791 4.26013 23.8205 3.85859 23.1864C3.42163 22.5034 3.42163 21.8693 3.85859 21.1863C3.97669 21.0034 4.09479 20.8083 4.2247 20.6253C4.50813 20.1863 4.79157 19.7351 5.08682 19.296C5.79541 18.2229 6.09066 17.0033 5.98437 15.674C5.94894 15.2472 5.92532 14.8204 5.91351 14.3935C5.9017 14.0886 5.88989 13.7838 5.86627 13.4911C5.81903 12.7228 6.10246 12.2228 6.78744 11.8813C6.9882 11.7837 7.18897 11.674 7.38974 11.5764C7.81489 11.3569 8.25186 11.1252 8.68882 10.9179C9.858 10.3569 10.7319 9.44223 11.3224 8.2227C11.6885 7.45439 12.0901 6.6617 12.527 5.8568C12.7278 5.49094 13.0585 5.29582 13.5191 5.30801C14.393 5.32021 15.1842 5.3568 15.9401 5.41777C17.2628 5.52753 18.4556 5.21045 19.483 4.47873C19.731 4.308 19.9909 4.12507 20.2389 3.95433C20.5459 3.74701 20.8766 3.5275 21.1837 3.29579C21.9277 2.75919 22.589 2.75919 23.3449 3.28359C24.0653 3.7836 24.8329 4.32019 25.636 4.80801C26.4154 5.28362 27.3602 5.49094 28.494 5.40558C28.9309 5.38119 29.3679 5.3568 29.8167 5.33241C30.1237 5.32021 30.4308 5.29582 30.7496 5.28362C31.4582 5.23484 31.9188 5.52753 32.2495 6.19827C32.3558 6.41779 32.4739 6.6495 32.5802 6.88121C32.8872 7.51537 33.2061 8.17391 33.5486 8.80807C33.9974 9.64955 34.6941 10.3081 35.6744 10.8203C36.2294 11.113 36.8908 11.4545 37.5521 11.7715C38.4497 12.2106 38.7449 12.7594 38.5442 13.6008C38.5323 13.6374 38.5323 13.6862 38.5323 13.7228C38.5323 14.0155 38.5323 14.3082 38.5323 14.6009C38.5323 15.2716 38.5205 15.9667 38.5442 16.6497C38.5678 17.5277 38.8512 18.3814 39.4063 19.2473C39.5598 19.479 39.7133 19.7229 39.855 19.9546C40.1267 20.3814 40.3983 20.7961 40.6699 21.2229C41.0951 21.8937 41.0951 22.5156 40.6699 23.1864L40.5046 23.4547C40.1621 23.9912 39.8078 24.54 39.4535 25.0766C38.6859 26.162 38.3788 27.3937 38.4969 28.7474Z" fill="white"/>
<path d="M30.1238 19.6863C28.6948 16.0399 26.6635 12.4545 23.5339 8.07639C23.1323 7.51541 22.6954 7.22272 22.2348 7.22272C21.7742 7.22272 21.3372 7.50321 20.9357 8.06419C19.1406 10.5398 17.5581 13.0521 16.2472 15.5399C14.582 18.6863 13.6372 21.2351 13.1648 23.8206C12.3381 28.2718 14.5229 32.65 18.4674 34.4549C19.0697 34.7354 19.7075 34.9183 20.3334 35.1012C20.4987 35.15 20.6759 35.1988 20.853 35.2598V35.5281C20.853 36.0647 20.853 36.6256 20.853 37.1866C20.853 37.8086 21.0065 38.2842 21.3254 38.6013C21.5616 38.8452 21.8805 38.9671 22.2348 38.9671C22.2466 38.9671 22.2584 38.9671 22.2702 38.9671C22.5891 38.955 23.6283 38.8086 23.6283 37.1988C23.6283 36.6378 23.6283 36.0769 23.6283 35.5159V35.1988C23.652 35.1988 23.6756 35.1866 23.6992 35.1866C28.5058 34.3695 31.8362 29.9914 31.4583 24.9791C31.3166 23.3327 30.8914 21.662 30.1238 19.6863ZM23.5929 30.3572C23.4984 29.528 23.7464 29.0036 24.5023 28.4426C25.5888 27.6377 26.6398 26.7474 27.6555 25.8938C27.9862 25.6133 28.3287 25.3206 28.6711 25.0401C28.8719 26.5523 28.5058 28.1377 27.6083 29.5036C26.6517 30.967 25.2227 31.967 23.6283 32.3085C23.6283 32.2597 23.6283 32.2109 23.6283 32.1622C23.652 31.5646 23.6638 30.967 23.5929 30.3572ZM23.652 25.5157L23.6165 25.5401C23.6165 25.5035 23.6165 25.4547 23.6165 25.4181C23.6283 24.4669 23.6283 23.5766 23.5929 22.662C23.5693 22.1132 23.6992 21.8205 24.1007 21.5034C24.892 20.8815 25.636 20.2351 26.4155 19.5522C26.569 19.418 26.7225 19.2839 26.876 19.1497C27.0532 19.54 27.2185 19.9181 27.3721 20.2961C27.6083 20.8693 27.7972 21.4425 27.9626 21.9425C26.5572 23.1254 25.1518 24.284 23.652 25.5157ZM23.6401 18.2351V13.2472L25.6242 16.5277L23.6401 18.2351ZM20.8412 25.5523L20.7585 25.4791C19.2823 24.2596 17.9006 23.1132 16.4834 21.9425C16.8259 21.04 17.1683 20.1498 17.5344 19.1985L17.5581 19.1375L18.5619 20.0034C19.2823 20.6254 20.0263 21.2595 20.7585 21.9059C20.7822 21.9303 20.8176 21.9669 20.8294 21.9913C20.853 23.1742 20.8412 24.3815 20.8412 25.5523ZM18.8453 16.5277L20.8058 13.2594V18.2107L18.8453 16.5277ZM20.8412 32.0768V32.2963C19.3295 32.0036 17.9006 31.028 16.944 29.6377C15.9992 28.2597 15.5976 26.6499 15.7984 25.0401L18.2194 27.0401C19.0579 27.7353 19.9318 28.4548 20.7822 29.1621C20.8058 29.1865 20.8294 29.2109 20.8412 29.2231C20.8412 30.1621 20.8412 31.1256 20.8412 32.0768Z" fill="white"/>
</svg>
