<svg width="34" height="36" viewBox="0 0 34 36" fill="none" xmlns="http://www.w3.org/2000/svg">
<path d="M15.2688 35.1896C15.1808 35.1493 15.0928 35.1089 15.0048 35.0584C14.594 34.8362 14.3593 34.3818 14.4278 33.9274C14.4963 33.4528 14.819 33.0892 15.2688 32.9883C15.435 32.9479 15.6208 32.9479 15.7968 32.9479C20.9894 32.9479 26.182 32.9479 31.3649 32.9479C31.5018 32.9479 31.6485 32.9479 31.8245 32.9479C31.8245 32.7661 31.8245 32.6247 31.8245 32.4834C31.8245 23.4759 31.8245 14.4684 31.8245 5.4609C31.8245 5.29933 31.8245 5.13776 31.844 4.98629C31.9125 4.46119 32.2645 4.08756 32.7633 4.00677C33.262 3.93609 33.702 4.18854 33.9172 4.67325C33.9465 4.73384 33.9758 4.79443 34.0052 4.84492C34.0052 14.6603 34.0052 24.4857 34.0052 34.301C33.8585 34.7453 33.5749 35.0382 33.1446 35.1896C27.1697 35.1896 21.2144 35.1896 15.2688 35.1896Z" fill="white"/>
<path d="M33.9854 1.64393C33.741 2.31041 33.2618 2.52247 32.5871 2.52247C24.6173 2.51237 16.6474 2.51237 8.67764 2.51237C8.54073 2.51237 8.39404 2.51237 8.20824 2.51237C8.20824 2.68404 8.20824 2.83551 8.20824 2.97688C8.20824 8.08651 8.20824 13.2062 8.20824 18.3159C8.20824 18.4774 8.20825 18.639 8.18869 18.7905C8.13002 19.3661 7.67041 19.7801 7.11301 19.77C6.56539 19.7599 6.11556 19.3459 6.06667 18.7905C6.05689 18.6592 6.05688 18.5178 6.05688 18.3866C6.05688 12.8225 6.05688 7.24837 6.05688 1.68433C6.05688 0.654323 6.42849 0.270596 7.43571 0.270596C15.8358 0.270596 24.2359 0.270596 32.636 0.260498C33.3009 0.260498 33.7605 0.492754 33.9854 1.14913C33.9854 1.3208 33.9854 1.48237 33.9854 1.64393Z" fill="white"/>
<path d="M0.111328 26.6064C0.326464 25.6875 0.55138 24.7585 0.766516 23.8395C0.952316 23.0519 1.11856 22.2743 1.29458 21.4867C1.45104 20.7899 1.8422 20.4769 2.54628 20.4769C6.03735 20.4769 9.5382 20.4769 13.0293 20.4769C13.7431 20.4769 14.1147 20.7697 14.281 21.4766C14.6721 23.163 15.0535 24.8594 15.4349 26.5458C15.5816 27.2123 15.2491 27.798 14.6526 27.9595C14.0756 28.111 13.4987 27.7475 13.3324 27.081C13.0097 25.7481 12.7163 24.405 12.4132 23.0721C12.3839 22.961 12.3643 22.8499 12.335 22.7388C12.1394 22.7388 11.9536 22.7388 11.7189 22.7388C11.7873 23.3346 11.846 23.9203 11.9047 24.4959C11.9829 25.2432 12.0807 25.9803 12.1492 26.7276C12.2078 27.4042 11.7971 27.9192 11.2104 27.9797C10.5845 28.0403 10.1054 27.6364 10.0174 26.9396C9.8609 25.7077 9.73378 24.4858 9.58709 23.2538C9.51864 22.6682 9.50886 22.6782 8.87323 22.7489C8.87323 22.8701 8.87323 23.0014 8.87323 23.1327C8.87323 24.3343 8.88301 25.5461 8.87323 26.7478C8.86346 27.4849 8.45274 27.9696 7.82689 27.9797C7.20104 27.9999 6.72187 27.5253 6.72187 26.8488C6.7121 25.6067 6.72187 24.3747 6.72187 23.1327C6.72187 23.0115 6.72187 22.8903 6.72187 22.7388C6.49696 22.7388 6.2916 22.7388 6.06669 22.7388C5.97868 23.4457 5.90044 24.1526 5.82221 24.8594C5.74398 25.5158 5.67553 26.1722 5.60708 26.8185C5.52885 27.5859 5.03012 28.0504 4.36515 27.9595C3.72952 27.8788 3.35793 27.3133 3.44594 26.5458C3.59262 25.2836 3.73931 24.0213 3.88599 22.7287C3.67085 22.7287 3.47528 22.7287 3.25036 22.7287C2.93744 24.1425 2.61473 25.5461 2.29202 26.9598C2.13556 27.6667 1.62706 28.0605 1.01099 27.9494C0.55138 27.8687 0.306906 27.5354 0.111328 27.1315C0.111328 26.9699 0.111328 26.7882 0.111328 26.6064Z" fill="white"/>
<path d="M2.49742 35.1897C1.87157 34.9171 1.66621 34.4223 1.67599 33.7255C1.70533 32.1906 1.67599 30.6557 1.69555 29.1309C1.70533 28.3331 2.3703 27.8181 3.08416 28.0302C3.55354 28.1716 3.83713 28.5856 3.84691 29.1713C3.85669 30.2922 3.84691 31.4231 3.84691 32.544C3.84691 32.6652 3.84691 32.7864 3.84691 32.9278C6.45788 32.9278 9.02973 32.9278 11.6309 32.9278C11.6309 32.3926 11.6309 31.8675 11.6309 31.3525C11.6309 30.6759 11.6309 29.9892 11.6309 29.3126C11.6309 28.5048 12.071 27.9696 12.7262 27.9797C13.3716 27.9898 13.8018 28.5048 13.8018 29.3025C13.8018 30.7971 13.7823 32.3017 13.8116 33.7962C13.8214 34.4829 13.5769 34.9575 12.9511 35.1897C9.46978 35.1897 5.97871 35.1897 2.49742 35.1897Z" fill="white"/>
<path d="M15.8651 18.9622C14.1146 18.9622 12.3642 18.9622 10.604 18.9622C9.78257 18.9622 9.24473 18.225 9.50876 17.4677C9.66523 17.0233 10.0564 16.7406 10.5551 16.7305C10.9756 16.7204 11.3961 16.7305 11.8068 16.7305C14.8774 16.7305 17.9577 16.7305 21.0283 16.7305C21.6542 16.7305 22.0453 16.9729 22.2311 17.4475C22.5049 18.1846 21.9964 18.9521 21.2043 18.9622C20.1091 18.9723 19.0236 18.9622 17.9284 18.9622C17.2537 18.9622 16.5594 18.9622 15.8651 18.9622Z" fill="white"/>
<path d="M15.865 10.7222C14.1048 10.7222 12.3348 10.7323 10.5746 10.7222C9.78251 10.7222 9.26423 10.0052 9.50871 9.26803C9.64561 8.86411 9.91942 8.60156 10.3399 8.52077C10.4768 8.49048 10.6235 8.49048 10.7702 8.49048C14.183 8.49048 17.6056 8.49048 21.0185 8.49048C21.7128 8.49048 22.1333 8.76313 22.28 9.30842C22.4853 10.0456 21.9768 10.7222 21.1945 10.7222C19.5614 10.7323 17.9283 10.7222 16.305 10.7222C16.1584 10.7222 16.0117 10.7222 15.865 10.7222Z" fill="white"/>
<path d="M25.82 26.4549C26.7881 25.4552 27.7073 24.506 28.6265 23.5567C28.9004 23.274 29.2035 23.1023 29.5947 23.1528C30.0249 23.2134 30.3379 23.4457 30.4845 23.8698C30.6312 24.2838 30.5628 24.6776 30.2792 25.0109C30.2401 25.0614 30.1912 25.1118 30.1423 25.1623C28.9981 26.3438 27.854 27.5253 26.7001 28.7068C26.1329 29.2925 25.5364 29.2925 24.9692 28.7068C24.4412 28.1716 23.9229 27.6364 23.4046 27.0911C23.1015 26.7679 23.0037 26.3842 23.1504 25.9601C23.2873 25.5562 23.5708 25.2936 23.9816 25.2128C24.3727 25.132 24.6954 25.2734 24.9692 25.5562C25.2528 25.8288 25.5169 26.1318 25.82 26.4549Z" fill="white"/>
<path d="M25.8201 18.0735C26.798 17.0636 27.7172 16.1245 28.6365 15.1652C28.9103 14.8825 29.2134 14.7108 29.6046 14.7613C30.0251 14.8219 30.3478 15.0541 30.4945 15.4782C30.6411 15.8923 30.5727 16.2861 30.2793 16.6193C30.2011 16.7102 30.1131 16.8011 30.0251 16.892C28.9298 18.023 27.8248 19.1539 26.7296 20.295C26.1331 20.911 25.5463 20.9009 24.9498 20.2849C24.4315 19.7598 23.9035 19.2347 23.4145 18.6894C22.8082 18.0129 23.1309 16.993 23.9915 16.8213C24.3826 16.7405 24.7053 16.892 24.9792 17.1646C25.253 17.4474 25.517 17.7503 25.8201 18.0735Z" fill="white"/>
<path d="M25.8006 9.682C25.9375 9.55072 26.0255 9.46994 26.1136 9.37906C26.9448 8.52072 27.776 7.66238 28.617 6.80405C29.145 6.25875 29.7904 6.22846 30.2598 6.70307C30.6999 7.15748 30.6607 7.84415 30.162 8.36925C29.0081 9.56082 27.8542 10.7524 26.7003 11.9339C26.1429 12.4994 25.5464 12.5095 24.989 11.944C24.4511 11.3987 23.9231 10.8534 23.4048 10.298C23.0919 9.96475 23.0039 9.56082 23.1701 9.1367C23.3168 8.73278 23.6199 8.49043 24.0307 8.42984C24.412 8.36925 24.725 8.51062 24.989 8.78327C25.253 9.06602 25.517 9.36896 25.8006 9.682Z" fill="white"/>
<path d="M19.3465 24.9705C19.943 24.9705 20.5395 24.9705 21.1262 24.9705C21.8303 24.9806 22.329 25.4451 22.329 26.0914C22.329 26.7276 21.8303 27.2022 21.1556 27.2022C19.9527 27.2123 18.7597 27.2123 17.5569 27.2022C16.8626 27.2022 16.3932 26.7478 16.3834 26.0914C16.3737 25.4249 16.8528 24.9705 17.5667 24.9604C18.1534 24.9604 18.7499 24.9705 19.3465 24.9705Z" fill="white"/>
</svg>
