<svg width="18" height="17" viewBox="0 0 18 17" fill="none" xmlns="http://www.w3.org/2000/svg">
<path fill-rule="evenodd" clip-rule="evenodd" d="M-3.55936e-07 8.5C-3.69419e-07 8.19153 0.118513 7.89571 0.329468 7.67759C0.540423 7.45948 0.826539 7.33694 1.12487 7.33694L14.1577 7.33694L9.32746 2.34511C9.22287 2.23697 9.13991 2.1086 9.08331 1.96731C9.02671 1.82602 8.99757 1.67459 8.99757 1.52166C8.99757 1.36874 9.02671 1.21731 9.08331 1.07602C9.13991 0.934732 9.22287 0.806357 9.32746 0.698221C9.43204 0.590084 9.55621 0.504306 9.69285 0.445783C9.8295 0.38726 9.97596 0.357139 10.1239 0.357139C10.2718 0.357139 10.4182 0.38726 10.5549 0.445783C10.6915 0.504306 10.8157 0.590084 10.9203 0.698221L17.6695 7.67655C17.7743 7.78459 17.8574 7.91294 17.9141 8.05424C17.9708 8.19553 18 8.34701 18 8.5C18 8.65298 17.9708 8.80446 17.9141 8.94576C17.8574 9.08706 17.7743 9.2154 17.6695 9.32344L10.9203 16.3018C10.8157 16.4099 10.6915 16.4957 10.5549 16.5542C10.4182 16.6127 10.2718 16.6429 10.1239 16.6429C9.97596 16.6429 9.8295 16.6127 9.69285 16.5542C9.55621 16.4957 9.43204 16.4099 9.32746 16.3018C9.11624 16.0834 8.99757 15.7872 8.99757 15.4783C8.99757 15.3254 9.02671 15.174 9.08331 15.0327C9.13991 14.8914 9.22287 14.763 9.32746 14.6549L14.1577 9.66305L1.12487 9.66305C0.826539 9.66305 0.540423 9.54052 0.329468 9.3224C0.118513 9.10428 -3.42452e-07 8.80846 -3.55936e-07 8.5Z" fill="#183921"/>
</svg>
