<svg width="117" height="95" viewBox="0 0 117 95" fill="none" xmlns="http://www.w3.org/2000/svg">
<path d="M71.4278 34.6808C72.7449 34.6808 74.0367 34.6808 75.3538 34.6808C75.9871 34.6808 76.3923 34.9849 76.5697 35.5932C77.4562 38.508 78.3173 41.4227 79.2545 44.3375C79.5078 45.1232 79.3052 45.5794 78.596 45.9342C73.7328 48.4181 68.6922 49.6601 63.1958 48.6462C59.3964 47.9619 55.749 46.872 52.0762 45.7568C50.9111 45.402 49.6953 45.1992 48.5301 44.8951C48.2515 44.819 48.0236 44.5909 47.7703 44.4389C47.9222 44.2107 48.0236 43.9319 48.2262 43.7545C51.2151 40.9665 54.5332 38.6854 58.3326 37.2153C62.5373 35.5932 66.9192 34.7061 71.4278 34.6808Z" fill="white"/>
<path d="M61.2454 57.5426C56.3315 57.5173 51.9242 56.8836 47.5676 55.9965C44.908 55.4643 42.2484 54.8053 39.6142 54.0449C37.5878 53.462 35.6375 52.6002 33.6618 51.8652C33.5098 51.8145 33.3325 51.6878 33.2566 51.561C32.9273 51.0288 33.4591 48.8997 34.0417 48.6209C36.5746 47.2776 39.2343 46.4666 42.1218 46.5173C45.0853 46.5933 47.9222 47.2776 50.7084 48.2408C55.5209 49.8882 60.3588 51.409 65.5006 51.6878C68.5401 51.8398 71.4784 51.3836 74.3406 50.4205C76.063 49.8375 77.7853 49.2039 79.5077 48.6463C79.6597 48.5956 80.1156 48.8491 80.1409 49.0011C80.3689 50.2684 80.6476 51.561 80.6222 52.8537C80.5969 53.2592 79.685 53.7661 79.0771 53.9942C73.2514 56.3514 67.1217 57.4412 61.2454 57.5426Z" fill="white"/>
<path d="M34.3458 45.6302C34.7511 44.3376 35.055 43.197 35.4856 42.1071C36.7014 39.0403 37.9173 35.9735 39.2597 32.9574C40.7542 29.5864 42.6032 26.3929 44.9335 23.5035C45.1108 23.3007 45.6427 23.1486 45.8706 23.2753C50.8352 25.6832 55.2424 28.826 58.9152 32.9827C59.4978 33.6417 58.9912 33.9205 58.4846 34.1233C57.4968 34.5541 56.4836 34.909 55.5211 35.3652C51.3671 37.3168 47.5171 39.6993 44.3256 43.0703C43.9456 43.4758 43.3124 43.7546 42.7552 43.8306C40.2223 44.0588 37.7653 44.6164 35.3843 45.4781C35.1311 45.5795 34.8271 45.5795 34.3458 45.6302Z" fill="white"/>
<path d="M52.7096 71.6095C49.2141 71.1533 45.5667 70.2155 42.0966 68.492C36.3976 65.6533 31.8383 61.5473 28.1402 56.4275C27.9629 56.174 28.0136 55.7685 27.9376 55.4136C28.2669 55.4136 28.6215 55.363 28.9001 55.439C32.0409 56.5289 35.1817 57.6948 38.3479 58.7086C42.1979 59.9505 46.1493 60.7362 50.1766 61.2178C51.4938 61.3699 52.8362 61.3952 54.1787 61.4966C55.0145 61.5473 55.1919 61.9021 54.8373 62.6371C53.7228 65.0957 53.1402 67.6302 53.976 70.3422C54.3306 71.4574 54.1027 71.7109 52.7096 71.6095Z" fill="white"/>
<path d="M93.7428 38.1533C93.8441 44.3376 91.9445 49.4828 88.6517 54.1717C88.449 54.4505 88.0438 54.6026 87.7145 54.8053C87.6132 54.4759 87.4612 54.121 87.4105 53.7915C86.9039 50.4712 86.5493 47.1003 85.8401 43.8053C85.2829 41.1441 84.371 38.5588 83.4592 35.9989C83.0033 34.7063 82.1927 33.515 81.5848 32.2731C81.4835 32.0703 81.4329 31.8169 81.3822 31.5888C81.6102 31.5127 81.8634 31.4113 82.1167 31.386C83.2312 31.2846 84.3964 31.31 85.4855 31.1072C87.5119 30.7017 89.057 29.4851 90.3741 27.9643C91.134 27.0772 91.4632 27.1279 91.8938 28.2431C93.0843 31.5634 93.8695 34.9851 93.7428 38.1533Z" fill="white"/>
<path d="M63.5505 75.7155C59.3206 75.7155 56.0278 72.3699 56.0531 68.0865C56.0785 63.8791 59.4219 60.4575 63.5252 60.4828C67.5779 60.5082 71.124 63.8031 71.0733 68.1118C71.0226 72.4206 67.8059 75.7155 63.5505 75.7155Z" fill="white"/>
<path d="M31.1289 34.681C27.8614 34.4529 25.5058 32.9575 24.1634 30.0681C22.8463 27.2294 23.3275 24.4667 25.2779 22.0588C25.7845 21.4505 26.6963 21.1464 27.4562 20.7916C30.0144 19.5243 32.446 19.7777 35.0549 20.969C37.9931 22.3123 38.6517 24.7201 38.5504 27.4068C38.4491 30.3215 36.9547 32.6026 34.1938 33.8192C33.2313 34.1994 32.1421 34.3768 31.1289 34.681Z" fill="white"/>
<path d="M54.3051 4.16492C54.5078 4.2663 54.8624 4.44372 55.217 4.62114C55.0397 4.97598 54.9384 5.4322 54.6598 5.68565C49.7206 10.1718 45.2626 15.1142 41.3872 20.5635C40.982 21.1465 40.4501 21.6534 39.8928 22.1096C39.7155 22.2617 39.1583 22.1857 38.9556 22.0082C37.056 20.2087 35.0803 18.5612 32.4207 17.9529C31.3822 17.7248 31.2809 17.37 31.8888 16.5082C34.7003 12.6304 38.2717 9.66492 42.5777 7.51054C46.2251 5.711 50.0751 4.74787 54.3051 4.16492Z" fill="white"/>
<path d="M90.8552 22.287C90.7539 26.3423 87.2078 29.688 83.1298 29.5866C79.0771 29.4852 75.5563 25.9115 75.7843 21.9068C75.9869 18.1303 79.305 14.7594 83.611 14.9114C87.5877 15.0889 90.9312 18.4345 90.8552 22.287Z" fill="white"/>
<path d="M74.1382 19.3976C73.8342 19.0934 73.5809 18.9414 73.4289 18.7133C69.123 12.4529 63.5252 7.40911 57.8008 2.5174C57.1929 2.01049 56.585 1.50358 56.0278 0.97132C55.8505 0.7939 55.7745 0.515098 55.6478 0.312333C55.8758 0.286988 56.1544 0.16026 56.3571 0.210951C58.0794 0.667172 59.8018 1.0727 61.4736 1.63031C64.817 2.72017 68.0085 4.16487 71.048 5.91372C74.2648 7.7386 77.3043 9.81694 80.0652 12.2755C80.6984 12.8331 80.6225 13.0865 79.8626 13.3653C77.3297 14.3285 75.4553 15.9759 74.4928 18.5865C74.4168 18.7893 74.3155 18.9921 74.1382 19.3976Z" fill="white"/>
<path d="M31.4583 37.469C31.205 38.1787 30.9263 38.939 30.6731 39.7247C29.6092 43.0197 28.4948 46.2639 27.5323 49.5842C26.6204 52.7017 25.8605 55.8699 25.05 59.0128C24.8727 59.6971 24.7207 60.3814 24.4927 61.0151C24.4168 61.2178 24.0875 61.4966 23.9102 61.4966C23.7329 61.4966 23.4289 61.1671 23.4036 60.939C23.0236 58.9114 22.5677 56.8837 22.3651 54.8307C21.8332 48.8999 21.9598 42.969 22.9223 37.0888C23.0743 36.2017 23.2516 35.3146 23.4796 34.4529C23.6569 33.7178 24.0875 33.5911 24.67 34.0727C26.4178 35.5427 28.3428 36.6072 30.7238 36.5819C31.2303 36.6072 31.4836 36.886 31.4583 37.469Z" fill="white"/>
<path d="M73.6315 70.545C73.0236 70.5704 72.7703 70.3423 72.8716 69.81C73.3022 67.2754 72.8716 64.893 71.5291 62.6879C71.1238 62.0289 71.3518 61.6741 72.1371 61.5727C75.1006 61.1672 78.0894 60.9137 81.0023 60.2801C84.1431 59.6211 87.2079 58.6326 90.3234 57.7708C90.6273 57.6948 90.9313 57.5174 91.2353 57.492C91.5139 57.4667 91.8178 57.5427 92.1218 57.5681C92.0205 57.8469 92.0205 58.2017 91.8431 58.4045C89.8421 60.8377 87.6132 63.0174 85.0296 64.8676C81.6862 67.2754 78.0641 69.1257 74.138 70.4183C73.9354 70.469 73.7328 70.5197 73.6315 70.545Z" fill="white"/>
<path d="M71.7571 31.2087C69.2748 31.6142 66.7672 31.9437 64.3103 32.4253C63.0945 32.6787 62.2079 32.6027 61.3214 31.5889C59.8016 29.8654 59.6497 29.8147 61.4228 28.4207C63.9304 26.4944 66.5646 24.7709 69.1735 22.9967C69.6294 22.6925 70.06 22.7686 70.4906 23.2248C72.2384 25.2525 73.4541 27.5843 74.3913 30.0681C74.9232 31.4368 74.8472 31.4621 73.3781 31.4114C72.8462 31.4114 72.3397 31.4114 71.8077 31.4114C71.7824 31.3354 71.7571 31.2847 71.7571 31.2087Z" fill="white"/>
<path d="M65.1715 22.0589C63.9557 22.8953 62.8412 23.605 61.8027 24.4414C60.6629 25.3538 59.599 26.3423 58.5605 27.3308C58.054 27.8123 57.7247 27.8123 57.1674 27.3561C55.2424 25.8354 53.2667 24.34 51.2911 22.8953C50.5819 22.3884 50.5312 22.1603 51.2404 21.6533C51.4177 21.5266 51.5697 21.3492 51.747 21.3238C54.0013 21.045 56.1289 19.8285 58.4845 20.1579C59.903 20.3354 61.2961 20.7409 62.7145 21.045C63.1958 21.1464 63.7024 21.1464 64.1583 21.3238C64.4876 21.4506 64.7916 21.7801 65.1715 22.0589Z" fill="white"/>
<path d="M57.8007 15.9504C58.1807 16.6348 58.586 17.2937 59.0926 18.1808C58.13 18.2315 57.4968 18.3076 56.8382 18.3076C56.7116 18.3076 56.433 17.9781 56.4583 17.902C56.7622 17.2177 57.1168 16.5587 57.4715 15.8744C57.5728 15.9251 57.6994 15.9251 57.8007 15.9504Z" fill="white"/>
<path d="M52.9629 16.8883C53.6974 17.4713 54.3307 17.9782 55.1666 18.6372C54.2294 18.9666 53.5962 19.2201 52.9376 19.3975C52.8109 19.4229 52.4563 19.1187 52.4563 19.0173C52.5829 18.3077 52.7856 17.598 52.9629 16.8883Z" fill="white"/>
<path d="M60.5107 18.2569C61.1186 17.6486 61.4986 17.2177 61.9292 16.8376C62.0812 16.7108 62.5877 16.7108 62.5877 16.7615C62.765 17.4205 62.8917 18.0795 62.993 18.7385C62.993 18.7892 62.689 18.9666 62.5877 18.9413C61.9545 18.7638 61.3213 18.5357 60.5107 18.2569Z" fill="white"/>
<path d="M67.0204 19.6762C66.9698 19.9804 66.9192 20.3099 66.8179 20.614C66.6405 21.2223 66.1592 21.4251 65.6273 21.0702C65.3994 20.9182 65.1714 20.7154 64.9688 20.5126C64.5129 20.0311 64.5888 19.7523 65.2474 19.5495C65.602 19.4481 65.9566 19.296 66.2859 19.1693C66.8432 18.9412 67.0711 19.0933 67.0204 19.6762Z" fill="white"/>
<path d="M48.3276 19.8538C48.5556 19.7778 48.8596 19.575 49.0875 19.6511C49.5434 19.7524 50.0246 19.9552 50.4299 20.234C50.5819 20.3354 50.6326 20.8676 50.5819 20.893C50.0753 21.1211 49.5434 21.3492 49.0115 21.4252C48.8595 21.4506 48.6316 20.8676 48.4796 20.5635C48.3783 20.3861 48.4036 20.234 48.3276 19.8538Z" fill="white"/>
<path d="M5.31874 82.635C5.31874 81.8493 5.3187 81.0383 5.34403 80.582H5.31874C5.14143 81.2664 4.43217 83.1166 3.95092 84.4599H3.44433C3.0644 83.3701 2.35521 81.2917 2.15258 80.582H2.12723C2.15256 81.0889 2.17787 82.0267 2.17787 82.7618V84.4599H1.646V80.1765H2.48187C2.96313 81.4945 3.57098 83.218 3.69763 83.7756C3.79894 83.3701 4.50821 81.4945 5.0148 80.1765H5.82532V84.4599H5.26809V82.635H5.31874Z" fill="white"/>
<path d="M6.86389 79.9482H7.39583V80.6326H6.86389V79.9482ZM6.86389 81.3423H7.39583V84.4598H6.86389V81.3423Z" fill="white"/>
<path d="M8.33301 82.128C8.33301 81.8492 8.33301 81.5957 8.33301 81.3423H8.86495C8.89028 81.4437 8.89024 81.7731 8.89024 81.8492C9.01688 81.5704 9.27021 81.2662 9.87812 81.2662C10.4607 81.2662 10.9166 81.6211 10.9166 82.4575V84.4598H10.3847V82.5335C10.3847 82.0519 10.2074 81.7478 9.72612 81.7478C9.14354 81.7478 8.89024 82.204 8.89024 82.8123V84.4598H8.35836V82.128H8.33301Z" fill="white"/>
<path d="M11.8032 79.9482H12.3352V80.6326H11.8032V79.9482ZM11.8032 81.3423H12.3352V84.4598H11.8032V81.3423Z" fill="white"/>
<path d="M13.5001 83.5729C13.6014 83.9024 13.8293 84.1051 14.2599 84.1051C14.7159 84.1051 14.8932 83.9024 14.8932 83.6236C14.8932 83.3194 14.7412 83.1927 14.1586 83.0406C13.2721 82.8125 13.0694 82.5591 13.0694 82.1282C13.0694 81.6973 13.3987 81.2411 14.1839 81.2411C14.9945 81.2411 15.3237 81.6973 15.3491 82.1535H14.8172C14.7665 81.9508 14.6146 81.672 14.1333 81.672C13.7027 81.672 13.576 81.8747 13.576 82.0775C13.576 82.3056 13.7027 82.4323 14.2852 82.5591C15.2224 82.7872 15.4251 83.0913 15.4251 83.5729C15.4251 84.1305 14.9944 84.5107 14.2092 84.5107C13.3987 84.5107 12.9935 84.1051 12.9175 83.5475H13.5001V83.5729Z" fill="white"/>
<path d="M15.7291 81.3424H16.2611V80.4299H16.793V81.3424H17.4769V81.7732H16.793V83.5981C16.793 83.9023 16.869 84.0544 17.1476 84.0544C17.2236 84.0544 17.3249 84.0544 17.4262 84.029V84.4345C17.2996 84.4852 17.0969 84.4852 16.9703 84.4852C16.489 84.4852 16.2611 84.2318 16.2611 83.7249V81.7732H15.7291V81.3424Z" fill="white"/>
<path d="M18.3634 82.9897C18.3634 83.6234 18.6926 84.0796 19.2245 84.0796C19.7058 84.0796 19.8831 83.8261 19.9844 83.598H20.5163C20.3897 84.0036 20.0604 84.5358 19.1992 84.5358C18.2114 84.5358 17.8314 83.7501 17.8314 82.939C17.8314 82.0013 18.2874 81.2662 19.2499 81.2662C20.2631 81.2662 20.5923 82.0773 20.5923 82.7363C20.5923 82.8377 20.5923 82.9137 20.5923 82.9897H18.3634ZM20.0351 82.6096C20.0351 82.1026 19.7818 81.6718 19.2499 81.6718C18.6926 81.6718 18.4647 82.0519 18.414 82.6096H20.0351Z" fill="white"/>
<path d="M21.2761 82.2043C21.2761 81.7734 21.2761 81.52 21.2761 81.3679H21.808C21.808 81.4439 21.8334 81.6974 21.8334 82.0015C21.9853 81.5707 22.3653 81.3172 22.8719 81.2919V81.8241C22.2386 81.8495 21.8334 82.179 21.8334 82.9647V84.4854H21.3014V82.2043H21.2761Z" fill="white"/>
<path d="M23.3787 79.9482H23.9105V80.6326H23.3787V79.9482ZM23.3787 81.3423H23.9105V84.4598H23.3787V81.3423Z" fill="white"/>
<path d="M27.5325 82.8884C27.5325 83.7755 27.0259 84.5358 26.0634 84.5358C25.1769 84.5358 24.6196 83.8515 24.6196 82.9137C24.6196 82.0013 25.1516 81.2662 26.0887 81.2662C26.9499 81.2662 27.5325 81.9252 27.5325 82.8884ZM25.1769 82.9137C25.1769 83.598 25.5062 84.1049 26.0887 84.1049C26.6713 84.1049 26.9753 83.6234 26.9753 82.9137C26.9753 82.204 26.646 81.7225 26.0634 81.7225C25.4808 81.7225 25.1769 82.204 25.1769 82.9137Z" fill="white"/>
<path d="M32.3704 79.9482V83.5727C32.3704 83.8768 32.3704 84.1556 32.3704 84.4598H31.8638C31.8385 84.3837 31.8385 84.1303 31.8385 84.0289C31.6865 84.3584 31.3572 84.5358 30.8507 84.5358C30.0401 84.5358 29.5588 83.8768 29.5588 82.939C29.5588 81.9759 30.0908 81.2662 30.9519 81.2662C31.5092 81.2662 31.7372 81.4943 31.8385 81.6717V79.9482H32.3704ZM30.1161 82.9137C30.1161 83.6741 30.4707 84.0796 30.9519 84.0796C31.6865 84.0796 31.8385 83.5473 31.8385 82.863C31.8385 82.1787 31.6865 81.7224 31.0026 81.7224C30.4707 81.7224 30.1161 82.1533 30.1161 82.9137Z" fill="white"/>
<path d="M33.6115 82.9897C33.6115 83.6234 33.9408 84.0796 34.4727 84.0796C34.954 84.0796 35.1313 83.8261 35.2326 83.598H35.7645C35.6379 84.0036 35.3086 84.5358 34.4474 84.5358C33.4596 84.5358 33.0796 83.7501 33.0796 82.939C33.0796 82.0013 33.5355 81.2662 34.4981 81.2662C35.5112 81.2662 35.8405 82.0773 35.8405 82.7363C35.8405 82.8377 35.8405 82.9137 35.8405 82.9897H33.6115ZM35.2833 82.6096C35.2833 82.1026 35.03 81.6718 34.4981 81.6718C33.9408 81.6718 33.7128 82.0519 33.6622 82.6096H35.2833Z" fill="white"/>
<path d="M38.728 83.1673L38.2721 84.4599H37.7148L39.2346 80.1765H39.9438L41.5396 84.4599H40.9316L40.4504 83.1673H38.728ZM40.2984 82.6857C39.8931 81.5705 39.6652 80.9622 39.5639 80.6327C39.4626 80.9876 39.2093 81.7226 38.88 82.6857H40.2984Z" fill="white"/>
<path d="M44.7057 84.181C44.7057 85.1695 44.3005 85.7524 43.2873 85.7524C42.3501 85.7524 42.0462 85.2202 41.9955 84.7893H42.5528C42.6541 85.1188 42.9074 85.3215 43.3126 85.3215C44.0219 85.3215 44.1992 84.8653 44.1992 84.1556V83.9022C44.0219 84.257 43.7432 84.4598 43.2366 84.4598C42.4768 84.4598 41.9448 83.8261 41.9448 82.9137C41.9448 81.8999 42.5274 81.2662 43.2873 81.2662C43.8699 81.2662 44.1232 81.545 44.1992 81.7478C44.1992 81.5957 44.2245 81.393 44.2245 81.3423H44.731C44.731 81.5197 44.731 81.9506 44.731 82.2547V84.181H44.7057ZM42.4768 82.8884C42.4768 83.5473 42.806 84.0036 43.3379 84.0036C44.0218 84.0036 44.1992 83.5473 44.1992 82.863C44.1992 82.1533 44.0218 81.7478 43.3379 81.7478C42.7807 81.7225 42.4768 82.204 42.4768 82.8884Z" fill="white"/>
<path d="M45.6431 82.2043C45.6431 81.7734 45.6431 81.52 45.6431 81.3679H46.175C46.175 81.4439 46.2003 81.6974 46.2003 82.0015C46.3523 81.5707 46.7322 81.3172 47.2388 81.2919V81.8241C46.6056 81.8495 46.2003 82.179 46.2003 82.9647V84.4854H45.6684V82.2043H45.6431Z" fill="white"/>
<path d="M47.7452 79.9482H48.2771V80.6326H47.7452V79.9482ZM47.7452 81.3423H48.2771V84.4598H47.7452V81.3423Z" fill="white"/>
<path d="M51.6713 83.5223C51.5446 84.0545 51.1646 84.5615 50.3794 84.5615C49.5182 84.5615 48.9863 83.9532 48.9863 82.9393C48.9863 82.0522 49.4929 81.2919 50.4048 81.2919C51.2913 81.2919 51.6206 81.9255 51.6459 82.331H51.114C51.038 82.0015 50.8354 81.7481 50.3794 81.7481C49.8222 81.7481 49.5183 82.2297 49.5183 82.9393C49.5183 83.649 49.8222 84.1306 50.3541 84.1306C50.7341 84.1306 50.962 83.9278 51.0887 83.5476H51.6713V83.5223Z" fill="white"/>
<path d="M54.7868 83.5474C54.7868 83.8515 54.7868 84.2824 54.7868 84.4598H54.2549C54.2549 84.3838 54.2295 84.181 54.2295 84.0036C54.0776 84.3584 53.7736 84.5358 53.2924 84.5358C52.7605 84.5358 52.2539 84.2824 52.2539 83.3953V81.3423H52.7858V83.2686C52.7858 83.6741 52.9124 84.0543 53.419 84.0543C54.0016 84.0543 54.2042 83.7248 54.2042 82.9644V81.3423H54.7361V83.5474H54.7868Z" fill="white"/>
<path d="M55.724 84.4598V79.9482H56.2559V84.4598H55.724Z" fill="white"/>
<path d="M56.8131 81.3424H57.345V80.4299H57.8769V81.3424H58.5608V81.7732H57.8769V83.5981C57.8769 83.9023 57.9529 84.0544 58.2315 84.0544C58.3075 84.0544 58.4088 84.0544 58.5102 84.029V84.4345C58.3835 84.4852 58.1809 84.4852 58.0542 84.4852C57.573 84.4852 57.345 84.2318 57.345 83.7249V81.7732H56.8131V81.3424Z" fill="white"/>
<path d="M61.6004 83.5474C61.6004 83.8515 61.6004 84.2824 61.6004 84.4598H61.0685C61.0685 84.3838 61.0432 84.181 61.0432 84.0036C60.8912 84.3584 60.5873 84.5358 60.106 84.5358C59.5741 84.5358 59.0675 84.2824 59.0675 83.3953V81.3423H59.5994V83.2686C59.5994 83.6741 59.7261 84.0543 60.2327 84.0543C60.8152 84.0543 61.0178 83.7248 61.0178 82.9644V81.3423H61.5498V83.5474H61.6004Z" fill="white"/>
<path d="M62.5122 82.2043C62.5122 81.7734 62.5122 81.52 62.5122 81.3679H63.0441C63.0441 81.4439 63.0694 81.6974 63.0694 82.0015C63.2214 81.5707 63.6013 81.3172 64.1079 81.2919V81.8241C63.4747 81.8495 63.0694 82.179 63.0694 82.9647V84.4854H62.5375V82.2043H62.5122Z" fill="white"/>
<path d="M66.8942 83.7756C66.8942 84.0544 66.9195 84.3585 66.9449 84.4599H66.4383C66.413 84.3839 66.3876 84.2318 66.3876 84.0544C66.2863 84.2571 66.033 84.5359 65.4251 84.5359C64.6906 84.5359 64.3866 84.0544 64.3866 83.5728C64.3866 82.8885 64.9439 82.559 65.8557 82.559C66.0837 82.559 66.2609 82.559 66.3876 82.559V82.3055C66.3876 82.0267 66.3116 81.6972 65.7037 81.6972C65.1718 81.6972 65.0958 81.9507 65.0452 82.2041H64.5132C64.5639 81.7733 64.8172 81.2663 65.7291 81.2917C66.4889 81.2917 66.9195 81.5958 66.9195 82.3055V83.7756H66.8942ZM66.3623 82.9392C66.261 82.9392 66.033 82.9392 65.8557 82.9392C65.2225 82.9392 64.8932 83.1166 64.8932 83.5474C64.8932 83.8769 65.1211 84.1051 65.5011 84.1051C66.2609 84.1051 66.3623 83.5981 66.3623 83.0405V82.9392Z" fill="white"/>
<path d="M69.5792 81.3423C70.0858 82.8377 70.3643 83.6741 70.4403 83.9782C70.5417 83.6234 70.7696 82.9137 71.2762 81.3423H71.8082L70.6936 84.6119C70.3643 85.5243 70.1364 85.7524 69.5032 85.7524C69.4018 85.7524 69.3005 85.7524 69.1739 85.7271V85.2455C69.2499 85.2455 69.3512 85.2709 69.4272 85.2709C69.8324 85.2709 69.9844 85.0934 70.1618 84.5865L68.9966 81.3423H69.5792Z" fill="white"/>
<path d="M76.4939 79.9482V83.5727C76.4939 83.8768 76.4939 84.1556 76.4939 84.4598H75.9874C75.962 84.3837 75.962 84.1303 75.962 84.0289C75.81 84.3584 75.4808 84.5358 74.9742 84.5358C74.1637 84.5358 73.6824 83.8768 73.6824 82.939C73.6824 81.9759 74.2143 81.2662 75.0755 81.2662C75.6327 81.2662 75.8607 81.4943 75.962 81.6717V79.9482H76.4939ZM74.2396 82.9137C74.2396 83.6741 74.5942 84.0796 75.0755 84.0796C75.81 84.0796 75.962 83.5473 75.962 82.863C75.962 82.1787 75.81 81.7224 75.1261 81.7224C74.5689 81.7224 74.2396 82.1533 74.2396 82.9137Z" fill="white"/>
<path d="M77.735 82.9897C77.735 83.6234 78.0643 84.0796 78.5962 84.0796C79.0775 84.0796 79.2548 83.8261 79.3561 83.598H79.888C79.7613 84.0036 79.4321 84.5358 78.5709 84.5358C77.583 84.5358 77.2031 83.7501 77.2031 82.939C77.2031 82.0013 77.659 81.2662 78.6215 81.2662C79.6347 81.2662 79.964 82.0773 79.964 82.7363C79.964 82.8377 79.964 82.9137 79.964 82.9897H77.735ZM79.3814 82.6096C79.3814 82.1026 79.1281 81.6718 78.5962 81.6718C78.039 81.6718 77.811 82.0519 77.7604 82.6096H79.3814Z" fill="white"/>
<path d="M80.9266 83.5729C81.0279 83.9024 81.2559 84.1051 81.6865 84.1051C82.1424 84.1051 82.3197 83.9024 82.3197 83.6236C82.3197 83.3194 82.1677 83.1927 81.5851 83.0406C80.6986 82.8125 80.496 82.5591 80.496 82.1282C80.496 81.6973 80.8252 81.2411 81.6105 81.2411C82.421 81.2411 82.7503 81.6973 82.7756 82.1535H82.2437C82.193 81.9508 82.0411 81.672 81.5598 81.672C81.1292 81.672 81.0026 81.8747 81.0026 82.0775C81.0026 82.3056 81.1292 82.4323 81.7117 82.5591C82.6489 82.7872 82.8516 83.0913 82.8516 83.5729C82.8516 84.1305 82.421 84.5107 81.6358 84.5107C80.8253 84.5107 80.42 84.1051 80.344 83.5475H80.9266V83.5729Z" fill="white"/>
<path d="M85.9417 83.7756C85.9417 84.0544 85.967 84.3585 85.9924 84.4599H85.4858C85.4604 84.3839 85.4351 84.2318 85.4351 84.0544C85.3338 84.2571 85.0805 84.5359 84.4726 84.5359C83.7381 84.5359 83.4341 84.0544 83.4341 83.5728C83.4341 82.8885 83.9913 82.559 84.9032 82.559C85.1312 82.559 85.3085 82.559 85.4351 82.559V82.3055C85.4351 82.0267 85.3591 81.6972 84.7512 81.6972C84.2193 81.6972 84.1433 81.9507 84.0927 82.2041H83.5607C83.6114 81.7733 83.8647 81.2663 84.7765 81.2917C85.5364 81.2917 85.967 81.5958 85.967 82.3055V83.7756H85.9417ZM85.4098 82.9392C85.3085 82.9392 85.0805 82.9392 84.9032 82.9392C84.27 82.9392 83.9407 83.1166 83.9407 83.5474C83.9407 83.8769 84.1687 84.1051 84.5486 84.1051C85.3085 84.1051 85.4098 83.5981 85.4098 83.0405V82.9392Z" fill="white"/>
<path d="M86.8536 82.2043C86.8536 81.7734 86.8536 81.52 86.8536 81.3679H87.3856C87.3856 81.4439 87.4109 81.6974 87.4109 82.0015C87.5628 81.5707 87.9428 81.3172 88.4494 81.2919V81.8241C87.8162 81.8495 87.4109 82.179 87.4109 82.9647V84.4854H86.879V82.2043H86.8536Z" fill="white"/>
<path d="M88.9559 82.2043C88.9559 81.7734 88.9559 81.52 88.9559 81.3679H89.4879C89.4879 81.4439 89.5132 81.6974 89.5132 82.0015C89.6651 81.5707 90.0451 81.3172 90.5517 81.2919V81.8241C89.9185 81.8495 89.5132 82.179 89.5132 82.9647V84.4854H88.9813V82.2043H88.9559Z" fill="white"/>
<path d="M93.7685 82.8884C93.7685 83.7755 93.2619 84.5358 92.2993 84.5358C91.4128 84.5358 90.8556 83.8515 90.8556 82.9137C90.8556 82.0013 91.3875 81.2662 92.3247 81.2662C93.1859 81.2662 93.7685 81.9252 93.7685 82.8884ZM91.4128 82.9137C91.4128 83.598 91.7421 84.1049 92.3247 84.1049C92.9073 84.1049 93.2112 83.6234 93.2112 82.9137C93.2112 82.204 92.8819 81.7225 92.2993 81.7225C91.7168 81.7225 91.4128 82.204 91.4128 82.9137Z" fill="white"/>
<path d="M94.4525 84.4598V79.9482H94.9845V84.4598H94.4525Z" fill="white"/>
<path d="M95.9215 84.4598V79.9482H96.4534V84.4598H95.9215Z" fill="white"/>
<path d="M100.05 82.8884C100.05 83.7755 99.5437 84.5358 98.5812 84.5358C97.6947 84.5358 97.1375 83.8515 97.1375 82.9137C97.1375 82.0013 97.6694 81.2662 98.6066 81.2662C99.4931 81.2662 100.05 81.9252 100.05 82.8884ZM97.72 82.9137C97.72 83.598 98.0493 84.1049 98.6319 84.1049C99.2144 84.1049 99.5184 83.6234 99.5184 82.9137C99.5184 82.204 99.1891 81.7225 98.6066 81.7225C98.024 81.7225 97.72 82.204 97.72 82.9137Z" fill="white"/>
<path d="M102.988 82.5843V84.4599H102.431V80.1765H104.103C104.989 80.1765 105.445 80.6581 105.445 81.3171C105.445 81.8747 105.116 82.2042 104.711 82.3309C105.065 82.4323 105.369 82.6857 105.369 83.4207V83.5982C105.369 83.9023 105.344 84.2572 105.42 84.4346H104.863C104.787 84.2572 104.787 83.9277 104.787 83.5221V83.4207C104.787 82.8125 104.609 82.5337 103.85 82.5337H102.988V82.5843ZM102.988 82.1028H103.926C104.584 82.1028 104.863 81.8493 104.863 81.3678C104.863 80.9115 104.559 80.6581 103.976 80.6581H102.988V82.1028Z" fill="white"/>
<path d="M108.637 83.5474C108.637 83.8515 108.637 84.2824 108.637 84.4598H108.105C108.105 84.3838 108.079 84.181 108.079 84.0036C107.927 84.3584 107.624 84.5358 107.142 84.5358C106.61 84.5358 106.104 84.2824 106.104 83.3953V81.3423H106.636V83.2686C106.636 83.6741 106.762 84.0543 107.269 84.0543C107.852 84.0543 108.054 83.7248 108.054 82.9644V81.3423H108.586V83.5474H108.637Z" fill="white"/>
<path d="M109.574 82.2043C109.574 81.7734 109.574 81.52 109.574 81.3679H110.106C110.106 81.4439 110.131 81.6974 110.131 82.0015C110.283 81.5707 110.663 81.3172 111.17 81.2919V81.8241C110.536 81.8495 110.131 82.179 110.131 82.9647V84.4854H109.599V82.2043H109.574Z" fill="white"/>
<path d="M113.956 83.7756C113.956 84.0544 113.981 84.3585 114.006 84.4599H113.5C113.475 84.3839 113.449 84.2318 113.449 84.0544C113.348 84.2571 113.095 84.5359 112.487 84.5359C111.752 84.5359 111.448 84.0544 111.448 83.5728C111.448 82.8885 112.005 82.559 112.917 82.559C113.145 82.559 113.323 82.559 113.449 82.559V82.3055C113.449 82.0267 113.373 81.6972 112.765 81.6972C112.233 81.6972 112.157 81.9507 112.107 82.2041H111.575C111.626 81.7733 111.879 81.2663 112.791 81.2917C113.551 81.2917 113.981 81.5958 113.981 82.3055V83.7756H113.956ZM113.424 82.9392C113.323 82.9392 113.095 82.9392 112.917 82.9392C112.284 82.9392 111.955 83.1166 111.955 83.5474C111.955 83.8769 112.183 84.1051 112.563 84.1051C113.323 84.1051 113.424 83.5981 113.424 83.0405V82.9392Z" fill="white"/>
<path d="M114.893 84.4598V79.9482H115.425V84.4598H114.893Z" fill="white"/>
<path d="M3.29224 93.6855L3.08959 94.6233H0.657959L2.60836 87.9574H5.87581L8.00344 94.6233H5.36922L5.14128 93.6855H3.29224ZM4.68534 91.886C4.53337 91.1763 4.38138 90.4159 4.22941 89.7823H4.15341C4.05209 90.4159 3.84947 91.2777 3.72282 91.886H4.68534Z" fill="white"/>
<path d="M8.45959 87.9574H10.9419V92.8238H13.8547L13.6014 94.6233H8.45959V87.9574Z" fill="white"/>
<path d="M16.8943 87.9574V94.6233H14.412V87.9574H16.8943Z" fill="white"/>
<path d="M23.6064 92.824C23.6064 91.8862 23.6317 90.4415 23.7077 89.6051H23.6824C23.4291 90.923 23.2011 92.4945 22.7705 94.6235H20.8962C20.5415 92.4691 20.4149 90.9737 20.1616 89.5544H20.1363C20.1616 90.3401 20.2376 91.6581 20.2376 92.7986V94.5982H18.0339V87.9323H21.5547C21.6307 88.4392 21.8586 90.1373 22.0106 91.5313H22.036C22.2133 90.2134 22.4919 88.6419 22.6186 87.9323H26.0886V94.5982H23.6317V92.824H23.6064Z" fill="white"/>
<path d="M32.4463 92.1651H29.5587V92.8494H32.8009L32.5223 94.6489H27.1525V87.983H32.5729V89.7826H29.5334V90.3909H32.421V92.1651H32.4463Z" fill="white"/>
<path d="M33.4847 94.6233V87.9574H36.3216C36.8282 89.174 37.3348 90.3906 37.7147 91.3284H37.7654C37.7147 90.7708 37.7147 89.7062 37.7147 88.6164V87.9574H39.9183V94.6233H37.2081C36.8029 93.6855 36.0177 91.6072 35.6631 90.6947H35.6124C35.6884 91.3537 35.6884 92.1141 35.6884 93.6602V94.6233H33.4847Z" fill="white"/>
<path d="M42.2742 89.7569H40.5518V87.9574H46.4282V89.7569H44.7311V94.6233H42.2489V89.7569H42.2742Z" fill="white"/>
<path d="M53.8243 91.3033C53.8243 93.2549 52.7351 94.801 50.2528 94.801C48.0239 94.801 46.8081 93.2803 46.8081 91.3033C46.8081 89.4531 47.7959 87.7803 50.3542 87.7803C52.4819 87.7803 53.8243 89.2503 53.8243 91.3033ZM49.417 91.2526C49.417 92.2918 49.6196 93.0522 50.3288 93.0522C51.0381 93.0522 51.19 92.2918 51.19 91.3287C51.19 90.1374 51.0127 89.5038 50.2782 89.5038C49.6703 89.4784 49.417 90.1121 49.417 91.2526Z" fill="white"/>
<path d="M61.803 92.1651H58.9154V92.8494H62.1576L61.879 94.6489H56.5092V87.983H61.9296V89.7826H58.8901V90.3909H61.7776V92.1651H61.803Z" fill="white"/>
<path d="M69.3764 92.1651C69.0978 93.9899 67.8567 94.801 66.0076 94.801C63.8293 94.801 62.6135 93.3817 62.6135 91.278C62.6135 89.4024 63.6014 87.7803 66.0836 87.7803C68.3126 87.7803 69.2498 88.9969 69.4018 90.3909H66.9195C66.8435 89.9093 66.6915 89.4784 66.109 89.4784C65.5264 89.4784 65.2477 90.0614 65.2477 91.278C65.2477 92.1397 65.3744 93.0522 66.109 93.0522C66.6915 93.0522 66.8689 92.6466 66.9448 92.1904H69.3764V92.1651Z" fill="white"/>
<path d="M77.0006 91.3033C77.0006 93.2549 75.9114 94.801 73.4291 94.801C71.2001 94.801 69.9844 93.2803 69.9844 91.3033C69.9844 89.4531 70.9722 87.7803 73.5305 87.7803C75.6328 87.7803 77.0006 89.2503 77.0006 91.3033ZM72.5932 91.2526C72.5932 92.2918 72.7959 93.0522 73.5051 93.0522C74.2143 93.0522 74.3663 92.2918 74.3663 91.3287C74.3663 90.1374 74.189 89.5038 73.4545 89.5038C72.8466 89.4784 72.5932 90.1121 72.5932 91.2526Z" fill="white"/>
<path d="M77.811 87.9574H80.2933V92.8238H83.2062L82.9529 94.6233H77.811V87.9574Z" fill="white"/>
<path d="M90.5011 91.3031C90.5011 93.2547 89.4119 94.8008 86.9297 94.8008C84.7007 94.8008 83.4849 93.28 83.4849 91.3031C83.4849 89.4528 84.4727 87.78 87.031 87.78C89.1333 87.78 90.5011 89.2501 90.5011 91.3031ZM89.6905 86.0565L87.7908 87.3745H85.9671L87.1576 86.0565H89.6905ZM86.0938 91.2524C86.0938 92.2915 86.2964 93.0519 87.0057 93.0519C87.7149 93.0519 87.8668 92.2915 87.8668 91.3284C87.8668 90.1372 87.6896 89.5035 86.955 89.5035C86.3218 89.4782 86.0938 90.1118 86.0938 91.2524Z" fill="white"/>
<path d="M97.7451 94.6236H96.1241C96.0734 94.4715 96.0228 94.2687 95.9974 94.0406C95.6175 94.5475 95.1109 94.801 94.0977 94.801C92.1727 94.801 91.1089 93.3817 91.1089 91.3793C91.1089 89.5798 92.0207 87.7803 94.579 87.7803C96.3014 87.7803 97.5172 88.6167 97.7198 90.036H95.2376C95.1616 89.6558 94.9843 89.4277 94.5537 89.4277C93.8445 89.4277 93.6925 90.3402 93.6925 91.2273C93.6925 92.2664 93.9458 93.1029 94.6043 93.1029C95.2122 93.1029 95.3136 92.5959 95.3136 92.3932V92.3678H94.5283V90.7204H97.6945V94.6236H97.7451Z" fill="white"/>
<path d="M101.215 87.9574V94.6233H98.733V87.9574H101.215Z" fill="white"/>
<path d="M108.814 92.1651C108.535 93.9899 107.294 94.801 105.445 94.801C103.267 94.801 102.051 93.3817 102.051 91.278C102.051 89.4024 103.039 87.7803 105.521 87.7803C107.75 87.7803 108.687 88.9969 108.839 90.3909H106.357C106.281 89.9093 106.129 89.4784 105.546 89.4784C104.964 89.4784 104.685 90.0614 104.685 91.278C104.685 92.1397 104.812 93.0522 105.546 93.0522C106.129 93.0522 106.306 92.6466 106.382 92.1904H108.814V92.1651Z" fill="white"/>
<path d="M116.413 91.3033C116.413 93.2549 115.324 94.801 112.841 94.801C110.612 94.801 109.396 93.2803 109.396 91.3033C109.396 89.4531 110.384 87.7803 112.943 87.7803C115.07 87.7803 116.413 89.2503 116.413 91.3033ZM112.031 91.2526C112.031 92.2918 112.233 93.0522 112.943 93.0522C113.652 93.0522 113.804 92.2918 113.804 91.3287C113.804 90.1374 113.626 89.5038 112.892 89.5038C112.259 89.4784 112.031 90.1121 112.031 91.2526Z" fill="white"/>
</svg>
