<svg width="116" height="81" viewBox="0 0 116 81" fill="none" xmlns="http://www.w3.org/2000/svg">
<path d="M39.7168 12.379C39.7168 12.4804 41.5405 11.5933 43.6428 10.5541L48.0248 14.1279L45.9731 9.38824C48.0248 8.34907 49.7978 7.43663 49.7978 7.43663L44.6813 6.37211L42.1231 0.415894L41.2112 5.66244L36.2214 4.62327L40.5273 8.4758C40.502 8.45045 39.7168 12.1509 39.7168 12.379ZM60.9427 11.9228L64.0582 10.4021L67.5283 14.5334L66.2112 9.33755L69.58 7.69009L65.426 6.24539L64.1342 1.15092L62.8931 5.35829L58.6124 3.8629L62.0825 8.01958L60.9427 11.9228ZM83.4604 15.3952L86.6265 12.6071L89.7674 15.5219L88.7795 10.6809L91.819 7.99423H88.2476L87.3864 3.73617L85.9426 7.99423H81.6367L84.9295 11.0357L83.4604 15.3952ZM115.097 3.05184L111.601 4.54723L110.309 1.27764L109.043 5.63709L105.142 7.3099L108.308 8.197L106.89 13.0634L110.411 8.7546L113.602 9.6417L112.336 6.39746L115.097 3.05184ZM102.736 25.3306L101.343 21.2753L99.7977 26.2177L95.0359 27.6371L98.8099 29.3859L97.1382 34.6832L101.14 30.4758L105.168 32.3514L103.622 27.8652L107.371 23.9113L102.736 25.3306ZM91.4898 44.644L89.7674 40.0818L88.3996 44.3652L83.3337 43.909L87.5131 47.1532L86.1959 51.3099L89.9447 49.0541L94.5039 52.6279L92.5536 47.4827L96.4796 45.1256L91.4898 44.644ZM77.888 56.5818L76.0136 51.4873L74.9244 55.4666L70.4412 53.7684L74.2912 57.8237L72.9994 62.5887L77.1028 60.7892L80.9021 64.7938L79.1038 59.9021L82.5992 58.356L77.888 56.5818ZM61.7279 63.1716L60.2081 57.5196L58.7897 62.0311L53.8758 60.1302L57.8525 64.9965L56.1048 70.5979L60.6134 68.3422L64.3621 72.9297L62.8424 67.2523L66.9964 65.1993L61.7279 63.1716ZM37.7411 63.197L36.4747 56.8859L34.347 63.3237L28.5213 63.5011L32.9539 67.5311L30.6236 74.5265L35.6641 69.9896L39.8941 73.8422L38.577 67.3283L43.3642 63.0196L37.7411 63.197ZM13.1464 51.4873C14.2862 50.1187 16.1606 48.1164 18.1363 46.114C21.2518 47.4067 22.8729 48.5219 22.8729 48.5219L21.0238 43.2246C23.5061 40.7661 25.5324 38.8399 25.5324 38.8399C23.8354 38.7131 21.7837 39.0173 19.732 39.5495L17.9083 34.303C17.4777 36.0011 16.8445 38.2822 16.1859 40.6394C12.4879 41.932 9.47369 43.4274 9.47369 43.4274C11.5507 43.909 13.3744 44.4412 14.9701 44.9735C14.0076 48.5472 13.1464 51.4873 13.1464 51.4873ZM24.3166 27.1302C24.9499 26.3952 26.8242 25.0265 28.9012 23.6325C31.9407 25.1279 33.9164 26.5472 33.9164 26.5472L31.6368 21.8329C33.9164 20.3629 35.8414 19.197 35.8414 19.197C34.0937 18.8928 32.1434 18.8928 30.269 19.0196L28.2173 14.7615C28.0653 15.4712 27.5081 17.3214 26.8495 19.3998C23.3288 19.932 20.5932 20.7431 20.5932 20.7431C22.4676 21.1233 24.266 21.6809 25.887 22.3145C25.0512 24.8998 24.3166 27.1302 24.3166 27.1302ZM32.042 49.6117C49.0633 36.6855 69.7826 29.8168 70.9477 29.5634C72.6448 29.2339 72.0876 28.7776 72.0876 28.7776C62.0825 30.0956 44.3014 37.2938 29.8891 47.9136C22.113 53.6417 14.3116 62.9435 11.88 65.9597L9.98028 59.9781L7.54867 68.4689C7.49801 68.4182 7.47268 68.3929 7.47268 68.3929C5.3197 69.4067 0.633789 72.2707 0.633789 72.2707C2.38151 72.5749 4.25587 73.0564 6.05424 73.6394L4.05324 80.5841C4.05324 80.5841 7.67531 76.7062 10.0309 75.0334C13.2224 76.25 15.5274 77.3905 15.5274 77.3905L13.4251 70.8007C17.4271 62.9182 24.3673 55.4159 32.042 49.6117Z" fill="white"/>
</svg>
