<svg width="95" height="97" viewBox="0 0 95 97" fill="none" xmlns="http://www.w3.org/2000/svg">
<path d="M81.0051 14.5779C71.4559 4.99729 60.1084 0.511111 45.3161 0.511111H45.2908C38.2493 0.359038 29.8654 2.94429 22.3172 7.60789C15.377 11.8659 9.8046 17.7968 5.7266 25.2484C1.85122 32.2945 -0.0738232 39.8475 0.00216453 47.7047C0.103481 60.7576 4.71339 71.9858 13.7306 81.0848C22.8745 90.336 34.0953 95.0756 47.0639 95.1517C47.1905 95.1517 47.3172 95.1517 47.4438 95.1517C60.0578 95.1517 71.076 90.6655 80.2198 81.8199C89.7436 72.6194 94.6068 61.2392 94.6575 48.0088C94.7082 35.0065 90.1236 23.753 81.0051 14.5779ZM45.3668 3.22309C59.7539 3.22309 70.3921 7.73461 79.1054 16.4789C87.7173 25.1217 92.0233 35.8429 91.9726 47.9835C91.922 60.4028 87.312 71.2001 78.3455 79.8682C69.6829 88.2577 59.0953 92.5411 47.0639 92.4397C34.8805 92.3636 24.2423 87.8775 15.605 79.1586C7.01839 70.4904 2.76305 59.8452 2.66173 47.6793C2.61108 40.2277 4.46012 33.1056 8.05687 26.5157C11.8309 19.6217 17.0234 13.995 23.7104 9.88899C30.9292 5.47885 38.7559 3.07102 45.3668 3.22309Z" fill="white"/>
<path d="M0.939433 96.4952C0.91408 96.3938 0.863412 96.3177 0.787354 96.2162C0.838059 96.3177 0.888727 96.4191 0.939433 96.4952Z" fill="white"/>
<path d="M47.6971 15.6171C39.0852 15.7438 31.7904 18.4811 25.6607 24.0825C18.7458 30.3936 15.2757 38.4028 15.1744 47.7046C15.0984 55.8913 17.9099 63.1908 23.4064 69.2737C29.764 76.3198 37.8441 79.8936 47.2665 79.9696C55.4479 80.0203 62.7173 77.2069 68.8217 71.6816C75.8885 65.2945 79.4346 57.1332 79.46 47.6793C79.46 39.4166 76.5724 32.0917 70.924 25.9834C64.5664 19.1655 56.6383 15.8452 47.6971 15.6171ZM47.0385 79.0318C29.8906 78.9051 16.3395 65.2945 16.0356 47.7553C16.3395 30.4949 29.8147 16.3267 47.7731 16.5549C64.769 16.783 78.5988 30.2922 78.5228 47.9834C78.4721 65.1678 64.7943 79.1585 47.0385 79.0318Z" fill="white"/>
<path d="M33.7407 80.578C33.2341 80.3499 32.8289 79.6655 32.069 80.2231C31.2331 80.8314 30.296 81.3383 29.2828 81.9466C29.1815 80.7554 29.0548 79.7416 29.0041 78.7024C28.9535 77.8153 28.2442 77.6632 27.6617 77.4351C27.0538 77.207 27.1298 77.8913 26.9778 78.1448C26.1926 79.5135 25.5087 80.9328 24.7488 82.3015C24.4955 82.7577 24.6729 82.9098 24.9768 83.1632C25.762 83.7969 26.3192 83.8476 26.7245 82.7831C26.8512 82.4536 27.1045 82.1748 27.3071 81.8706C27.763 82.1241 27.6364 82.5296 27.6364 82.8844C27.6364 83.4167 27.5857 83.9996 28.1683 84.2531C28.6748 84.4812 29.0295 84.0503 29.4347 83.7969C29.688 83.6448 29.916 83.3407 30.3972 83.5181C30.144 84.025 29.8907 84.5065 29.6627 84.9881C29.5107 85.2923 29.1815 85.7231 29.84 85.7738C30.3466 85.7992 30.6759 86.9397 31.3344 85.9766C32.2716 84.6079 32.8542 83.0619 33.614 81.5918C33.8167 81.2877 34.3486 80.8568 33.7407 80.578Z" fill="white"/>
<path d="M51.1673 13.2852C52.2311 13.5133 52.6364 13.2092 52.6617 12.1446C52.6617 11.7391 52.839 11.435 53.0416 10.9281C53.5735 11.8658 54.0801 12.6262 54.4601 13.4373C54.84 14.223 55.6759 13.7414 56.1825 14.147C56.2078 14.147 56.4864 13.9188 56.5118 13.7668C56.8411 11.9926 57.145 10.2184 57.4489 8.44418C57.4996 8.08935 57.4489 7.88658 56.9677 7.7852C55.3719 7.43036 55.3466 7.43036 55.1693 9.10317C55.144 9.35663 55.3972 9.7875 54.9413 9.83819C54.612 9.86354 54.5867 9.43266 54.3841 9.20455C53.8015 8.52022 53.7509 7.40501 52.7377 7.10087C52.0791 6.8981 51.4206 6.44188 51.2433 7.7852C51.066 9.12852 50.914 10.4972 50.5594 11.7898C50.3314 12.5502 50.2301 13.1078 51.1673 13.2852Z" fill="white"/>
<path d="M27.2311 18.1769C27.5097 18.6585 27.8896 19.0133 28.4975 18.5318C28.9535 18.1769 29.8653 18.0755 29.2321 17.1378C29.1054 16.9603 28.8268 16.7576 29.1308 16.4534C29.4347 16.1493 29.688 16.4534 29.8653 16.5802C30.4985 16.9857 31.1318 17.2138 31.8157 16.7069C32.1703 16.4534 32.6516 16.352 32.8289 15.8958C32.3983 15.8958 32.2463 15.3889 31.7903 15.3129C31.3851 15.2368 31.0305 15.0087 31.2331 14.2737C31.6637 12.7023 30.5492 11.4603 28.8775 11.4603C27.4337 11.4097 26.5472 12.5756 25.306 13.0064C24.6222 13.2345 24.6728 13.5894 24.9515 14.0709C25.686 15.4396 26.4206 16.8336 27.2311 18.1769ZM27.459 13.9442C27.4844 13.4626 28.0669 13.3613 28.4722 13.3106C28.9534 13.2599 28.9281 13.8175 29.1814 14.0709C28.8775 14.3497 28.7002 14.8567 28.1683 14.8567C27.611 14.882 27.4337 14.2737 27.459 13.9442Z" fill="white"/>
<path d="M18.0872 20.0778C17.8845 21.7759 19.2017 23.3727 21.228 23.5248C22.8744 23.6515 25.2047 21.4211 25.1034 19.7736C24.9515 17.746 23.3557 16.4534 21.7093 16.4534C20.1389 16.4534 17.7326 18.405 18.0872 20.0778ZM22.8491 20.1792C22.9251 21.0663 22.2412 21.3451 21.608 21.4718C20.9494 21.5985 20.1135 20.6101 20.1135 19.875C20.1135 19.0386 20.4935 18.5824 21.3547 18.5571C22.3172 18.5064 22.8744 19.14 22.8491 20.1792Z" fill="white"/>
<path d="M65.9342 78.2461C63.9838 78.2968 61.9322 80.0963 62.0082 81.8198C62.0588 83.4926 63.5532 85.3935 65.2503 85.0133C68.0619 85.1147 69.0497 83.1885 69.227 81.4903C69.4043 79.9442 67.5046 78.1954 65.9342 78.2461ZM65.7569 83.1885C64.845 83.2392 64.2878 82.6309 64.2624 81.6424C64.2371 80.7806 64.6677 80.2991 65.5036 80.2484C66.2128 80.1977 66.9727 81.0848 66.998 82.1239C66.9473 82.6562 66.5421 83.1378 65.7569 83.1885Z" fill="white"/>
<path d="M73.6596 23.753C75.2807 23.8291 76.7751 22.2069 76.7751 20.4074C76.7751 18.3797 75.154 16.7576 73.1783 16.6816C71.5573 16.6309 69.9109 17.9489 69.7843 19.9765C69.6829 21.624 71.8866 23.677 73.6596 23.753ZM73.5076 18.7599C74.3688 18.7853 74.7488 19.2668 74.7488 20.0779C74.7488 20.8383 73.9129 21.7761 73.2291 21.7C72.4692 21.5986 71.9879 21.0664 71.8866 20.306C71.7853 19.5963 72.7224 18.7346 73.5076 18.7599Z" fill="white"/>
<path d="M40.1236 82.4788C38.8825 82.2507 37.6667 81.8198 36.4509 81.4397C35.919 81.2876 35.7163 81.465 35.5897 81.9973C35.2098 83.594 34.8805 85.2162 34.3486 86.7622C34.1206 87.4466 34.4499 87.5987 34.8298 87.7C36.071 88.0549 37.3121 88.3083 38.5532 88.6378C39.4651 88.8913 39.4144 88.1563 39.617 87.6493C39.8956 86.9143 39.3384 87.0917 38.9585 87.0157C38.3506 86.889 37.768 86.6862 37.1855 86.4581C37.0335 86.4074 36.5269 86.4074 36.7802 85.9765C36.9068 85.7738 37.0588 85.571 37.4134 85.7738C37.7427 85.9765 38.1733 86.0779 38.5532 86.1033C38.9331 86.1286 39.4651 86.5341 39.6424 85.7738C39.769 85.1401 39.5917 84.7853 38.9585 84.5065C38.4519 84.2784 37.6161 84.6332 37.3881 83.7208C38.224 83.4673 38.9332 83.8728 39.6424 84.0503C40.0983 84.1516 40.5795 84.101 40.5795 83.4166C40.6049 83.0364 40.9341 82.6056 40.1236 82.4788Z" fill="white"/>
<path d="M36.5268 14.654C37.9706 14.73 39.0597 14.1471 39.9209 13.1586C40.4529 12.5249 39.693 11.9673 39.6423 11.359C39.5916 10.624 39.1104 10.4466 38.4012 10.624C37.6666 10.8268 37.388 11.2323 37.7426 11.8913C38.1479 12.6517 37.54 12.7277 37.1347 12.8291C36.5268 12.9558 36.0709 12.7277 35.6656 12.1701C35.2097 11.5618 35.3363 11.0296 35.6403 10.5226C35.9949 9.889 36.7294 9.71158 37.312 9.93969C38.4518 10.3706 38.6291 9.40743 38.7304 8.87517C38.8824 8.03877 38.0972 8.08946 37.5147 8.08946C37.2107 8.08946 36.9067 8.08946 36.6028 8.08946C34.9057 8.11481 33.0314 9.96504 33.1073 11.4604C33.2087 13.3867 34.6018 14.654 36.5268 14.654Z" fill="white"/>
<path d="M42.5552 13.2853C42.9098 13.2093 43.5684 13.5134 43.6443 13.0319C43.847 11.6125 45.1134 12.3982 45.772 11.942C46.0506 11.7646 46.3546 12.018 46.5319 12.3729C46.9118 13.0825 47.8743 13.2093 48.6595 12.8798C49.1408 12.677 48.8369 12.4743 48.7862 12.3222C47.9757 10.6494 47.0891 9.0019 46.3039 7.32909C45.8227 6.26458 45.0628 6.94891 44.4042 6.89822C43.8723 6.84752 43.695 7.10098 43.5177 7.63324C43.0111 9.17932 42.4285 10.7254 41.7699 12.2208C41.3647 13.1839 41.542 13.4627 42.5552 13.2853ZM44.9361 9.45812C45.4174 9.48347 45.3667 9.99038 45.6707 10.3959C45.1641 10.2692 44.7082 10.5733 44.7082 9.96503C44.7082 9.76227 44.6068 9.43278 44.9361 9.45812Z" fill="white"/>
<path d="M48.6089 83.2138C47.5198 83.2899 46.3546 82.7576 45.7214 84.1009C45.5441 84.4811 45.1388 84.3797 45.0375 84.0503C44.5309 82.5549 43.3151 83.0111 42.0993 82.9857C42.5806 83.8982 42.9858 84.6332 43.4924 85.3175C43.8977 85.8498 43.923 86.3567 43.3658 86.9903C42.7579 87.6747 41.922 88.2576 41.77 89.3221C43.0112 89.3728 44.2776 89.677 44.8855 88.1816C44.9615 87.9788 45.2655 87.8267 45.3921 88.1816C45.8987 89.8291 47.1905 89.677 48.5836 89.5249C48.001 88.5871 47.4185 87.7 46.8612 86.8383C46.5826 86.4074 46.5066 86.0779 46.9372 85.5963C47.5451 84.912 48.305 84.253 48.6089 83.2138Z" fill="white"/>
<path d="M66.846 18.532C67.2007 18.3039 67.8845 18.9375 68.1125 18.2279C68.3151 17.5689 67.5806 16.7071 66.846 16.7325C66.0862 16.7578 65.6303 16.3776 65.4276 15.7187C65.149 14.8316 65.7569 14.2486 66.3648 13.8431C66.9474 13.4629 67.5047 13.8177 67.9099 14.3246C68.0619 14.5274 68.2392 14.7302 68.3658 14.9329C68.7964 15.5412 69.303 14.9836 69.7843 14.9076C70.2149 14.8316 70.1895 14.5781 70.0882 14.2486C69.6829 12.9813 67.5806 11.562 66.2888 11.6887C64.6677 11.8408 63.1227 13.5136 63.148 15.0343C63.224 16.9606 64.845 18.532 66.846 18.532Z" fill="white"/>
<path d="M59.3993 85.6724C59.0701 86.0779 58.6394 86.306 58.1075 86.23C57.2717 86.1032 56.6384 85.1908 56.7904 84.3544C56.9171 83.594 57.9555 82.935 58.7408 83.2645C59.7033 83.6701 59.8553 82.9097 60.1086 82.4281C60.4632 81.6678 59.7033 81.7945 59.3233 81.5917C58.6395 81.2115 57.9809 81.4143 57.297 81.5917C55.8279 81.9466 54.4348 83.5687 54.5108 84.8613C54.6121 86.6355 56.2585 88.1816 58.1075 88.2069C58.994 88.0802 59.9313 87.7507 60.6912 87.0917C61.0458 86.8129 61.5777 86.3313 61.1217 85.9258C60.7165 85.571 60.1086 84.7853 59.3993 85.6724Z" fill="white"/>
<path d="M52.4084 84.0756C52.3577 83.5434 52.4844 82.4789 51.3699 82.9604C50.1541 83.0365 50.1034 83.0365 50.1794 84.1263C50.2807 85.5203 50.5087 86.9143 50.61 88.3337C50.6607 89.018 50.762 89.5249 51.5472 89.3475C52.1551 89.1955 53.1429 89.3729 52.9149 88.1816C52.6363 86.813 52.5097 85.4443 52.4084 84.0756Z" fill="white"/>
<path d="M59.9058 15.4144C60.1844 15.6932 60.4377 15.5412 60.539 15.2877C61.1976 13.5642 61.8308 11.8153 62.4893 10.0918C62.6413 9.48355 62.2614 9.38217 61.8308 9.33148C61.3749 9.28078 60.7416 8.57111 60.4884 9.15406C59.7538 10.8522 59.1459 12.6011 58.6393 14.3753C58.3607 15.313 59.5005 15.0089 59.9058 15.4144Z" fill="white"/>
<path d="M46.8359 4.89585C44.7082 4.84516 44.5816 4.9212 44.0497 6.39124C45.3668 6.74608 45.9494 5.73225 46.8359 4.89585Z" fill="white"/>
<path d="M37.7174 81.2876C38.8826 82.0987 39.6931 81.1862 40.8329 80.6793C39.4651 80.147 38.4266 80.0457 37.7174 81.2876Z" fill="white"/>
<path d="M64.0345 70.6679C60.7163 70.4651 57.8288 69.1725 55.4225 66.9167C52.4083 64.1287 50.6859 60.4789 48.9889 56.8292C47.4691 53.5089 46.2787 50.0619 43.8977 47.1471C41.3901 44.0803 38.1733 42.2301 34.5005 41.0895C30.7771 39.949 26.9271 39.8476 23.1024 40.4305C22.1399 40.5826 20.7214 40.4052 20.4428 41.8246C20.0882 43.5481 19.7843 45.3223 19.6829 47.0964C19.4297 51.2531 19.9109 55.3338 21.5066 59.2117C22.3678 61.29 23.5077 63.2416 25.762 64.1794C25.9899 64.2808 26.1926 64.3822 26.3699 64.2554C26.5725 64.1034 26.4459 63.8752 26.3699 63.6471C25.5594 61.4928 24.9768 59.2623 24.5209 57.0066C24.3942 56.3983 24.2422 55.7647 24.2169 55.1564C24.1916 54.5481 23.6849 53.9398 24.1662 53.2301C24.8501 55.4605 25.8379 57.4628 26.9018 59.4651C29.1561 63.6725 32.2716 67.1195 36.0709 69.9328C39.8703 72.7462 44.151 74.4951 48.8622 75.0273C49.6221 75.1034 50.4833 75.2808 51.3445 74.7485C49.6728 74.0135 48.077 73.3799 46.5826 72.5688C45.0628 71.7577 43.6191 70.82 42.2513 69.7554C40.8329 68.6656 39.4651 67.4743 38.2239 66.1817C36.6789 64.5849 35.4378 62.9121 35.2351 62.0757C37.7427 64.5089 40.3769 66.7393 43.2391 68.6909C46.7599 71.0734 50.3566 73.3038 54.5106 74.4951C56.309 75.002 58.1327 75.4835 59.9564 74.1656C56.8916 72.5181 53.7255 71.1494 50.8633 69.2739C47.9504 67.3476 45.2401 65.2439 43.1631 62.4052C43.4671 62.4812 43.7458 62.6333 43.9737 62.8107C47.8998 65.9789 51.9524 68.919 56.613 70.972C58.6646 71.8845 60.767 72.4674 63.0466 72.3153C64.1864 72.2393 65.2756 72.0112 66.2127 70.896C65.3009 71.0734 64.693 70.6932 64.0345 70.6679Z" fill="white"/>
<path d="M35.083 35.3359C38.4771 35.9949 41.4406 37.617 44.5308 39.0111C48.5835 40.8613 52.7628 41.9765 57.2967 41.3175C59.9563 40.9373 62.3879 40.0502 64.6422 38.5802C65.1741 38.2253 65.3008 37.8198 65.1994 37.2876C64.0596 32.3452 61.4254 28.2899 57.4994 25.147C54.6118 22.8406 51.3443 21.2184 47.5956 20.7369C47.1397 20.6862 46.7344 20.382 46.4052 20.8636C46.1012 21.3198 46.4052 21.7507 46.6332 22.1055C46.8864 22.5111 47.165 22.9419 47.545 23.2207C48.8874 24.1839 50.1286 25.2737 51.2177 26.5157C51.775 27.1493 52.4082 27.8083 52.5602 28.7714C51.9016 28.2392 51.4203 27.5295 50.7618 27.0226C47.9756 24.8175 44.8601 23.2461 41.5926 21.8774C38.857 20.7369 36.3241 21.2438 33.6139 22.7899C38.4264 23.094 42.3271 24.8682 45.9492 27.8083C45.6453 27.8336 45.5693 27.8843 45.5186 27.859C41.5926 25.4765 37.5146 23.6516 32.778 24.2599C30.9037 24.488 29.3079 25.3244 28.0668 27.0226C32.4741 26.2876 36.5014 26.9972 40.4528 28.9235C40.0222 29.0249 39.7436 28.9995 39.4396 28.8982C36.78 28.0111 34.0698 27.5041 31.2583 27.6562C28.2441 27.8083 25.9391 29.177 24.2421 32.1677C28.9786 30.1147 33.4873 30.3936 37.9452 31.965C37.7173 31.965 37.4893 31.9903 37.2613 31.965C34.2725 31.3567 31.2836 31.23 28.2948 31.9903C24.6473 32.9028 22.773 34.3728 22.2411 38.124C22.3677 38.0986 22.4944 38.124 22.5704 38.0479C26.2684 34.829 30.4984 34.4488 35.083 35.3359Z" fill="white"/>
<path d="M68.467 39.3405C69.7081 42.9649 69.8347 47.6031 69.0748 50.1884C68.4416 48.8197 67.9351 47.5017 67.0232 46.3612C66.2887 45.4234 65.6047 44.4349 64.6929 43.6746C64.4396 43.4464 63.8317 42.9902 63.6544 43.7252C63.4771 44.3842 63.1225 44.9165 62.8945 45.5501C62.16 47.6538 61.9827 49.8082 62.008 52.0133C62.008 52.216 62.1347 52.5202 61.8814 52.6216C61.5774 52.7483 61.4761 52.4188 61.3241 52.216C60.7669 51.5064 60.1843 50.822 59.6017 50.163C57.8287 48.11 55.473 46.9695 52.9908 46.1077C51.623 45.6262 50.2299 44.9925 48.4315 45.2206C49.7993 45.7782 50.9645 46.1331 51.927 46.9948C53.0921 48.0593 53.8773 49.352 54.4345 50.746C55.2451 52.6976 56.0809 54.6492 57.2208 56.5755C55.8783 56.2206 54.9665 55.2068 53.624 55.1815C53.9533 56.6008 54.6879 57.7414 55.4224 58.8819C56.2836 60.2252 57.2461 61.5432 58.5126 62.6077C59.9817 63.8497 61.5521 64.7368 63.3505 65.3451C64.465 65.7252 64.6676 66.587 64.0344 67.6008C63.8064 67.981 63.5531 68.3612 63.2745 68.8174C67.6818 68.2091 76.3697 55.587 75.7111 50.746C74.4953 53.7114 73.3809 56.4994 71.5825 58.9833C72.8489 55.587 73.3301 52.0893 72.5449 48.6423C71.0505 42.1285 69.8854 39.8727 68.467 39.3405Z" fill="white"/>
</svg>
