<svg width="144" height="75" viewBox="0 0 144 75" fill="none" xmlns="http://www.w3.org/2000/svg">
<path d="M0.422363 39.3122C0.422363 38.0956 0.422363 36.8791 0.422363 35.6625C0.447693 35.5611 0.473009 35.4851 0.473009 35.3837C0.574326 33.5588 0.802302 31.7592 1.18224 29.985C2.80331 22.4827 6.40005 16.0957 11.9978 10.8491C18.3808 4.86754 25.9796 1.54727 34.6928 0.837589C35.0728 0.812243 35.4527 0.761552 35.8326 0.736206C37.0485 0.736206 38.2642 0.736206 39.48 0.736206C39.5813 0.761552 39.6827 0.786898 39.784 0.786898C41.0251 0.913627 42.2916 1.01501 43.5327 1.19243C47.4081 1.80072 51.1062 2.99197 54.6269 4.76616C54.7789 4.8422 54.8802 4.8422 55.0575 4.76616C59.4648 2.56109 64.1254 1.21777 69.0646 0.837589C69.4445 0.812243 69.8245 0.761552 70.2044 0.736206C71.4202 0.736206 72.636 0.736206 73.8518 0.736206C73.9531 0.761552 74.0291 0.786898 74.1304 0.786898C74.8397 0.83759 75.5489 0.88828 76.2581 0.964317C80.6654 1.44588 84.8447 2.71316 88.8214 4.69012C89.1253 4.8422 89.328 4.81685 89.6319 4.69012C93.9885 2.5104 98.5985 1.21777 103.462 0.837589C103.842 0.812243 104.196 0.761552 104.576 0.736206C105.792 0.736206 107.008 0.736206 108.224 0.736206C108.3 0.761552 108.376 0.786898 108.452 0.786898C110.022 0.964318 111.618 1.09104 113.188 1.36985C120.559 2.71316 126.967 6.03344 132.388 11.2039C135.604 14.2708 138.137 17.8192 140.062 21.8238C142.063 25.9804 143.203 30.3652 143.533 34.9781C143.558 35.4344 143.609 35.9159 143.634 36.3721C143.634 37.1325 143.634 37.8675 143.634 38.6279C143.609 38.7039 143.583 38.7546 143.583 38.8307C143.507 39.8952 143.457 40.9597 143.33 42.0242C142.849 46.0795 141.709 49.9574 139.86 53.6072C135.782 61.6924 129.601 67.5473 121.344 71.197C117.849 72.7431 114.176 73.6809 110.351 74.0864C109.794 74.1371 109.237 74.2132 108.68 74.2638C107.16 74.2638 105.615 74.2638 104.095 74.2638C104.044 74.2385 103.994 74.2132 103.968 74.2132C103.208 74.1371 102.449 74.0864 101.689 73.985C97.4587 73.4528 93.4313 72.2362 89.6066 70.3099C89.3533 70.1832 89.1507 70.1832 88.8974 70.3099C84.8194 72.3376 80.5134 73.6049 75.9795 74.0864C75.4476 74.1371 74.9156 74.2132 74.3584 74.2638C72.864 74.2638 71.3442 74.2638 69.8498 74.2638C69.7738 74.2385 69.7232 74.2132 69.6472 74.2132C68.6593 74.1118 67.6715 74.0357 66.6836 73.8837C62.9602 73.3514 59.3888 72.2615 55.9694 70.6648C54.6776 70.0565 55.1335 70.0818 53.8417 70.6648C49.9664 72.4896 45.939 73.6302 41.6837 74.0611C41.1264 74.1118 40.5692 74.1878 40.012 74.2385C38.5175 74.2385 36.9978 74.2385 35.5034 74.2385C35.4274 74.2132 35.3514 74.1878 35.2754 74.1878C32.1599 73.985 29.0951 73.4021 26.1315 72.439C19.09 70.1072 13.2136 66.0772 8.57836 60.2984C3.91779 54.4943 1.28356 47.8537 0.675656 40.4274C0.498351 40.0473 0.447693 39.6924 0.422363 39.3122ZM60.7059 66.5081C60.8326 66.5588 60.9592 66.6095 61.0859 66.6602C64.8853 68.0288 68.8113 68.6878 72.864 68.5611C74.5864 68.5104 76.2834 68.333 77.9805 68.0035C81.6025 67.3191 84.9967 66.0265 88.1628 64.1509C88.4921 63.9482 88.8214 63.644 89.1507 63.644C89.48 63.644 89.8346 63.9735 90.1639 64.1509C95.0017 66.9896 100.22 68.4597 105.792 68.5611C108.021 68.6118 110.225 68.4343 112.403 67.9781C122.332 65.8744 129.753 60.3744 134.439 51.3514C137.53 45.4459 138.441 39.1095 137.352 32.5196C136.212 25.6003 133.046 19.7454 127.93 14.9804C121.268 8.82146 113.34 6.03344 104.272 6.51501C100.827 6.69243 97.5347 7.47814 94.3432 8.77077C92.6208 9.48044 90.9744 10.3422 89.3786 11.3053C89.2013 11.4067 89.0747 11.4067 88.8974 11.3053C88.5175 11.0772 88.1122 10.8491 87.7322 10.6463C82.6917 7.78229 77.2459 6.38828 71.4455 6.46432C67.9501 6.51501 64.5813 7.14865 61.2885 8.31455C61.0606 8.39058 60.8326 8.49197 60.6299 8.568C69.7485 16.0957 74.8397 25.6256 74.8397 37.5127C74.865 49.3744 69.7991 58.9551 60.7059 66.5081ZM48.9532 66.5334C39.8093 58.9551 34.7435 49.3998 34.7688 37.5127C34.7941 25.6256 39.8853 16.0703 48.9785 8.568L48.9532 8.54266C48.8772 8.51731 48.8265 8.49196 48.7506 8.46662C46.0657 7.47814 43.3048 6.8445 40.4679 6.59104C36.7698 6.26155 33.1224 6.51501 29.551 7.52883C20.3311 10.0887 13.4923 15.6394 9.26227 24.2062C6.12145 30.568 5.41221 37.2846 6.93196 44.2039C8.40106 50.8191 11.7192 56.3445 16.8357 60.78C23.0414 66.1532 30.2855 68.7132 38.4922 68.5611C40.9492 68.5104 43.3554 68.1555 45.711 67.5219C46.8002 67.2178 47.864 66.8629 48.9532 66.5334ZM57.7171 48.2592C61.3138 46.5611 64.8599 44.9136 68.3807 43.2408C68.482 43.1901 68.5833 43.0634 68.5833 42.9367C68.8873 41.3652 69.0393 39.7431 69.0899 38.1463C69.1152 37.4367 69.0899 36.727 69.0899 35.9666C68.9126 36.0427 68.8113 36.068 68.7353 36.0933C65.1385 37.7662 61.5671 39.4643 57.9704 41.1371C57.7677 41.2385 57.6918 41.3399 57.6918 41.5933C57.6918 43.697 57.6918 45.8007 57.6918 47.9044C57.7171 48.0058 57.7171 48.1072 57.7171 48.2592ZM40.6198 35.992C40.5945 36.068 40.5945 36.0933 40.5945 36.1187C40.4679 38.3998 40.6199 40.6809 41.0505 42.9367C41.0758 43.038 41.1771 43.1648 41.3038 43.2155C44.7232 44.8376 48.168 46.485 51.5874 48.1072C51.6887 48.1579 51.8154 48.2085 51.9167 48.2592C51.9167 48.1832 51.942 48.1579 51.942 48.1325C51.942 45.9274 51.942 43.7477 51.942 41.5427C51.942 41.3145 51.8154 41.2639 51.6634 41.1878C49.5104 40.174 47.3574 39.1602 45.1791 38.1463C43.6594 37.4113 42.1396 36.7016 40.6198 35.992ZM43.6594 24.1302C43.6087 24.2316 43.558 24.3076 43.5074 24.409C42.6968 26.1072 42.0383 27.8814 41.557 29.7062C41.4811 29.985 41.557 30.0864 41.8103 30.2132C44.9258 31.6579 48.0413 33.1279 51.1568 34.5726C51.3848 34.674 51.6381 34.8007 51.8914 34.9021C51.8914 34.8261 51.9167 34.7754 51.9167 34.7247C51.9167 32.545 51.9167 30.3399 51.9167 28.1602C51.9167 27.9827 51.8407 27.9067 51.6887 27.8307C50.8275 27.4251 49.9663 27.0196 49.1051 26.6394C47.3068 25.8284 45.5084 24.992 43.6594 24.1302ZM57.7171 34.9274C57.8184 34.9021 57.8691 34.8768 57.9197 34.8514C61.2379 33.3053 64.556 31.7339 67.8741 30.1878C68.0768 30.0864 68.1274 30.0104 68.0514 29.7823C67.5702 27.9827 66.9369 26.2592 66.1517 24.5611C66.0757 24.409 65.9997 24.2569 65.9238 24.1302C65.8478 24.1556 65.7971 24.1809 65.7465 24.2062C63.1376 25.4482 60.5033 26.6648 57.8944 27.8814C57.6918 27.9827 57.6918 28.1095 57.6918 28.2869C57.6918 30.3906 57.6918 32.4943 57.6918 34.598C57.7171 34.674 57.7171 34.7754 57.7171 34.9274ZM43.4567 50.591C45.4831 54.8744 48.2693 58.4482 51.8914 61.439C51.8914 61.3376 51.9167 61.2869 51.9167 61.2615C51.9167 59.1072 51.9167 56.9781 51.9167 54.8238C51.9167 54.621 51.8154 54.545 51.6634 54.4943C50.1943 53.8099 48.7505 53.1003 47.2814 52.4159C46.0403 51.8076 44.7739 51.1993 43.4567 50.591ZM57.7171 61.4136C60.6299 59.2846 65.3412 53.227 66.0504 50.6924C65.9491 50.7178 65.8731 50.7431 65.7971 50.7938C63.1882 52.0104 60.554 53.2523 57.945 54.4689C57.7424 54.5703 57.7171 54.697 57.7171 54.8744C57.7171 56.9528 57.7171 59.0058 57.7171 61.0841C57.7171 61.1855 57.7171 61.2869 57.7171 61.4136ZM46.6735 19.1878C48.4213 19.9989 50.1436 20.7846 51.8914 21.5956C51.8914 18.9597 51.8914 16.3745 51.8914 13.7132C49.8903 15.3353 48.168 17.1348 46.6735 19.1878ZM62.9349 19.1625C61.4152 17.1095 59.6928 15.3099 57.7171 13.6878C57.7171 16.3491 57.7171 18.9597 57.7171 21.5956C59.4648 20.7846 61.1872 19.9989 62.9349 19.1625Z" fill="white"/>
<path d="M111.441 46.8906C110.579 46.8906 109.769 46.8906 108.933 46.8906C108.933 45.0657 108.933 43.2408 108.933 41.3399C107.413 42.6325 105.716 43.2915 103.791 43.2915C101.866 43.2915 100.194 42.6072 98.6746 41.3399C98.6746 43.2155 98.6746 45.0403 98.6746 46.8906C97.8387 46.8906 97.0282 46.8906 96.1923 46.8906C96.1923 46.7639 96.167 46.6625 96.167 46.5357C96.167 42.9367 96.167 39.3122 96.167 35.7132C96.167 31.6072 99.5611 28.2362 103.69 28.2362C107.464 28.2362 110.529 30.6947 111.289 34.3698C111.39 34.8514 111.441 35.3583 111.441 35.8652C111.441 39.439 111.441 43.0127 111.441 46.6118C111.466 46.6878 111.466 46.7639 111.441 46.8906ZM108.933 35.7385C108.908 32.9505 106.603 30.6694 103.791 30.6947C100.98 30.7201 98.6999 32.9758 98.6999 35.7639C98.6999 38.5519 101.03 40.833 103.943 40.8076C106.653 40.8076 108.958 38.4758 108.933 35.7385Z" fill="white"/>
<path d="M115.113 46.8399C115.113 46.0035 115.113 45.2178 115.113 44.3814C115.24 44.3814 115.366 44.3814 115.493 44.3814C118.381 44.3814 121.243 44.3814 124.13 44.3814C125.751 44.3814 127.018 43.1395 127.018 41.568C127.018 40.0219 125.726 38.78 124.105 38.7547C122.535 38.7547 120.989 38.78 119.419 38.704C116.481 38.5772 114.303 36.2201 114.353 33.2293C114.378 30.492 116.734 28.1855 119.571 28.1602C122.534 28.1348 125.498 28.1602 128.462 28.1602C128.487 28.1602 128.512 28.1602 128.588 28.1602C128.588 28.9713 128.588 29.7823 128.588 30.6187C128.462 30.6187 128.335 30.6187 128.234 30.6187C125.397 30.6187 122.534 30.6187 119.698 30.6187C118.507 30.6187 117.443 31.3791 117.038 32.5196C116.658 33.6095 116.987 34.8261 117.874 35.5611C118.406 36.0173 119.039 36.2454 119.748 36.2454C121.395 36.2708 123.066 36.2201 124.713 36.3215C127.398 36.4989 129.551 38.8307 129.551 41.5427C129.576 44.356 127.246 46.7892 124.434 46.8399C121.395 46.8906 118.355 46.8399 115.29 46.8399C115.24 46.8653 115.189 46.8399 115.113 46.8399Z" fill="white"/>
<path d="M89.8849 28.1348C90.7207 28.1348 91.5566 28.1348 92.3925 28.1348C92.3925 28.2615 92.3925 28.3629 92.3925 28.4643C92.3925 32.038 92.3925 35.6117 92.3925 39.1855C92.3925 42.303 90.5688 45.0403 87.7066 46.2315C84.8444 47.4228 81.5262 46.7891 79.3226 44.6348C77.9042 43.2408 77.1443 41.5426 77.043 39.5403C77.043 39.4643 77.043 39.3882 77.043 39.2868C77.8788 39.2868 78.6894 39.2868 79.4999 39.2868C79.5759 39.7431 79.6265 40.1993 79.7532 40.6302C80.3611 42.8859 82.5647 44.4827 84.895 44.356C87.3773 44.2292 89.3783 42.5057 89.7836 40.1486C89.8342 39.8191 89.8596 39.515 89.8596 39.1855C89.8596 35.6371 89.8596 32.0887 89.8596 28.5403C89.8849 28.3882 89.8849 28.2615 89.8849 28.1348Z" fill="white"/>
</svg>
