<svg width="98" height="93" viewBox="0 0 98 93" fill="none" xmlns="http://www.w3.org/2000/svg">
<path d="M96.9557 82.5035C96.9557 84.2523 96.9557 86.0012 96.9557 87.75C96.8797 87.8768 96.7277 88.0035 96.7277 88.1556C96.6264 89.0934 96.5504 90.0058 96.4744 90.9436C96.4491 91.0703 96.3478 91.2224 96.2465 91.3491C95.8919 91.8814 95.3093 91.8814 94.8027 92.1095C94.1695 92.4136 93.5615 92.515 92.8777 92.515C92.0165 92.4897 91.1299 92.5404 90.2687 92.4897C89.6608 92.4643 89.0783 92.3122 88.4957 92.2616C88.2424 92.2362 87.9638 92.3629 87.7105 92.3629C87.052 92.3883 86.3174 92.5657 85.7602 92.3122C84.823 91.8814 83.8604 91.8307 83.0499 92.4643C82.8473 92.6164 82.442 92.6671 82.2394 92.5657C81.0489 91.9067 79.8585 91.6026 78.592 92.3883C78.288 92.5657 77.8828 92.5657 77.5028 92.591C77.2749 92.6164 77.0469 92.4897 76.8442 92.439C76.3123 92.3629 75.7805 92.2869 75.2486 92.1855C74.9193 92.1348 74.6153 91.9574 74.3113 91.9321C73.5261 91.9067 72.7156 91.9067 71.9304 91.9321C71.7784 91.9321 71.6011 92.0334 71.4492 92.0841C71.1199 92.1855 70.8159 92.3629 70.4866 92.4136C69.8027 92.515 69.1948 92.0841 68.5869 92.0334C67.0165 91.856 65.4208 91.9827 63.8504 91.9827C63.1158 92.591 62.2546 92.439 61.4188 92.439C60.6336 92.439 59.7977 92.5657 59.0885 92.0081C59.0125 91.9574 58.8098 92.0588 58.6832 92.1095C58.1513 92.3122 57.6194 92.515 57.0875 92.6924C56.9861 92.7178 56.8342 92.6417 56.7075 92.5657C56.3276 92.3629 55.973 92.0081 55.593 91.9827C54.9091 91.9321 54.1999 92.1095 53.516 92.1602C53.3387 92.1855 53.1614 92.1602 53.0095 92.1095C52.4269 91.856 51.895 91.856 51.3124 92.1602C50.8565 92.3883 50.3246 92.6671 49.8686 92.6417C49.3114 92.6164 48.7542 92.2616 48.1969 92.0841C47.6903 91.9067 47.209 91.8307 46.7784 92.2616C46.6771 92.3629 46.4998 92.4643 46.3732 92.4643C45.6893 92.4136 44.9294 92.7685 44.3722 92.0588C44.3215 92.0081 44.1949 91.9827 44.0936 91.9827C43.2577 92.1095 42.2952 91.6026 41.5606 92.4136C41.51 92.4643 41.4086 92.4643 41.3327 92.4643C40.6488 92.3883 39.9396 92.3376 39.2557 92.2362C38.9011 92.1855 38.5465 91.9574 38.1919 91.9827C37.128 92.0588 36.0135 91.7039 34.975 92.1855C34.2911 91.7293 33.7339 92.2616 33.126 92.3883C32.4168 92.5404 31.5049 92.7938 30.8464 92.0334C30.7704 91.9574 30.5931 91.9574 30.4411 91.9574C30.0358 91.9574 29.6559 91.9574 29.2506 91.9574C28.82 91.9321 28.4654 91.9828 28.1361 92.3376C27.8322 92.6671 27.4016 92.6164 26.9963 92.4136C26.743 92.2869 26.4137 92.2362 26.1098 92.2362C25.6285 92.2616 25.1473 92.439 24.6914 92.439C24.2861 92.439 23.8555 92.2109 23.4502 92.2109C22.2091 92.2616 20.9426 92.3629 19.7015 92.4643C19.6509 92.4643 19.5749 92.4643 19.5242 92.515C18.9163 92.9712 18.359 92.6671 17.9031 92.3122C17.0926 91.7039 16.2567 91.9321 15.4209 92.0841C14.9143 92.1855 14.433 92.5657 13.9264 92.6924C13.2425 92.8445 12.6093 92.591 12.0014 92.2109C11.7988 92.0841 11.5201 91.9574 11.3175 92.0081C10.7856 92.1855 10.279 92.439 9.77244 92.6671C9.62046 92.7431 9.51914 92.8699 9.3925 92.9459C9.24052 92.9459 9.06321 92.9459 8.91124 92.9459C8.73393 92.7431 8.58196 92.5404 8.40465 92.3629C7.82208 91.7546 7.69545 91.78 7.06222 92.3629C6.85959 92.5404 6.50496 92.6924 6.22634 92.6671C5.59311 92.6417 4.95988 92.4643 4.32665 92.4643C3.69342 92.439 3.13618 92.2869 2.52828 92.0841C1.97104 91.9067 1.61642 91.5265 1.18582 91.197C1.03384 91.0957 0.932545 90.8675 0.856557 90.6901C0.780569 90.4367 0.80588 90.1072 0.679234 89.9298C0.0713319 89.068 0.324643 88.1302 0.476618 87.2178C0.552606 86.7869 0.476618 86.0265 0.0966797 85.697C0.0966797 85.1901 0.0966797 84.6579 0.0966797 84.151C0.856557 83.7961 0.907197 83.568 0.679234 82.8583C0.45127 82.098 0.0460027 81.3376 0.552587 80.5012C0.653904 80.3238 0.501941 79.9689 0.501941 79.7155C0.451283 78.8284 0.324649 77.9159 0.451295 77.0288C0.527283 76.5219 0.6286 76.1164 0.451295 75.5841C0.273991 75.0772 0.197984 74.4943 0.653911 73.962C0.805886 73.8099 0.755234 73.4551 0.755234 73.1763C0.755234 72.5934 0.729917 72.0358 0.704588 71.4528C0.704588 70.8445 0.831215 70.1602 0.653911 69.6026C0.375289 68.7408 0.147332 67.9298 0.628587 67.144C1.03386 66.4851 0.780563 65.9781 0.501941 65.3952C0.400624 65.1671 0.527283 64.8376 0.577941 64.5588C0.6286 64.3307 0.831234 64.1026 0.831234 63.8745C0.856563 62.0496 0.856563 60.2247 0.831234 58.3998C0.831234 58.2224 0.780551 57.9689 0.679234 57.8676C0.14732 57.4113 0.273972 56.8284 0.400618 56.3215C0.552594 55.6625 1.10984 55.0542 0.628587 54.3192C0.577929 54.2431 0.704581 54.0404 0.729911 53.8883C0.780569 53.7362 0.856557 53.5841 0.856557 53.4574C0.628594 49.909 1.41379 46.3353 0.375295 42.8123C0.577929 41.2662 -0.080625 39.6441 0.856557 38.174C0.881886 38.1487 0.88188 38.098 0.88188 38.0473C0.755234 36.8307 1.1605 35.6141 0.653911 34.4229C0.628581 34.3468 0.653904 34.2454 0.679234 34.1441C0.983184 33.0288 1.03385 31.939 0.527264 30.8491C0.425947 30.621 0.400618 30.2408 0.527264 30.0634C1.13517 29.1763 0.805892 28.2639 0.755234 27.3514C0.729904 26.8699 0.552587 26.3629 0.679234 25.9321C0.780551 25.5519 0.932532 25.2984 0.653911 24.9689C0.603252 24.9182 0.603246 24.7155 0.679234 24.6395C0.983184 24.3606 0.805886 24.1832 0.653911 23.9298C0.375289 23.4482 0.147338 22.992 0.729911 22.5358C0.856557 22.4597 0.856557 22.1809 0.856557 21.9782C0.856557 18.7846 0.856557 15.5911 0.856557 12.3975C0.856557 12.1694 0.704588 11.9666 0.704588 11.7385C0.679258 11.0035 0.172667 10.2685 0.729911 9.53346C0.831228 9.38139 0.856557 9.12793 0.856557 8.92517C0.856557 6.9989 0.856557 5.07263 0.856557 3.14636C0.856557 3.01964 0.805892 2.81687 0.88188 2.74084C1.36314 2.23392 1.81907 1.70166 2.37631 1.29613C2.78158 0.991987 3.31349 0.890605 3.79474 0.662494C3.99738 0.68784 4.25068 0.713186 4.50397 0.713186C5.3905 0.662495 6.35301 0.358347 7.16354 0.611803C8.10073 0.890605 8.80993 0.383693 9.64579 0.383693C10.0004 0.383693 10.3803 0.206273 10.6843 0.307655C11.5455 0.611803 12.4067 0.738532 13.2932 0.510421C13.6731 0.409039 14.0278 0.206274 14.4077 0.0795454C14.4837 0.0795454 14.5597 0.0795454 14.6357 0.0795454C15.1169 0.713186 15.4462 0.713186 15.8261 0.0795454C16.4087 0.0795454 17.0166 0.0795454 17.5992 0.0795454C18.1564 0.738531 18.6123 0.738531 19.1443 0.0795454C19.4735 0.0795454 19.7775 0.0795454 20.1068 0.0795454C20.6894 0.738531 21.6519 0.738531 22.1331 0.0795454C22.4877 0.0795454 22.8423 0.0795454 23.1969 0.0795454C23.5769 0.738531 24.6407 0.738531 25.3499 0.0795454C25.5526 0.0795454 25.7552 0.0795454 25.9325 0.0795454C26.0591 0.231619 26.1605 0.485075 26.3124 0.485075C27.123 0.535766 27.9842 0.738531 28.6934 0.0795454C28.9214 0.0795454 29.1746 0.0795454 29.4026 0.0795454C29.7572 0.68784 30.4158 0.662494 30.973 0.738531C31.277 0.789222 31.6062 0.637149 31.9102 0.510421C32.1635 0.409039 32.3661 0.231619 32.6194 0.0795454C32.898 0.0795454 33.1767 0.0795454 33.4553 0.0795454C33.7592 0.180928 34.0378 0.28231 34.3418 0.333002C35.0004 0.485075 35.6336 0.738531 36.2922 0.738531C37.1787 0.763877 38.0652 0.637149 38.9517 0.510421C39.3823 0.434384 39.8129 0.231619 40.2182 0.0795454C40.6235 0.0795454 41.0034 0.0795454 41.4087 0.0795454C42.2952 0.839914 43.3337 0.485075 44.3215 0.45973C44.4228 0.45973 44.5241 0.206274 44.6255 0.0795454C44.9801 0.0795454 45.3347 0.0795454 45.6893 0.0795454C45.7146 0.130237 45.74 0.206273 45.7906 0.231619C46.7278 0.333001 47.6903 0.485076 48.6275 0.510421C48.8808 0.510421 49.1341 0.231619 49.3874 0.0795454C49.742 0.0795454 50.0966 0.0795454 50.4512 0.0795454C51.1604 0.231619 51.8443 0.434384 52.5535 0.510421C53.2121 0.586458 53.896 0.510421 54.5799 0.535766C54.9851 0.561112 55.2638 0.434384 55.4664 0.0795454C55.7957 0.0795454 56.0996 0.0795454 56.4289 0.0795454C56.8595 0.68784 57.4674 0.637149 58.1006 0.586458C58.3033 0.561112 58.5566 0.611803 58.7592 0.713186C59.1898 0.915951 59.5444 1.09337 60.0257 0.789223C60.3296 0.611803 60.7095 0.561112 61.0641 0.535766C61.5201 0.485075 61.976 0.586458 62.4319 0.510421C62.9385 0.434384 63.4198 0.231619 63.9264 0.0795454C64.7622 0.0795454 65.5981 0.0795454 66.434 0.0795454C66.6366 0.231619 66.8139 0.434384 67.0418 0.510421C67.4471 0.68784 67.8777 0.789223 68.283 0.915951C68.3843 0.941296 68.4856 1.01733 68.5616 0.991987C69.1442 0.789222 69.7014 0.586457 70.284 0.358347C70.4613 0.28231 70.588 0.155582 70.7399 0.0541992C71.0186 0.0541992 71.2972 0.0541992 71.5758 0.0541992C71.9811 0.256964 72.3863 0.510421 72.8169 0.662494C73.5515 0.915951 74.286 1.24544 75.0965 0.763877C75.5271 0.510421 76.0591 0.409038 76.5657 0.28231C76.7176 0.231619 76.9202 0.28231 77.0975 0.307655C77.5535 0.383692 78.0094 0.485075 78.4653 0.535766C78.8453 0.586458 79.3012 0.434384 79.5798 0.586458C80.2637 0.991988 80.4664 0.510421 80.745 0.0795454C80.9476 0.0795454 81.1503 0.0795454 81.3276 0.0795454C81.7835 0.839914 81.8595 0.86526 82.6447 0.586458C82.7966 0.535767 82.9486 0.561112 83.1259 0.535766C83.7085 0.510421 84.2911 0.68784 84.8737 0.561112C85.127 0.51042 85.4562 0.68784 85.7095 0.839914C86.1147 1.11872 86.5454 1.09337 86.748 0.637149C86.9506 0.104891 87.2292 0.231619 87.5585 0.409038C88.2424 0.789223 88.9263 0.966641 89.6609 0.561112C89.8128 0.485075 90.0408 0.586458 90.2181 0.586458C90.674 0.637149 91.2313 0.865259 91.5859 0.68784C92.3711 0.307655 93.055 0.713185 93.7135 0.865259C94.5747 1.06802 95.4866 1.42286 95.9932 2.30996C96.0185 2.36065 96.1198 2.43669 96.1705 2.46203C96.5757 2.51272 96.5251 2.79153 96.5251 3.07033C96.5251 4.03346 96.4744 5.02194 96.5504 5.98507C96.5757 6.31457 96.8544 6.61871 97.0317 6.94821C97.0317 8.29152 97.0317 9.63484 97.0317 11.0035C96.9557 11.0542 96.829 11.1049 96.829 11.1809C96.7277 11.7892 96.5758 12.3975 96.5758 13.0058C96.5251 14.2731 96.5504 15.5404 96.5758 16.8077C96.5758 17.0611 96.6264 17.3146 96.677 17.568C96.7784 18.2017 96.8544 18.81 96.9557 19.4436C96.9557 19.4436 97.0317 19.4436 97.057 19.4436C97.057 19.5703 97.057 19.6717 97.057 19.7984C96.905 20.1279 96.6771 20.4321 96.5758 20.7869C96.3478 21.4712 96.981 22.2063 96.5504 22.8906C96.9557 23.4229 96.5251 23.9551 96.5504 24.462C96.5504 24.6141 96.5504 24.7915 96.601 24.9182C96.8797 25.3998 96.7784 25.8307 96.6264 26.3629C96.4744 26.9206 96.5757 27.5795 96.601 28.1878C96.6264 28.9989 96.8797 29.8353 96.7277 30.621C96.5251 31.6855 96.3984 32.674 96.753 33.7132C96.829 33.9159 96.829 34.1694 96.753 34.3468C96.3984 35.2339 96.3984 36.0703 96.753 36.9574C96.829 37.1602 96.8037 37.439 96.753 37.6671C96.4238 38.9344 96.3984 40.2017 96.753 41.4689C96.829 41.7731 96.829 42.1279 96.753 42.4067C96.4238 43.598 96.3984 44.7892 96.753 45.9805C96.829 46.2086 96.753 46.4874 96.7277 46.7408C96.677 46.9943 96.5251 47.2731 96.5504 47.5265C96.6264 48.6417 96.3984 49.7823 96.753 50.9229C96.9304 51.5058 96.5504 52.2662 96.5758 52.9252C96.6011 54.0911 96.3478 55.2823 96.7784 56.4482C96.905 56.7777 96.6011 57.2339 96.5758 57.6141C96.5504 58.4505 96.4237 59.3123 96.601 60.098C96.753 60.7316 96.6517 61.2639 96.601 61.8722C96.5251 63.0887 96.2718 64.356 96.753 65.5473C96.829 65.75 96.7531 66.0542 96.7024 66.3076C96.6517 66.5611 96.5251 66.7892 96.5504 67.0173C96.6011 67.803 96.4491 68.5888 96.753 69.3998C96.9304 69.856 96.5504 70.4897 96.5758 71.0473C96.6264 72.2639 96.3478 73.4805 96.7784 74.6717C96.905 75.0772 96.6011 75.6095 96.5758 76.091C96.5251 76.7754 96.5251 77.4851 96.5758 78.1694C96.6011 78.4228 96.8797 78.6256 97.057 78.8791C97.057 79.386 97.057 79.9182 97.057 80.4252C96.5757 80.6279 96.3985 80.9321 96.7024 81.4136C96.8037 81.5657 96.7784 81.7938 96.829 81.9712C96.7784 82.174 96.8797 82.3514 96.9557 82.5035ZM87.5079 68.386C87.0266 67.8791 87.052 67.651 87.5332 66.9159C87.6599 66.7385 87.6345 66.3837 87.5585 66.1809C87.3306 65.674 87.0013 65.2685 87.4319 64.6855C87.8118 64.1786 87.8878 63.5957 87.2799 63.1141C87.2293 63.0634 87.2039 62.9367 87.1786 62.8353C87.0773 62.4551 86.976 62.1003 86.8746 61.7201C86.7987 61.492 86.672 61.2385 86.6973 61.0104C86.748 60.4021 86.8746 59.7938 86.9253 59.1602C87.0266 58.0703 86.9759 56.9551 87.2292 55.9159C87.3812 55.2063 87.9891 54.5726 87.2039 53.8883C87.3812 52.9505 86.7986 51.9113 87.6092 51.0496C87.7105 50.9482 87.6852 50.7201 87.6852 50.5427C87.6852 49.098 87.6852 47.6533 87.6852 46.2086C87.6852 46.0565 87.6852 45.9044 87.6345 45.727C87.4825 44.9666 87.3052 44.1809 87.1786 43.4206C87.1026 42.8883 87.1533 42.356 87.1786 41.8238C87.2039 41.1648 87.0519 40.5058 87.3812 39.8468C87.5079 39.5934 87.4319 39.1625 87.2799 38.8837C87.0773 38.4782 87.1279 38.25 87.4319 37.9459C87.7865 37.5657 87.7865 37.1348 87.4319 36.7293C87.3306 36.6279 87.2039 36.5012 87.2039 36.3998C87.2039 35.5127 86.7733 34.5749 87.5839 33.7892C87.6599 33.7132 87.6852 33.5358 87.6852 33.409C87.6852 30.6971 87.6852 27.9597 87.6852 25.2477C87.6852 24.9689 87.6599 24.6901 87.6599 24.386C87.6345 23.6256 87.6598 22.8906 87.6092 22.1302C87.5838 21.7754 87.3306 21.3445 87.4572 21.0657C87.8625 20.1279 87.5839 19.1901 87.6599 18.2524C87.6852 18.1003 87.6092 17.9229 87.5332 17.7708C87.1533 16.9851 86.824 16.2247 87.5839 15.4643C87.6599 15.3883 87.6345 15.2362 87.6599 15.1348C87.7359 14.6026 87.8372 14.0703 87.9132 13.5381C87.9385 13.3353 87.9131 13.1325 87.8878 12.9551C87.8118 12.4736 87.6852 12.0173 87.6852 11.5358C87.6598 10.6233 86.8493 9.78692 85.9375 9.78692C80.6943 9.78692 75.4258 9.78692 70.1827 9.78692C69.9041 9.78692 69.6254 9.66019 69.3468 9.6095C68.8149 9.50812 68.2323 9.25466 67.7764 9.38139C67.0672 9.58415 66.3833 9.81226 65.6234 9.78692C63.9011 9.76157 62.1786 9.76157 60.4562 9.78692C59.4431 9.81226 58.4299 9.73623 57.4927 9.30535C57.3661 9.25466 57.1634 9.25466 57.0368 9.3307C56.4542 9.63484 55.897 9.6095 55.3144 9.3307C55.1118 9.22931 54.8585 9.25466 54.6052 9.28C54.1239 9.3307 53.668 9.43208 53.1868 9.50812C53.0348 9.53346 52.8828 9.55881 52.7308 9.58415C52.0216 9.63484 51.2871 9.76157 50.5778 9.71088C49.666 9.63484 48.7541 9.3307 47.8423 9.28C47.1077 9.22931 46.3225 9.10259 45.588 9.50812C45.3094 9.66019 44.9294 9.76157 44.6001 9.73623C39.7116 9.6095 34.7977 10.0404 29.9092 9.50812C28.9213 9.40673 27.9335 9.50811 26.9203 9.68553C25.8059 9.8883 24.6154 9.76157 23.4755 9.71088C23.2223 9.71088 22.9436 9.50811 22.6903 9.43208C22.513 9.38139 22.2851 9.25466 22.1838 9.3307C21.6265 9.76157 20.9933 9.73623 20.3347 9.73623C19.3976 9.73623 18.4604 9.76157 17.5485 9.71088C17.2699 9.71088 16.9913 9.50811 16.6873 9.43208C16.3581 9.35604 15.9274 9.17862 15.7248 9.30535C15.0916 9.71088 14.433 9.73623 13.7491 9.71088C12.9639 9.68553 12.1534 9.71088 11.3682 9.71088C11.2162 9.71088 10.9629 9.73623 10.9376 9.81226C10.6843 10.5473 10.0764 11.1049 10.1017 11.9666C10.1017 12.651 9.94975 13.3606 9.84844 14.045C9.84844 14.0957 9.77244 14.1464 9.77244 14.1971C9.72178 14.5519 9.54447 14.9828 9.67111 15.2869C10.0764 16.3007 10.1524 17.3653 10.1524 18.4298C10.1524 18.9113 10.3804 19.4183 10.355 19.8998C10.3297 20.4321 10.6336 20.9136 10.431 21.4712C10.3043 21.8768 10.0004 22.2823 10.5323 22.8146C11.0389 23.2961 11.0896 24.0818 10.735 24.8422C10.5323 25.2731 9.97507 25.5772 10.1524 26.1855C10.3043 26.6924 10.4563 27.1994 10.507 27.7063C10.583 28.5427 10.6083 29.3791 10.5576 30.2155C10.4816 31.2547 10.3043 32.2938 10.1777 33.3077C10.127 33.7639 10.0004 34.2201 9.97508 34.6763C9.94975 35.0312 10.0257 35.4113 10.0764 35.7662C10.1777 36.2984 10.355 36.8053 10.4057 37.3376C10.431 37.7685 10.2284 38.1994 10.2031 38.6302C10.1017 39.8975 10.0257 41.1648 9.94976 42.4321C9.94976 42.4828 9.94973 42.5588 9.92441 42.6095C9.41782 43.674 9.74713 44.5864 10.4563 45.4229C10.5577 45.5496 10.659 45.8537 10.583 45.9551C10.2031 46.4874 10.127 47.0703 10.1777 47.6786C10.1777 47.8307 10.203 48.0081 10.1271 48.1348C9.8231 48.7938 9.87377 49.4275 10.1017 50.1118C10.279 50.6187 10.355 51.2017 10.4057 51.7593C10.5323 52.9505 10.203 54.1924 10.659 55.3837C10.9376 56.144 11.0136 57.0058 11.7988 57.5127C12.0014 57.6394 12.204 57.7662 12.0521 58.1464C12.0014 58.2731 12.3054 58.704 12.508 58.7547C13.0146 58.856 13.1919 59.1095 13.1919 59.5911C13.1919 60.174 13.4958 60.5035 14.0278 60.5288C14.3824 60.5542 14.4584 60.7063 14.433 61.0104C14.4077 61.4159 14.5597 61.7961 14.9903 61.7454C15.4968 61.6947 15.6488 61.9989 15.8768 62.3284C16.0034 62.5311 16.1807 62.6832 16.358 62.8353C16.6873 63.0887 17.0166 63.3169 17.3459 63.5703C17.7005 63.8238 18.1058 64.0519 18.4604 64.28C18.7897 64.5081 19.0936 64.7362 19.4229 64.9643C19.5748 65.0657 19.7015 65.2178 19.8788 65.2938C20.5374 65.598 21.2972 65.674 21.8291 66.2823C21.9558 66.4344 22.2344 66.4851 22.4371 66.5358C22.9436 66.6878 23.4755 66.7892 23.9821 66.9666C24.8687 67.3215 25.6539 67.9298 26.743 67.8284C27.3003 67.7777 27.8829 67.9551 28.4654 68.0565C29.2 68.2086 29.9345 68.386 30.6437 68.5381C30.7704 68.5634 30.9223 68.5381 31.049 68.5634C31.9102 68.7155 32.746 68.9689 33.6072 68.9943C35.2536 69.0703 36.8747 68.9943 38.4958 68.5887C39.4583 68.3353 40.4968 68.4113 41.51 68.0818C42.4218 67.7777 43.4857 67.8537 44.4735 67.7777C44.9547 67.7523 45.436 67.8284 45.7653 67.3722C45.8159 67.2961 45.9933 67.3215 46.0946 67.2708C46.3732 67.1694 46.6518 67.0427 46.9304 66.9413C47.0571 66.8906 47.1584 66.7892 47.285 66.7892C48.1462 66.6878 48.9821 66.6118 49.8433 66.5358C49.97 66.5358 50.0713 66.4851 50.1726 66.4597C50.8311 66.1556 51.4897 65.7754 52.1736 65.598C52.9081 65.3952 53.7187 65.3952 54.4785 65.2938C54.8585 65.2431 55.2384 65.1417 55.593 65.0657C55.9983 64.9643 56.4289 64.8883 56.8342 64.7869C57.2141 64.7109 57.5941 64.6348 57.9487 64.5334C58.5312 64.3814 59.0885 64.204 59.671 64.0519C59.747 64.0265 59.823 64.0772 59.899 64.1026C60.1523 64.1533 60.3803 64.28 60.6336 64.28C63.6984 64.28 66.7886 64.28 69.8534 64.3053C70.3347 64.3053 70.7399 63.9758 71.2972 64.2546C72.0317 64.6348 72.8929 64.7869 73.7034 65.015C74.134 65.1417 74.5647 65.2178 74.9953 65.2938C75.2992 65.3445 75.6538 65.2685 75.9324 65.3952C76.4897 65.598 76.8949 66.1809 77.6041 66.1049C77.7054 66.1049 77.8068 66.2823 77.9334 66.3583C78.0854 66.4344 78.2374 66.5611 78.3894 66.5611C78.8959 66.5611 79.4025 66.5358 79.5545 67.1947C79.5545 67.2454 79.6811 67.2708 79.7571 67.3215C80.289 67.5496 80.821 67.7523 81.3276 68.0058C81.5302 68.1072 81.7328 68.3353 81.8594 68.5381C82.0621 68.8675 82.2141 69.1717 82.6953 69.0957C82.7966 69.0703 82.9486 69.2224 83.0246 69.3238C83.1513 69.4505 83.2019 69.6279 83.3286 69.7293C83.7338 70.0841 84.215 70.3883 84.5697 70.7685C85.2789 71.5035 85.9628 72.3146 86.6467 73.0749C86.748 73.2017 86.9506 73.227 87.1026 73.303C87.1532 73.151 87.2546 72.9989 87.2546 72.8468C87.2799 71.9851 87.2293 71.098 87.2799 70.2362C87.2546 69.7293 87.4066 69.121 87.5079 68.386ZM19.5242 80.4758C19.8788 80.3745 20.1068 80.2224 20.3601 80.2224C21.1959 80.197 22.0318 80.197 22.8677 80.2224C23.2476 80.2224 23.3743 80.0957 23.3743 79.7155C23.3743 79.3099 23.1969 79.2086 22.8423 79.2086C22.3104 79.2339 21.7532 79.2846 21.2466 79.2086C20.6134 79.1072 19.4736 79.6394 19.4482 78.7016C19.4482 77.8399 20.588 78.3722 21.1959 78.2201C21.2972 78.1947 21.4239 78.2201 21.5505 78.2201C21.9558 78.2454 22.3357 78.1187 22.3104 77.6878C22.3104 77.3076 21.9305 77.2063 21.5505 77.2063C20.436 77.2316 19.3216 77.2063 18.2071 77.2063C16.89 77.2063 16.89 77.2063 16.814 75.9136C16.814 75.8883 16.814 75.8629 16.814 75.8629C16.8393 75.356 16.4594 75.4828 16.1807 75.4828C15.9021 75.4828 15.5475 75.3814 15.5475 75.8629C15.5475 76.5219 15.5475 77.1809 15.5475 77.8146C15.5475 78.144 15.6995 78.2201 16.0034 78.2201C16.434 78.2201 16.8646 78.2201 17.3206 78.2201C17.7005 78.2201 18.0551 78.3468 18.0551 78.727C18.0551 79.1072 17.7005 79.2339 17.3206 79.2339C16.4847 79.2086 15.6488 79.2339 14.813 79.2339C14.4584 79.2339 14.3064 79.3353 14.3064 79.7155C14.3064 80.0703 14.3824 80.2731 14.813 80.2477C15.5728 80.2224 16.3327 80.2224 17.0673 80.2477C17.3206 80.2477 17.5485 80.4251 17.8271 80.5012C17.5485 81.1095 16.9153 80.9574 16.6113 81.4897C16.1807 82.2247 16.0794 82.8837 16.3834 83.6187C16.5353 83.9482 16.814 84.2523 17.1179 84.4805C17.3459 84.6579 17.7005 84.6579 17.9791 84.8099C18.5617 85.1141 19.1443 85.1648 19.7015 84.7846C20.2081 84.4551 20.6387 84.0242 21.0946 83.6187C21.4999 83.2385 21.4999 82.2247 21.0693 81.8445C20.6387 81.3883 20.1574 81.0081 19.5242 80.4758ZM26.971 75.4321C26.2618 75.4321 25.5526 75.4321 24.818 75.4321C24.4634 75.4321 24.3367 75.5588 24.3367 75.9136C24.3367 76.2938 24.4634 76.4459 24.8433 76.4459C25.7045 76.4205 26.5404 76.3952 27.4016 76.4712C27.6549 76.4966 27.8575 76.7754 28.0855 76.9528C27.8829 77.0288 27.6549 77.1809 27.4523 77.1809C26.6671 77.2063 25.8565 77.2063 25.0713 77.1809C24.59 77.1809 24.3367 77.3837 24.3367 77.8906C24.3367 78.4229 24.3367 78.9551 24.3367 79.4874C24.3367 79.9182 24.5394 80.1717 24.97 80.1717C27.3003 80.1717 29.6052 80.1717 31.9355 80.1717C32.0622 80.1717 32.3155 79.9436 32.3155 79.8169C32.3408 78.5496 32.3915 77.2823 32.2901 76.015C32.2648 75.7362 31.8342 75.28 31.5556 75.2546C31.201 75.2293 30.7704 75.4574 30.821 76.0657C30.897 76.8261 30.8211 77.6118 30.8464 78.3975C30.8717 78.9551 30.6184 79.2086 30.0865 79.2086C28.9467 79.2086 27.7815 79.2086 26.6417 79.2086C26.2618 79.2086 25.8818 79.1072 25.8818 78.727C25.8818 78.2961 26.2618 78.1947 26.6417 78.1947C27.4522 78.1947 28.2628 78.1947 29.0733 78.1947C29.4533 78.1947 29.6052 78.0934 29.6052 77.6878C29.5799 77.1302 29.5799 76.5726 29.6052 76.015C29.6306 75.5841 29.5039 75.4067 29.048 75.4321C28.3641 75.4574 27.6802 75.4321 26.971 75.4321ZM65.1675 84.4805C65.9274 84.5565 66.6366 84.6832 67.3458 84.7086C68.3843 84.7339 69.3975 84.7086 70.436 84.7086C70.9679 84.7086 71.1958 84.3537 71.3985 83.9735C71.4998 83.7961 71.6011 83.568 71.5758 83.3906C71.4745 82.7063 71.3225 82.0219 71.1705 81.3629C71.1452 81.2616 70.8666 81.2109 70.7146 81.2109C70.3853 81.1855 70.0307 81.1855 69.7014 81.2109C69.3215 81.2362 68.9415 81.1095 68.9415 80.7293C68.9415 80.2984 69.3215 80.197 69.7014 80.197C70.5626 80.2224 71.4491 80.197 72.3103 80.197C72.5636 80.197 72.8929 80.2984 72.9182 79.8422C72.9182 79.3606 72.5636 79.462 72.285 79.462C71.4238 79.462 70.5373 79.4874 69.6761 79.4874C68.0044 79.4874 66.3073 79.462 64.6356 79.4874C64.3823 79.4874 64.1543 79.7915 63.901 79.9436C64.129 80.045 64.3316 80.197 64.5596 80.2224C65.3701 80.2477 66.1807 80.2477 66.9912 80.2477C67.3965 80.2477 67.6245 80.4505 67.6498 80.856C67.6751 81.3629 67.2951 81.2362 67.0418 81.2362C66.6366 81.2362 66.206 81.1855 65.8007 81.2616C65.5728 81.3122 65.1928 81.5657 65.1928 81.7431C65.1421 82.6049 65.1675 83.492 65.1675 84.4805ZM43.359 79.9689C43.359 79.8675 43.359 79.7915 43.359 79.6901C43.131 79.6141 42.9284 79.462 42.7004 79.462C39.7623 79.4367 36.8494 79.462 33.9112 79.462C33.6326 79.462 33.3793 79.4367 33.3793 79.8422C33.3793 80.2477 33.6326 80.2224 33.9112 80.2224C34.8231 80.2224 35.7349 80.2224 36.6468 80.2224C37.0267 80.2224 37.3813 80.3491 37.3813 80.7293C37.3813 81.1095 37.0267 81.2362 36.6468 81.2109C36.1402 81.1855 35.6083 81.2109 35.1017 81.2109C34.7724 81.2109 34.6711 81.3376 34.6458 81.6671C34.6204 82.0726 34.7471 82.2247 35.1777 82.2247C36.5708 82.1993 37.9386 82.2247 39.3317 82.2247C39.9902 82.2247 40.1675 82.4021 40.1675 83.0864C40.1675 83.4159 40.1675 83.7201 40.1675 84.0496C40.1675 84.6325 40.5475 84.7592 41.0287 84.7592C41.51 84.7592 41.9152 84.6579 41.9152 84.0749C41.9152 83.3906 41.9152 82.6809 41.9152 81.9966C41.9152 81.4643 41.662 81.2362 41.1554 81.2616C40.6741 81.2616 40.1929 81.2616 39.7369 81.2616C39.3317 81.2616 38.9517 81.1602 38.9517 80.7546C38.9517 80.3491 39.357 80.2477 39.7623 80.2731C40.7248 80.2984 41.7126 80.2984 42.6751 80.2731C42.8778 80.197 43.1057 80.045 43.359 79.9689ZM68.5363 75.4321C67.5738 75.4321 66.5859 75.4067 65.6234 75.4574C65.3701 75.4828 65.0408 75.7109 64.9395 75.939C64.7369 76.4459 65.2941 76.5219 65.5474 76.6233C66.0034 76.7754 65.978 77.1049 65.902 77.3583C65.826 77.5864 65.5727 77.8906 65.3954 77.8906C64.9142 77.9159 64.9142 78.1694 64.9142 78.5242C64.9395 78.9298 65.1422 79.1579 65.5474 79.1579C67.4725 79.1579 69.3975 79.1832 71.3225 79.1325C71.5251 79.1325 71.829 78.8284 71.905 78.6256C71.981 78.3722 72.0571 78.0427 71.5758 77.8652C71.3225 77.7892 70.8919 77.7385 70.8919 77.2063C70.8919 76.6487 71.2972 76.5726 71.5758 76.4712C72.0317 76.3192 71.981 75.9897 71.905 75.7109C71.8544 75.5588 71.5504 75.4321 71.3478 75.4067C70.4106 75.4321 69.4735 75.4321 68.5363 75.4321ZM78.2627 79.6901C79.1492 79.6901 80.0358 79.6901 80.9476 79.6901C81.3782 79.6901 81.6822 79.5127 81.6822 79.0565C81.7075 77.992 81.6822 76.9275 81.6822 75.8376C81.6822 75.7109 81.5555 75.4828 81.4289 75.4574C80.8716 75.28 80.4157 75.5841 80.441 76.1671C80.441 76.6233 80.2384 76.6993 79.8585 76.674C78.9213 76.6487 77.9841 76.674 77.0722 76.674C76.3377 76.674 76.2364 76.5726 76.1604 75.8376C76.135 75.7109 76.0591 75.4828 75.9831 75.4574C75.3245 75.28 74.8686 75.6348 74.9193 76.1671C74.9699 77.0795 74.9446 77.992 74.9193 78.9044C74.9193 79.462 75.1725 79.6901 75.7044 79.6901C76.5656 79.6901 77.4268 79.7155 78.2627 79.6901ZM38.1412 75.4574C37.28 75.5334 36.2415 75.6095 35.1777 75.7109C35.1017 75.7109 34.975 75.7109 34.9497 75.7616C34.8231 75.9897 34.7217 76.2178 34.6204 76.4459C34.7977 76.5219 34.975 76.6487 35.1524 76.674C35.5576 76.6993 35.9375 76.674 36.3428 76.6993C36.5201 76.6993 36.8241 76.8007 36.8241 76.8768C36.8241 77.0795 36.7734 77.333 36.6468 77.5104C36.3175 78.0934 35.7349 77.9159 35.203 77.9413C35.0004 77.9666 34.6964 78.0427 34.6204 78.1694C34.3671 78.803 34.6204 79.1579 35.3296 79.1579C35.6083 79.1579 35.8869 79.1579 36.1655 79.1579C36.4948 79.1579 36.7228 79.1325 36.9507 78.7523C37.204 78.3468 37.5586 77.6878 38.1919 77.992C38.6478 78.1947 39.281 78.2708 39.4583 78.9044C39.4837 79.0311 39.7369 79.1325 39.8889 79.1579C40.3702 79.1832 40.8514 79.2086 41.3073 79.1579C41.7886 79.1072 41.8646 78.727 41.8392 78.3215C41.8139 77.8652 41.51 77.992 41.2567 77.9413C40.7754 77.8652 40.2942 77.8146 39.8383 77.6625C39.6356 77.5864 39.509 77.3076 39.3317 77.1049C39.5596 76.9528 39.7876 76.75 40.0409 76.6993C40.4461 76.6233 40.8767 76.7247 41.282 76.6487C41.4846 76.6233 41.6366 76.3445 41.8139 76.1924C41.6366 76.015 41.4846 75.7362 41.3073 75.7109C40.3702 75.6095 39.357 75.5588 38.1412 75.4574ZM26.1098 84.3791C26.5657 84.5058 26.9457 84.7086 27.3509 84.7086C28.6934 84.7593 30.0358 84.7339 31.4036 84.7086C31.6316 84.7086 31.9608 84.5058 32.0875 84.303C32.5687 83.568 32.3914 82.7316 32.3155 81.9459C32.2901 81.6924 31.7836 81.2616 31.4796 81.2616C29.8079 81.1855 28.1615 81.2109 26.4897 81.2362C26.3631 81.2362 26.1351 81.439 26.1098 81.5657C26.1098 82.4781 26.1098 83.4413 26.1098 84.3791ZM75.7804 81.439C75.7804 81.4643 75.7804 81.4643 75.7804 81.439C76.287 81.439 76.7683 81.4136 77.2749 81.4643C77.5029 81.4897 77.8828 81.6671 77.8828 81.8192C77.9334 82.4275 77.8574 83.0611 77.8574 83.6947C77.8574 83.8722 77.7814 84.151 77.8828 84.227C78.1361 84.4298 78.44 84.6325 78.7693 84.6579C78.8959 84.6832 79.1745 84.303 79.1999 84.0749C79.2505 83.4413 79.2252 82.8076 79.2252 82.174C79.2252 81.6671 79.4785 81.439 79.9597 81.439C80.7196 81.439 81.4542 81.439 82.2141 81.439C82.6447 81.439 82.974 81.2869 82.974 80.8053C82.974 80.3238 82.67 80.1717 82.2141 80.1717C81.3022 80.1717 80.3904 80.1717 79.4785 80.1717C78.592 80.1717 77.6801 80.2477 76.7936 80.1463C75.9071 80.0703 75.0459 80.4505 74.1847 80.1717C74.134 80.1464 74.0074 80.197 73.9821 80.2477C73.8808 80.4505 73.6781 80.7293 73.7288 80.9067C73.8048 81.1095 74.0834 81.3376 74.3113 81.3629C74.7672 81.4897 75.2738 81.439 75.7804 81.439ZM58.3032 82.1993C58.9365 82.1993 59.5697 82.1993 60.2029 82.1993C60.9628 82.1993 61.4188 82.9597 61.1148 83.6694C61.0388 83.8215 61.0388 84.1003 61.1148 84.2523C61.3428 84.6832 61.7734 84.8353 62.2293 84.6832C62.4319 84.6072 62.6346 84.303 62.6599 84.0749C62.7106 83.4159 62.6852 82.7316 62.6852 82.0473C62.6852 81.3629 62.5332 81.2109 61.8493 81.2109C60.0763 81.2109 58.2779 81.2109 56.5049 81.2109C56.4036 81.2109 56.2769 81.1602 56.2263 81.2109C56.0236 81.4136 55.8717 81.6417 55.669 81.8699C55.8463 81.9712 56.049 82.174 56.2263 82.1993C56.9102 82.2247 57.594 82.1993 58.3032 82.1993ZM59.0631 80.197C59.0885 80.2477 59.1138 80.2984 59.1391 80.3238C59.4177 80.121 59.7217 79.9436 60.0003 79.7155C60.0763 79.6394 60.1776 79.462 60.127 79.3606C60.1016 79.2846 59.9243 79.1832 59.7977 79.1832C59.1138 79.1832 58.5312 78.8537 58.202 78.3215C57.898 77.7892 57.7967 77.1556 57.6447 76.5473C57.6194 76.4712 57.6447 76.3192 57.6954 76.2685C57.898 76.0404 58.0247 75.7616 57.6954 75.6348C57.3661 75.4827 56.9608 75.4574 56.5809 75.4574C56.5049 75.4574 56.4036 75.8122 56.4036 75.9897C56.3782 76.8007 56.2263 77.5104 55.593 78.0934C55.4917 78.1947 55.3904 78.3468 55.3904 78.4989C55.3651 79.0058 55.0611 79.1832 54.6052 79.1579C54.3012 79.1579 54.0733 79.2086 54.1239 79.5634C54.1493 79.7408 54.1999 80.0703 54.2506 80.0957C54.6052 80.121 55.0358 80.1717 55.3397 80.0196C55.7957 79.7915 56.1503 79.4367 56.5556 79.1072C57.0621 78.7017 57.6194 78.8284 57.898 79.4113C58.1513 79.9182 58.4552 80.2984 59.0631 80.197ZM46.4239 78.9298C46.4999 78.9298 46.5505 78.9298 46.6265 78.9044C46.9558 79.8422 47.5383 80.2731 48.5262 80.2731C48.8808 80.2731 49.1087 80.1464 49.3874 80.045C49.2101 79.8422 49.0834 79.5634 48.8808 79.4367C48.3742 79.1832 47.9183 78.9298 47.741 78.3722C47.589 77.8906 47.3357 77.4597 47.2091 76.9781C47.1331 76.75 47.1837 76.4712 47.285 76.2431C47.4623 75.7869 47.3357 75.4828 46.8544 75.4321C46.6518 75.4067 46.4492 75.4321 46.2719 75.4321C45.8413 75.3814 45.664 75.5334 45.6893 75.9897C45.7146 76.7247 45.7146 77.4597 45.6893 78.1947C45.6893 78.3975 45.588 78.7016 45.436 78.803C44.9801 79.1325 44.4482 79.386 43.9669 79.6901C43.8656 79.7662 43.7896 79.8929 43.7136 80.0196C43.8149 80.0703 43.9416 80.1717 44.0429 80.197C44.8028 80.2731 45.5373 80.2477 46.0186 79.4874C46.1199 79.2846 46.2719 79.1072 46.4239 78.9298ZM51.895 76.598C51.895 76.3952 51.8696 76.1924 51.895 76.015C51.9963 75.5334 51.6163 75.4574 51.3377 75.3307C51.2111 75.28 50.9324 75.3053 50.8311 75.4067C50.6285 75.6602 50.4005 75.9643 50.4005 76.2431C50.4005 76.8007 50.5525 77.3583 50.6032 77.9159C50.6285 78.1187 50.5018 78.3215 50.4512 78.5242C50.4259 78.6256 50.3499 78.727 50.3752 78.803C50.5525 79.386 50.7298 79.9689 50.3752 80.5772C50.3246 80.6533 50.3499 80.8053 50.3752 80.9321C50.4259 81.4897 50.7298 81.7938 51.2111 81.7685C51.819 81.7431 51.895 81.3629 51.8696 80.856C51.8443 80.4758 51.8696 80.0957 51.8696 79.7155C51.8696 79.2086 52.0976 78.9805 52.6042 79.0058C52.7308 79.0058 52.9081 79.0565 53.0095 78.9805C53.1614 78.8791 53.3134 78.7017 53.364 78.5242C53.44 78.2708 53.3894 78.0427 53.0095 77.992C51.8696 77.8652 51.8696 77.8652 51.8696 76.75C51.895 76.674 51.895 76.6233 51.895 76.598ZM49.2354 84.4551C50.0713 84.4551 50.9071 84.4551 51.743 84.4551C52.1483 84.4551 52.3509 84.1003 52.0976 83.7961C51.9456 83.6187 51.667 83.492 51.4644 83.492C50.6538 83.4666 49.8433 83.492 49.0328 83.4666C47.6903 83.4666 47.3357 83.7454 47.437 81.9459C47.437 81.9205 47.437 81.8952 47.437 81.8952C47.3104 81.6671 47.209 81.3629 47.0064 81.2616C46.8544 81.1855 46.5252 81.3122 46.3479 81.4643C45.9173 81.7938 45.816 83.1371 46.0439 83.7201C46.2972 84.3537 46.6772 84.5311 47.3104 84.4805C47.9183 84.4298 48.5768 84.4551 49.2354 84.4551ZM61.0388 79.9689C61.3428 80.3745 61.824 80.197 62.2546 80.197C62.4066 80.197 62.6599 79.9436 62.6599 79.7915C62.6852 78.4735 62.6852 77.1809 62.6599 75.8629C62.6599 75.7109 62.4066 75.5588 62.2546 75.4574C62.128 75.3814 61.9507 75.4574 61.7734 75.4321C61.3174 75.3814 61.1401 75.5334 61.1655 76.015C61.1908 77.0035 61.1908 77.992 61.1655 78.9805C61.1655 79.2846 61.0895 79.5634 61.0388 79.9689Z" fill="white"/>
<path d="M59.4937 30.1141C60.5068 30.1141 61.4947 30.1141 62.4825 30.1141C63.9263 30.1141 65.3701 30.1141 66.8138 30.1141C67.4724 30.1141 67.675 29.9113 67.675 29.3537C67.675 28.7961 67.4724 28.6187 66.8391 28.6187C65.6993 28.6187 64.5849 28.6187 63.445 28.6187C62.9131 28.6187 62.6598 28.3906 62.6598 27.833C62.6598 25.9321 62.6598 24.0312 62.6598 22.1302C62.6598 21.6233 62.8878 21.3445 63.3944 21.3445C65.1674 21.3445 65.2181 21.1418 65.1674 23.0427C65.1421 23.8537 65.1674 24.6648 65.1674 25.4759C65.1674 26.1855 65.3194 26.3376 66.054 26.3376C69.0681 26.3376 72.0823 26.3376 75.0965 26.3376C76.135 26.3376 76.5656 27.0219 76.1603 27.9851C75.983 28.3906 75.755 28.6441 75.1978 28.6187C73.9566 28.5427 72.6902 28.5934 71.4491 28.5934C70.6386 28.5934 70.4359 28.7454 70.4359 29.3284C70.4359 29.962 70.6132 30.0888 71.4744 30.0888C73.678 30.0888 75.8817 30.0888 78.0853 30.0888C78.7946 30.0888 78.9465 30.2408 78.9719 30.9505C78.9719 31.2547 79.1745 31.5842 79.0732 31.8376C78.9718 32.1164 78.6932 32.3445 78.4399 32.5473C78.3386 32.6233 78.136 32.5726 77.984 32.5726C72.1076 32.5726 66.2566 32.5726 60.3802 32.5726C59.4177 32.5726 58.8858 31.6602 59.3417 30.7731C59.4177 30.621 59.4177 30.3929 59.4937 30.1141Z" fill="white"/>
<path d="M39.1035 35.8676C37.8877 35.8676 36.7479 35.8676 35.6081 35.8676C34.7722 35.8676 34.6456 35.9943 34.6456 36.8308C34.6456 38.2501 34.6456 39.6441 34.6456 41.0635C34.6456 41.7225 34.4683 41.9252 33.7844 41.8999C33.2778 41.8745 32.7459 41.7478 32.2393 41.6971C31.8847 41.6464 31.8847 41.4183 31.8847 41.1395C31.8847 39.6948 31.8847 38.2501 31.8847 36.8054C31.8847 36.0704 31.7327 35.9183 31.0235 35.9183C29.985 35.9183 28.9212 35.9183 27.8827 35.9183C27.4774 35.9183 27.3761 36.045 27.3761 36.4506C27.4014 37.9206 27.3761 39.3907 27.3761 40.8607C27.3761 41.545 27.2241 41.6971 26.5402 41.6971C26.1096 41.6971 25.679 41.6971 25.2231 41.6971C24.5392 41.6971 24.3619 41.5197 24.3619 40.8607C24.3619 39.5681 24.3619 38.2755 24.3619 36.9828C24.3619 36.1718 24.1086 35.9183 23.2727 35.9183C22.2342 35.9183 21.2211 35.893 20.1826 35.9183C19.752 35.9183 19.5747 35.8169 19.6 35.3354C19.6253 35.0059 19.524 34.7017 19.448 34.3722C19.3721 34.0174 19.7266 33.6372 20.1826 33.6372C24.1846 33.6372 28.1866 33.6372 32.1886 33.6372C34.291 33.6372 36.3933 33.6372 38.4956 33.6372C39.1035 33.6372 39.3821 34.0427 39.2302 34.6257C39.1795 34.9805 39.1542 35.3861 39.1035 35.8676Z" fill="white"/>
<path d="M29.5039 21.3447C30.1118 21.3447 30.745 21.37 31.3529 21.3447C32.2394 21.3193 32.8473 21.8262 33.4046 22.4345C33.4806 22.5106 33.5819 22.5613 33.6832 22.6119C33.9618 22.7894 34.4684 22.9414 34.4937 23.1695C34.6204 23.9299 35.3043 24.2848 35.5576 24.9437C35.9882 26.0083 36.0641 27.0728 35.6082 28.1119C35.4816 28.3907 35.203 28.5935 35.0256 28.847C34.8483 29.1004 34.747 29.3792 34.595 29.6327C34.5444 29.7341 34.4937 29.8354 34.4177 29.9368C34.0378 30.3424 33.6579 30.7225 33.2526 31.1027C33.1513 31.2041 33.0499 31.3562 32.9486 31.3562C31.5809 31.3562 30.3904 32.3954 28.9973 32.1166C28.44 32.0152 27.9334 31.7617 27.4015 31.5589C27.3002 31.5083 27.1736 31.3815 27.0976 31.4069C26.1857 31.6603 25.7805 30.7479 25.0966 30.4944C24.8686 30.4184 24.666 30.241 24.4633 30.0889C24.4127 30.0636 24.362 30.0129 24.3367 29.9875C24.0074 29.4046 23.6781 28.7963 23.3488 28.2133C23.2729 28.0866 23.2222 27.9345 23.1462 27.8078C22.7156 26.9967 22.7156 26.2364 23.1969 25.4253C23.5262 24.8424 23.7795 24.1834 24.1341 23.6258C24.438 23.1442 24.742 22.5866 25.4765 22.6373C25.6032 22.6373 25.7805 22.5359 25.8564 22.4345C26.2617 21.6742 26.895 21.37 27.7308 21.3954C28.3134 21.3447 28.896 21.3447 29.5039 21.3447ZM32.898 26.6165C32.8727 25.9576 33.0753 25.3746 32.3407 25.1465C32.2141 25.0958 32.1128 24.7663 32.1381 24.5889C32.1888 24.0313 31.7582 24.006 31.4289 23.9553C31.0489 23.8792 30.6183 23.9299 30.2637 23.8032C29.0733 23.3977 28.0348 23.6511 27.1229 24.4875C26.8696 24.7156 26.6417 24.9437 26.4137 25.1972C26.3124 25.3239 26.1351 25.5013 26.1351 25.6281C26.211 26.4138 25.9831 27.1742 26.515 27.9852C27.1482 28.923 28.0601 29.2018 28.9466 29.5566C30.0864 30.0129 31.0996 29.2271 31.8848 28.5935C32.4167 28.1626 33.2779 27.5036 32.898 26.6165Z" fill="white"/>
<path d="M46.9051 22.0795C48.2476 22.0795 49.59 22.1048 50.9578 22.0795C51.4897 22.0795 51.743 22.1808 51.6671 22.7638C51.6164 23.2454 51.6924 23.7269 51.6417 24.1832C51.6164 24.5887 51.5151 24.9942 51.3884 25.3744C51.0845 26.2615 50.5019 27.1232 50.5019 28.0103C50.5019 28.7707 50.198 29.2776 49.894 29.8352C49.4128 30.7223 48.9062 31.5841 48.2729 32.3444C47.4117 33.409 46.4239 34.3974 45.4867 35.3859C45.1574 35.7408 44.8282 36.1209 44.4482 36.3997C44.1949 36.6025 43.8403 36.7039 43.5617 36.856C43.4351 36.932 43.2324 36.9573 43.1818 37.0587C42.9538 37.591 42.5232 37.4136 42.2446 37.2615C41.7633 37.008 41.3834 36.6025 40.9528 36.273C40.5982 35.9942 40.5475 35.5887 40.7248 35.2592C40.8262 35.0564 41.2061 34.9804 41.4847 34.8537C41.6114 34.803 41.814 34.803 41.9153 34.7016C43.0045 33.7891 44.1696 32.9527 45.1575 31.9136C45.9427 31.1025 46.6519 30.1901 46.9305 29.0495C46.9558 28.9735 47.0825 28.8721 47.1584 28.8214C47.6904 28.5679 47.9183 28.0864 47.893 27.6048C47.817 26.7431 48.1463 26.0334 48.5262 25.3237C48.8302 24.7661 48.7035 24.5633 48.0956 24.5633C46.3226 24.5633 44.5242 24.5633 42.7512 24.5633C42.0673 24.5633 41.9153 24.3859 41.9153 23.7269C41.9153 23.5495 41.9153 23.3721 41.9153 23.1947C41.9153 22.1048 41.966 22.0795 43.0804 22.0795C44.3216 22.0795 45.6134 22.0795 46.9051 22.0795Z" fill="white"/>
<path d="M75.0966 38.098C74.8686 38.8076 74.8433 39.7454 74.362 40.1763C73.7035 40.7846 73.3235 41.8238 72.1584 41.9252C71.4998 41.9758 70.8919 42.4574 70.2334 42.6855C69.4228 42.9643 68.587 43.015 67.7764 42.6602C67.1939 42.4067 66.5353 42.3053 66.13 41.7224C66.13 41.697 66.1047 41.6717 66.0793 41.697C65.0915 41.8745 64.9649 40.6579 64.1797 40.5058C64.0784 40.4805 63.9517 40.3284 63.9517 40.2523C63.977 39.3146 63.1665 38.5795 63.3945 37.5911C63.4198 37.4897 63.3691 37.2869 63.4451 37.2616C64.0277 36.8307 63.8251 36.197 63.9517 35.6394C64.0277 35.3353 64.3823 35.0311 64.6863 34.8791C64.9142 34.7777 65.0662 34.727 65.2435 34.4735C65.5728 33.9666 66.0034 33.5358 66.7633 33.5611C67.4218 33.5864 68.1057 33.2316 68.7896 33.1556C69.2709 33.1049 69.7774 33.2823 70.2587 33.3583C70.7652 33.4344 71.2972 33.5358 71.8038 33.5611C72.2344 33.5864 72.589 33.6371 72.7156 34.1187C72.741 34.2454 72.8423 34.3975 72.9689 34.4229C74.0328 34.803 74.2354 35.8929 74.8686 36.6533C75.0966 36.9321 74.97 37.515 74.9953 37.9712C74.9953 38.0473 75.0459 38.0726 75.0966 38.098ZM69.1442 40.3791C69.1949 40.3791 69.2708 40.3537 69.3215 40.3791C70.6639 40.8099 71.1199 39.6187 71.9051 38.9851C71.9304 38.9597 71.9304 38.8837 71.9304 38.8076C72.1837 37.6671 71.7025 36.7547 70.9172 36.045C70.3853 35.5634 69.6508 35.2086 68.8656 35.386C68.3336 35.4874 67.7258 35.5634 67.4472 36.197C67.3712 36.3745 67.1939 36.5519 67.0166 36.5772C66.434 36.7293 66.358 37.1348 66.4086 37.6164C66.434 37.9459 66.3833 38.3007 66.4086 38.6302C66.434 38.8076 66.4593 39.0358 66.5859 39.1625C67.2698 39.8975 67.9284 40.7593 69.1442 40.3791Z" fill="white"/>
<path d="M57.9231 31.356C57.9231 34.5749 57.9231 37.7937 57.9231 40.9873C57.9231 41.697 57.7711 41.8744 57.0619 41.8744C56.7326 41.8744 56.4287 41.8237 56.0994 41.8744C55.1369 42.0265 54.9089 41.4942 54.9089 40.6831C54.9089 35.9942 54.9089 31.3306 54.9089 26.6417C54.9089 25.0702 54.9089 23.4988 54.9089 21.9527C54.9089 21.2684 55.3142 20.8375 55.9728 20.8375C56.3527 20.8375 56.7326 20.8375 57.1126 20.8375C57.7458 20.8375 57.9231 21.0149 57.9231 21.6739C57.9231 24.8928 57.9231 28.1117 57.9231 31.356Z" fill="white"/>
<path d="M33.8607 50.5173C33.9367 51.227 33.8607 51.8606 33.4554 52.4943C33.2528 52.7984 33.2528 53.2293 33.1515 53.5841C33.1262 53.6602 33.1261 53.7615 33.0755 53.7869C32.5182 54.091 31.9863 54.3698 31.4291 54.6486C31.3531 54.674 31.2771 54.6993 31.2011 54.7247C29.9853 55.3076 29.2001 55.2062 28.2123 54.3445C28.111 54.2431 27.959 54.1924 27.807 54.1164C27.4018 53.939 27.1231 53.6602 26.9205 53.2546C26.8192 53.0265 26.6419 52.8491 26.5152 52.621C26.2872 52.2155 25.958 51.8099 25.9327 51.4044C25.882 50.4413 25.7807 49.5288 26.4392 48.591C26.8445 47.9827 27.2498 47.3744 27.7563 46.8675C27.9083 46.7155 28.1616 46.6394 28.3643 46.6141C28.8455 46.5127 29.3521 46.4113 29.8334 46.386C30.188 46.3606 30.5426 46.462 30.9225 46.5127C31.0238 46.538 31.1251 46.6141 31.2011 46.5887C32.2903 46.4113 32.6702 47.3744 33.2781 47.9067C33.3794 47.9827 33.3541 48.2108 33.3795 48.3629C33.4048 48.4896 33.3541 48.6924 33.4301 48.7685C34.0633 49.25 33.8354 49.909 33.8607 50.5173ZM32.113 50.7961C32.189 49.8583 32.1383 48.9459 31.3784 48.2362C31.2518 48.1095 31.1251 47.9067 30.9985 47.9067C30.3146 47.8814 29.6054 47.856 28.9215 47.9067C28.7442 47.9067 28.5416 48.1348 28.4656 48.3122C28.3136 48.6164 28.2376 48.9459 28.111 49.2754C28.0603 49.4274 27.883 49.5288 27.883 49.6555C27.9083 50.3399 27.7057 51.0242 28.111 51.6832C28.4149 52.1901 28.4402 52.8744 29.0228 53.1786C29.4027 53.3814 29.9347 53.6855 30.2133 53.5588C30.8719 53.3053 31.5051 52.8491 31.961 52.3422C32.2143 52.0634 32.0623 51.4297 32.113 50.9735C32.1383 50.9228 32.113 50.8468 32.113 50.7961Z" fill="white"/>
<path d="M60.1774 50.7961C60.1774 49.9597 60.1774 49.1233 60.1774 48.2615C60.1774 47.932 60.1774 47.6279 60.1774 47.2984C60.1774 46.8675 60.4054 46.6394 60.836 46.614C61.0639 46.614 61.2666 46.614 61.4945 46.614C61.8238 46.5887 61.9505 46.7154 61.9505 47.0703C61.9505 49.3767 61.9505 51.6832 61.9251 53.9643C61.9251 54.167 61.6972 54.5472 61.5705 54.5472C61.1906 54.5979 60.684 54.6233 60.4054 54.4205C59.6455 53.8629 59.1136 53.0772 58.9363 52.114C58.9109 52.0127 58.8603 51.9113 58.7843 51.8606C57.8724 51.379 57.7965 50.4412 57.4419 49.6302C57.3912 49.5541 57.3912 49.4274 57.3152 49.3767C57.1886 49.2753 57.0113 49.1993 56.8846 49.1233C56.8086 49.2753 56.7073 49.4274 56.7073 49.5541C56.682 51.0242 56.682 52.4942 56.7073 53.9643C56.7073 54.4458 56.606 54.6233 56.0741 54.6233C55.5928 54.6233 55.4155 54.4965 55.4155 53.9896C55.4409 51.7339 55.4409 49.4781 55.4155 47.197C55.4155 46.7408 55.5421 46.538 56.0234 46.5887C56.4287 46.614 56.8593 46.538 57.2645 46.614C57.5178 46.6647 57.8978 46.9435 57.8978 47.1463C57.8978 47.9067 58.455 48.3122 58.8096 48.8698C58.9616 49.1233 59.1389 49.4021 59.1642 49.6809C59.2149 50.2892 59.7468 50.4412 60.0254 50.8214C60.0508 50.8468 60.1014 50.8214 60.1774 50.7961Z" fill="white"/>
<path d="M47.0572 46.8422C46.9305 47.8307 46.3733 47.9574 45.6641 47.9067C45.2588 47.8813 44.8282 47.9067 44.4229 47.9067C43.739 47.8813 43.0805 47.8053 42.8272 48.7431C42.7512 49.0726 42.2446 49.2754 42.0673 49.6049C41.662 50.3906 41.7887 51.1763 42.2699 51.9113C42.6752 52.5449 43.2325 53.0265 43.9163 53.28C44.3216 53.432 44.8535 53.4827 45.2335 53.3307C45.8667 53.1025 45.5881 52.4436 45.6134 51.962C45.6387 51.5058 45.2588 51.6578 45.0055 51.6325C44.5496 51.5818 44.3723 51.3284 44.3723 50.8721C44.3723 50.4159 44.5496 50.1371 45.0055 50.1371C45.5627 50.1118 46.12 50.1371 46.6772 50.1371C47.1585 50.1371 47.3864 50.3906 47.3864 50.8721C47.3864 51.8099 47.3358 52.7477 47.4118 53.6602C47.4624 54.2684 47.1332 54.4966 46.7026 54.5979C46.044 54.75 45.3601 54.7754 44.7015 54.8767C43.6377 55.0542 42.8272 54.4205 41.966 54.0403C41.0035 53.6348 40.5982 52.8998 40.6489 51.8606C40.6742 51.4804 40.5222 51.1002 40.4462 50.7454C40.4209 50.6187 40.4209 50.4666 40.4209 50.3399C40.4969 49.7823 40.6235 49.2247 40.6489 48.6924C40.6742 48.2362 40.8008 47.9574 41.3074 47.8813C41.5354 47.8307 41.7634 47.6279 41.89 47.3998C42.1686 46.9182 42.4726 46.6141 43.0805 46.6394C44.1696 46.6648 45.2588 46.6394 46.3479 46.6648C46.6012 46.6394 46.8292 46.7661 47.0572 46.8422Z" fill="white"/>
<path d="M34.6204 50.5934C34.6204 49.4528 34.6457 48.3376 34.6204 47.1971C34.6204 46.7915 34.7217 46.6141 35.1523 46.6395C36.3934 46.6648 37.6599 46.6395 38.901 46.6648C39.2303 46.6648 39.6609 46.6395 39.4836 47.2478C39.4583 47.3491 39.6102 47.5012 39.7116 47.6279C40.2181 48.1602 40.2941 48.5911 39.9395 49.2501C39.7115 49.6556 39.4583 50.0358 39.2303 50.4413C39.1543 50.5934 39.0783 50.7961 39.129 50.9482C39.3823 51.6832 39.6609 52.3929 39.9395 53.1026C40.0661 53.4574 40.2688 53.7869 40.3701 54.1671C40.4208 54.2938 40.3195 54.6233 40.2688 54.6233C39.7622 54.6487 39.205 54.7501 38.749 54.598C38.3438 54.4713 38.0398 54.0404 38.1411 53.5081C38.1665 53.3307 38.1411 53.1533 38.1411 52.9759C38.1411 51.8607 38.0145 51.6325 36.976 51.4805C36.672 51.4298 36.2921 51.6072 36.0135 51.7846C35.8868 51.8607 35.9122 52.1901 35.9122 52.3929C35.9122 52.9252 35.8868 53.4574 35.9122 53.9897C35.9375 54.4713 35.8615 54.7247 35.2789 54.6994C34.747 54.6994 34.6204 54.5219 34.6204 54.015C34.6457 52.8491 34.6204 51.7086 34.6204 50.5934ZM37.0773 47.7547C36.6974 47.9067 36.0895 47.9828 35.9881 48.2362C35.8108 48.7685 35.9122 49.4021 35.9122 49.9851C35.9122 50.0358 35.9882 50.0865 36.0388 50.0865C36.6214 50.0865 37.2293 50.1118 37.7865 50.0358C37.9132 50.0104 38.0651 49.7316 38.1158 49.5289C38.1665 49.3261 38.1411 49.098 38.1158 48.8699C38.1158 47.78 38.3184 47.9067 37.0773 47.7547Z" fill="white"/>
<path d="M54.8586 54.3191C54.5293 54.6486 53.5415 54.826 53.2375 54.5726C53.0602 54.4459 52.9589 54.1671 52.9082 53.939C52.8576 53.6855 52.9336 53.432 52.8829 53.1786C52.8576 53.0519 52.7309 52.8237 52.6549 52.7984C51.8697 52.7224 51.0592 52.5703 50.3246 52.7224C49.9447 52.8237 49.5901 53.4827 49.4128 53.9643C49.2102 54.4966 48.4756 54.9274 48.045 54.5726C47.893 54.4459 47.9437 54.015 47.969 53.7108C47.969 53.5588 48.1463 53.3813 48.121 53.2293C47.9944 52.4182 48.4503 51.8099 48.7289 51.1256C48.9316 50.644 49.0582 50.1118 49.1089 49.5795C49.1848 48.9459 49.3115 48.3883 49.7168 47.8814C49.9194 47.6279 49.97 47.2477 50.122 46.9436C50.1727 46.8422 50.2487 46.6648 50.2993 46.6648C50.9579 46.6648 51.6671 46.5887 52.3003 46.7408C52.5536 46.7915 52.8829 47.3744 52.8576 47.6786C52.8069 48.9966 53.4908 50.0104 53.9974 51.1256C54.0734 51.2777 54.1494 51.4551 54.124 51.6072C54.048 52.5956 54.428 53.432 54.8586 54.3191ZM51.5658 49.5035C51.5911 49.5035 51.6164 49.4781 51.6671 49.4781C51.6671 49.2247 51.7178 48.9459 51.6418 48.7178C51.6164 48.6164 51.3885 48.5403 51.2618 48.4643C51.0592 48.8191 50.7552 49.1233 50.6793 49.5035C50.6033 49.909 50.4006 50.3652 50.6539 50.8214C50.7552 50.9989 50.7806 51.3537 50.9072 51.379C51.1858 51.4551 51.5658 51.4551 51.8191 51.3284C51.9457 51.2523 51.9204 50.8214 51.8951 50.568C51.8191 50.1878 51.6671 49.8583 51.5658 49.5035Z" fill="white"/>
<path d="M65.1674 50.7453C65.1674 49.8582 65.0154 48.9711 65.6486 48.2108C66.0792 47.7038 66.5098 47.2223 66.9657 46.7154C67.0164 46.6647 67.0924 46.6393 67.1683 46.6393C67.9282 46.5379 68.6628 46.4112 69.4227 46.3859C69.9546 46.3859 70.5118 46.4872 71.0184 46.6647C71.221 46.7407 71.4236 47.1462 71.3983 47.349C71.373 47.5518 71.0184 47.8306 70.7904 47.8306C69.9546 47.8813 69.1187 47.8813 68.3082 47.8559C67.8776 47.8559 67.6243 47.9319 67.6749 48.4389C67.7003 48.5909 67.599 48.7684 67.4976 48.9204C67.2443 49.3766 66.9404 49.8329 66.7124 50.2891C66.6364 50.4665 66.6111 50.7453 66.7124 50.9227C67.143 51.8352 67.5736 52.8237 68.6375 53.1531C69.2454 53.3559 69.9292 53.3306 70.5878 53.2799C70.8411 53.2545 71.1197 53.0011 71.2717 53.3306C71.3983 53.6094 71.449 53.9642 71.373 54.2684C71.3224 54.4711 71.069 54.6992 70.8411 54.8006C69.5746 55.3582 68.3841 55.1554 67.295 54.319C66.7124 53.8628 66.1805 53.3306 65.5979 52.8997C65.1167 52.5195 65.218 52.0379 65.1927 51.5564C65.1673 51.3029 65.1674 51.0241 65.1674 50.7453Z" fill="white"/>
<path d="M64.6609 50.5934C64.6609 51.6579 64.6609 52.7224 64.6609 53.8123C64.6609 54.4966 64.4836 54.6487 63.8251 54.674C62.7106 54.6994 62.6599 54.6233 62.6599 53.5081C62.6599 51.4298 62.6852 49.3515 62.6599 47.2731C62.6599 46.7916 62.7866 46.6648 63.2678 46.6648C64.6863 46.6648 64.6863 46.6395 64.6863 48.0588C64.6863 48.4897 64.6863 48.9206 64.6863 49.3768C64.6609 49.757 64.6609 50.1625 64.6609 50.5934Z" fill="white"/>
<path d="M23.197 51.3283C23.4756 50.2385 23.7796 49.1233 24.0835 48.0081C24.1089 47.9067 24.1089 47.78 24.1342 47.6532C24.1596 47.3491 24.0582 46.9182 24.2102 46.7408C24.4888 46.462 24.9194 46.2592 25.3247 46.1578C25.5273 46.1071 25.9326 46.2592 26.0086 46.4366C26.1099 46.7154 26.1352 47.1463 25.9579 47.3491C25.198 48.3376 24.9447 49.4528 24.8434 50.6694C24.6914 52.3422 25.1727 53.7615 25.9832 55.1809C26.1605 55.485 26.1099 55.9919 25.9579 56.3214C25.8313 56.6002 24.7928 56.3468 24.6661 56.0173C24.4382 55.5104 23.9062 55.1048 24.1089 54.4205C24.1342 54.2938 23.9316 54.1164 23.9063 53.9643C23.653 53.1279 23.4503 52.2661 23.197 51.3283Z" fill="white"/>
<path d="M73.7289 54.8007C73.5516 55.1809 73.3236 55.5864 73.1463 55.992C72.9943 56.3468 71.9305 56.6256 71.7532 56.2961C71.6518 56.1187 71.7278 55.7132 71.8798 55.5864C72.3357 55.1809 72.437 54.75 72.437 54.1671C72.437 53.7109 72.589 53.2293 72.7157 52.7477C73.045 51.4298 73.1463 50.1371 72.5637 48.8698C72.4877 48.7178 72.437 48.5404 72.437 48.3629C72.4624 47.7039 72.4117 47.0957 72.0065 46.5127C71.8292 46.2592 71.9811 46.1072 72.2597 46.0818C72.8677 46.0311 73.6022 46.7662 73.7035 47.3745C73.7795 47.9574 74.0328 48.5404 74.1847 49.1233C74.2861 49.4781 74.3874 49.833 74.4127 50.1878C74.4634 50.644 74.3874 51.1003 74.438 51.5565C74.5393 52.4689 74.0075 53.2293 73.8301 54.0657C73.8048 54.3192 73.7795 54.5219 73.7289 54.8007Z" fill="white"/>
<path d="M18.4352 83.9482C18.3845 83.8975 18.1312 83.7708 18.0806 83.5934C17.9539 83.1625 17.8526 82.7063 17.8779 82.2754C17.9033 81.9966 18.1059 81.6164 18.3592 81.4897C18.6885 81.3123 19.1191 81.439 19.347 81.8192C19.5243 82.1487 19.8536 82.6049 19.7776 82.8584C19.575 83.3399 19.3724 83.9736 18.4352 83.9482Z" fill="white"/>
<path d="M68.2577 83.6947C67.8525 83.6947 67.4725 83.6947 67.0673 83.6947C66.6114 83.6947 66.4087 83.4413 66.4087 82.9597C66.4087 82.4781 66.586 82.1993 67.0926 82.1993C67.9031 82.1993 68.7137 82.1993 69.5242 82.1993C70.0308 82.1993 70.2081 82.5035 70.1828 82.985C70.1828 83.4413 69.9548 83.6947 69.4988 83.6947C69.0936 83.7201 68.6883 83.7201 68.2577 83.6947Z" fill="white"/>
<path d="M68.5616 77.9413C68.0803 77.9413 67.3205 77.4598 67.4471 77.2317C67.6244 76.9022 67.9537 76.5727 68.3083 76.4966C68.8402 76.3699 69.4481 76.8515 69.4481 77.2317C69.4228 77.7639 69.2202 77.9413 68.5616 77.9413Z" fill="white"/>
<path d="M78.3896 78.9551C77.883 78.9551 77.351 78.9551 76.8444 78.9551C76.4392 78.9551 76.2113 78.7523 76.1859 78.3721C76.1606 77.9412 76.4392 77.7131 76.8444 77.7131C77.8829 77.7131 78.9468 77.7131 79.9853 77.7131C80.4919 77.7131 80.4412 78.0173 80.4412 78.3468C80.4412 78.6763 80.4919 79.0058 79.9853 78.9804C79.4534 78.9297 78.9215 78.9551 78.3896 78.9551Z" fill="white"/>
<path d="M29.352 82.1994C29.58 82.1994 29.8333 82.1994 30.0612 82.1994C30.4918 82.1994 30.9478 82.0726 30.8971 82.8077C30.8465 83.5173 30.7451 83.6948 30.0359 83.6948C29.4533 83.6948 28.8961 83.6948 28.3135 83.6948C27.8576 83.6948 27.6296 83.4666 27.6296 82.9851C27.6296 82.5035 27.7816 82.2247 28.2882 82.1994C28.6428 82.1994 28.9974 82.1994 29.352 82.1994Z" fill="white"/>
</svg>
