<svg width="97" height="93" viewBox="0 0 97 93" fill="none" xmlns="http://www.w3.org/2000/svg">
<path d="M32.8967 0.71309C33.074 0.71309 33.2513 0.71309 33.4539 0.71309C33.6312 0.814472 33.7832 0.991892 33.9605 1.04258C34.5431 1.16931 35.1257 1.29604 35.7336 1.37208C36.2401 1.42277 36.7467 1.42277 37.2533 1.37208C38.0132 1.32138 38.7478 1.27069 39.4823 1.14397C39.8116 1.09327 40.1155 0.865163 40.4195 0.738435C40.5968 0.738435 40.7741 0.738435 40.9768 0.738435C41.1541 0.839818 41.306 1.01724 41.5086 1.04258C41.8886 1.14397 42.3192 1.27069 42.6991 1.24535C43.4083 1.19466 44.1429 1.04258 44.8521 0.915855C44.9281 0.915855 44.9535 0.789127 45.0294 0.71309C45.2067 0.71309 45.384 0.71309 45.5867 0.71309C45.764 0.814472 45.916 0.991892 46.0933 1.01724C46.4732 1.09327 46.8784 1.16931 47.2584 1.14397C47.9676 1.09327 48.6768 0.991892 49.3861 0.915855C49.462 0.915855 49.538 0.789127 49.614 0.71309C49.842 0.71309 50.0446 0.71309 50.2726 0.71309C50.3232 0.763781 50.3486 0.865163 50.3992 0.865163C51.0831 0.9412 51.767 0.966546 52.4509 1.04258C52.8055 1.06793 53.1855 1.06793 53.5147 1.16931C54.0973 1.34673 55.2624 1.14397 55.6424 0.687744C55.7437 0.687744 55.8703 0.687744 55.9717 0.687744C56.0983 0.789127 56.2502 0.991891 56.3769 0.991891C57.7193 1.01724 59.0871 1.87899 60.4296 1.04258C60.4549 1.01724 60.5056 1.04258 60.5309 1.04258C61.1895 1.06793 61.8481 1.11862 62.5066 1.14397C62.9879 1.16931 63.4691 1.11862 63.7984 0.71309C64.4823 0.71309 65.1915 0.71309 65.8754 0.71309C66.2046 0.839818 66.534 1.01724 66.8632 1.09327C67.4965 1.24535 68.1297 1.44811 68.7629 1.44811C69.2948 1.44811 69.8521 1.19466 70.384 1.04258C70.5613 0.991892 70.7386 0.839818 70.8906 0.71309C71.0425 0.71309 71.1692 0.71309 71.3211 0.71309C71.3465 0.789127 71.3465 0.890509 71.3718 0.890509C71.9797 1.09327 72.5623 1.37208 73.1702 1.44811C73.8794 1.52415 74.6393 1.62553 75.2979 1.14397C75.4499 1.04258 75.6778 1.01724 75.8551 1.04258C76.3617 1.06793 76.8683 1.11862 77.3495 1.14397C77.9068 1.16931 78.4387 1.14397 78.9959 1.14397C79.3758 1.14397 79.7558 1.11862 80.1357 1.14397C80.4903 1.14397 80.8449 1.19466 81.1995 1.22C81.5035 1.24535 81.8581 1.34673 82.0861 1.22C82.5167 1.01724 82.8713 0.991892 83.2259 1.27069C83.5045 1.47346 83.8085 1.4988 84.0871 1.27069C84.3911 1.04258 84.6696 1.04258 84.9989 1.29604C85.3282 1.5495 85.7082 1.57484 86.0881 1.32138C86.5947 0.966545 87.1266 0.966546 87.6585 1.27069C88.1651 1.5495 88.6717 1.60019 89.153 1.24535C89.4822 1.01724 89.7862 0.991891 90.1155 1.29604C90.2168 1.39742 90.47 1.44811 90.5714 1.39742C91.0779 1.04258 91.5339 1.14397 92.0405 1.37208C92.2684 1.47346 92.5218 1.4988 92.775 1.47346C93.8389 1.44811 94.624 1.98037 95.2066 2.79143C95.6625 3.39973 95.9412 4.05871 95.8146 4.92046C95.7132 5.60479 95.8905 6.33982 96.0171 7.0495C96.0931 7.45502 96.2958 7.86055 96.4224 8.26608C96.4224 9.20387 96.4224 10.167 96.4224 11.1048C96.3464 11.2062 96.1945 11.3076 96.1691 11.4343C96.0932 11.7638 96.0172 12.0933 96.0425 12.4481C96.0678 13.1831 95.7385 13.8928 95.9665 14.6532C96.0678 14.9573 95.9665 15.3122 95.9665 15.6417C95.9918 16.6555 95.9918 17.644 96.0171 18.6578C96.0171 19.19 96.2451 19.7983 96.0425 20.2039C95.4599 21.2937 96.3464 22.4089 95.8905 23.4735C95.8652 23.5241 95.9665 23.6002 95.9665 23.6762C95.9412 24.5126 95.7639 25.349 96.0931 26.1601C96.0931 26.1854 96.0931 26.1854 96.0931 26.2108C96.0678 27.1993 95.9158 28.2131 96.0171 29.1762C96.1185 30.3168 96.0931 31.4066 95.7132 32.4965C95.6625 32.6486 95.7385 32.8513 95.7892 33.0034C95.9665 33.5103 96.1944 33.9919 96.0171 34.6002C95.8652 35.1578 95.8145 35.7914 95.9158 36.3744C96.0172 37.008 96.1945 37.6163 95.9919 38.2753C95.8905 38.6555 95.8145 39.0357 95.7386 39.4158C95.7132 39.644 95.7385 39.8721 95.7638 40.0748C95.8652 40.8352 96.0425 41.5956 96.0678 42.3559C96.0932 43.4965 95.9158 44.637 96.0171 45.7776C96.0931 46.6394 96.0172 47.4251 95.7132 48.2361C95.6119 48.4896 95.5359 48.8698 95.6626 49.0979C96.0425 49.7822 96.0931 50.4919 96.0931 51.2269C96.0931 52.7223 96.0172 54.1923 95.9919 55.6877C95.9919 56.1947 96.1185 56.7016 96.0678 57.1831C95.9665 58.2476 95.8399 59.2868 96.0425 60.3767C96.1438 60.9596 96.0425 61.644 95.8652 62.2269C95.6626 62.8352 95.6119 63.3675 95.7892 63.9504C96.1438 65.1417 96.2198 66.3076 95.6879 67.4988C95.4853 67.9297 95.3839 68.4619 95.7638 68.8675C96.1185 69.2223 96.1185 69.6532 96.0931 70.0841C96.0425 71.1486 95.9412 72.2131 95.8905 73.2523C95.8905 73.4297 95.9412 73.6071 95.9412 73.7845C95.9919 74.2914 96.0931 74.773 96.0931 75.2799C96.0931 76.2684 95.9918 77.2569 96.0171 78.2707C96.0171 78.4735 96.2958 78.7016 96.4224 78.9043C96.4224 79.2592 96.4224 79.6394 96.4224 79.9942C96.3211 80.0702 96.1438 80.1463 96.1438 80.2476C96.1185 80.8559 96.0932 81.4642 96.1185 82.0725C96.1185 82.1993 96.3211 82.3006 96.4224 82.4274C96.4224 83.9481 96.4224 85.4942 96.4224 87.0149C96.3211 87.3444 96.1185 87.6486 96.1185 87.9781C96.1185 88.9665 96.0931 89.9043 95.4599 90.7407C95.156 91.1463 94.928 91.6532 94.3201 91.7292C94.0668 91.7546 93.8389 91.8559 93.5856 91.8813C92.9523 91.9573 92.2938 92.0334 91.6605 92.0334C91.0273 92.0334 90.3688 91.9066 89.7355 91.8306C89.5836 91.8053 89.4062 91.8559 89.2542 91.8559C88.9503 91.8559 88.6463 91.8813 88.3677 91.8306C87.7092 91.7039 87.1012 91.6278 86.5187 92.0334C86.1894 92.2361 85.8601 92.2108 85.4549 91.9827C84.543 91.4758 83.6059 91.349 82.6434 91.932C82.3647 92.0841 81.9848 92.1854 81.6808 92.1347C81.1742 92.0587 80.6423 91.8813 80.1611 91.6785C79.4012 91.3237 78.7426 91.7799 78.0587 91.8813C77.6535 91.932 77.2735 92.1854 76.8936 92.1601C76.235 92.1347 75.6018 91.9827 74.9432 91.8559C74.234 91.7039 73.4488 91.8306 72.7902 91.3744C72.6129 91.2476 72.2584 91.273 72.0557 91.349C71.3718 91.6278 70.6879 91.9827 70.004 92.3122C69.9027 92.3122 69.7761 92.3122 69.6747 92.3122C69.3201 92.1347 68.9909 91.8813 68.6109 91.7799C68.1043 91.6278 67.5724 91.5518 67.0405 91.4758C66.4579 91.3997 65.85 91.273 65.2675 91.349C64.5076 91.4251 63.773 91.7799 62.9878 91.8306C61.8227 91.9066 60.6575 91.8559 59.4924 91.8559C58.9352 91.8559 58.3273 91.7799 57.8207 91.9827C57.1621 92.2361 56.6049 92.2108 55.9717 91.932C55.2371 91.6025 54.4772 91.349 53.6667 91.7039C53.4134 91.8053 53.0841 91.8052 52.8055 91.7292C51.7417 91.4758 50.7538 91.6532 49.8673 92.2868C49.7153 92.2868 49.5887 92.2868 49.4367 92.2868C49.2847 92.2108 49.1327 92.1347 48.9808 92.0587C47.9423 91.6025 46.9038 91.3744 45.84 92.008C45.4347 92.2361 45.0294 92.1854 44.6241 91.9827C44.1176 91.7546 43.5857 91.5771 43.0537 91.3997C42.9524 91.3744 42.8004 91.3997 42.6991 91.4504C42.0659 91.6785 41.4326 91.9066 40.7994 92.1094C40.5714 92.1854 40.2928 92.2108 40.1155 92.1347C39.381 91.7799 38.6211 91.6785 37.8106 91.7039C37.5573 91.7039 37.2787 91.6025 37.0254 91.6025C36.2908 91.6278 35.5563 91.7546 34.847 91.6785C34.1885 91.6025 33.6059 91.5771 33.0233 91.9066C32.846 92.008 32.5674 92.008 32.3395 92.0334C31.3516 92.0587 30.4904 91.5518 29.5279 91.3997C28.7934 91.2983 28.2868 91.3744 27.8056 91.8813C27.5016 92.2108 27.1216 92.2361 26.8177 91.9066C26.5137 91.6025 26.2098 91.6278 25.8805 91.7546C25.5512 91.8813 25.222 92.084 24.8927 92.2361C24.7914 92.2361 24.6647 92.2361 24.5634 92.2361C24.1581 91.7799 23.6009 91.8559 23.0437 91.7799C21.8532 91.5771 20.7387 91.8559 19.6495 92.2361C19.6242 92.2361 19.5735 92.2361 19.5482 92.2361C18.7883 92.0334 17.9778 91.9573 17.2939 91.6278C16.4074 91.197 15.6222 91.6278 14.8623 91.8559C13.9251 92.1347 13.1146 92.2868 12.2534 91.8053C12.1267 91.7292 11.9494 91.7039 11.7974 91.7039C11.3162 91.7039 10.8603 91.6785 10.4043 91.9827C10.075 92.1854 9.59384 92.1601 9.18857 92.2361C9.11259 92.2361 9.03656 92.2361 8.96057 92.2361C8.83393 92.1601 8.68199 92.084 8.55534 92.008C7.9981 91.6025 7.59283 91.5771 7.03559 91.9066C6.85828 92.008 6.60499 92.1094 6.40236 92.1094C5.46518 92.0587 4.50261 92.0334 3.56543 91.8813C2.62825 91.7292 1.74173 91.3744 1.2858 90.4873C1.00718 89.955 0.779242 89.3721 0.677925 88.8145C0.551279 88.1808 0.272682 87.4711 0.829925 86.8375C0.931242 86.7108 0.829888 86.3559 0.728571 86.1532C0.348633 85.4435 0.323291 84.7338 0.652571 84.0495C1.00718 83.2638 1.03252 82.5288 0.601925 81.7937C0.373962 81.3882 0.37395 81.0587 0.652571 80.7546C0.956522 80.4251 0.855255 80.1209 0.829925 79.7661C0.753938 78.9043 0.525937 77.9919 0.728571 77.2062C0.956534 76.2177 0.804559 75.4066 0.348633 74.5702C0.348633 74.4942 0.348633 74.4182 0.348633 74.3421C0.905876 73.8605 1.18451 73.3029 0.804571 72.5679C0.753913 72.4919 0.804571 72.3905 0.804571 72.2891C0.829901 71.4274 0.905864 70.5656 0.905864 69.7039C0.905864 69.3237 0.804547 68.9182 0.652571 68.5887C0.449937 68.1578 0.44995 67.8029 0.728571 67.3721C0.905876 67.0933 1.05788 66.6877 1.00722 66.3836C0.880571 65.5979 0.525937 64.8122 1.10851 64.0518C1.13384 64.0011 1.15919 63.8997 1.13386 63.849C0.779255 63.3675 0.981888 62.9619 1.26051 62.5311C1.36183 62.4043 1.3618 62.1762 1.3618 62.0241C1.31114 61.1371 1.26051 60.2246 1.13386 59.3375C1.03255 58.6785 0.753938 58.0195 0.576633 57.3605C0.525975 57.1831 0.525937 56.9297 0.601925 56.7523C0.880547 56.1186 1.03253 55.5103 0.931218 54.8006C0.880559 54.3444 1.05788 53.8629 1.13386 53.3813C1.18452 53.0011 1.2858 52.6463 1.2858 52.2661C1.26047 51.3029 1.18449 50.3652 1.15916 49.402C1.13383 48.591 1.28581 47.7292 1.10851 46.9435C0.981864 46.2592 0.779267 45.6762 1.20986 45.0426C1.26052 44.9665 1.23519 44.7891 1.20986 44.6877C1.08322 44.2062 0.956547 43.7246 0.804571 43.2684C0.677925 42.8882 0.525962 42.5334 0.373987 42.1532C0.373987 41.7983 0.373987 41.4182 0.373987 41.0633C0.475304 40.7085 0.627292 40.3536 0.703279 39.9735C0.855255 39.1624 0.905876 38.3006 1.10851 37.4896C1.20983 37.0587 1.20986 36.7292 1.08322 36.3237C0.829925 35.4619 0.77923 34.5748 1.23516 33.7131C1.3618 33.4596 1.3618 33.0288 1.23516 32.75C0.677913 31.508 0.728571 30.2914 1.10851 29.0241C1.1845 28.796 1.18449 28.5679 1.15916 28.3145C1.1085 27.8329 0.981901 27.3767 0.956572 26.8951C0.905913 25.8559 0.855218 24.7914 0.855218 23.7523C0.855218 23.4988 0.981851 23.2453 1.03251 22.9919C1.05784 22.8145 1.13388 22.6117 1.08322 22.4596C0.829925 21.4458 0.931218 20.4573 1.18451 19.4942C1.31116 19.0633 1.38712 18.6578 1.03251 18.2269C0.905864 18.0748 0.905864 17.6186 1.03251 17.4665C1.46311 17.0357 1.38713 16.5288 1.3618 16.0472C1.3618 15.5149 1.31117 15.008 1.26051 14.4758C1.23518 14.273 1.18449 14.0956 1.15916 13.8928C1.03251 12.8536 0.753901 11.7891 0.855218 10.75C0.981864 9.45733 0.855205 8.19005 0.905864 6.92277C0.931193 6.21309 0.703267 5.50341 1.00722 4.81908C1.13386 4.51493 1.23517 4.18544 1.31116 3.85595C1.66577 2.53797 2.45095 1.72691 3.81873 1.4988C4.4013 1.42277 4.95855 1.27069 5.54113 1.19466C5.71843 1.16931 5.89576 1.22 6.07306 1.22C6.32636 1.24535 6.57962 1.24535 6.80759 1.27069C7.06088 1.29604 7.36487 1.27069 7.54217 1.39742C7.89678 1.67622 8.22605 1.5495 8.60599 1.47346C9.36587 1.34673 10.1257 1.19466 10.8856 1.19466C11.6708 1.19466 12.456 1.5495 13.2665 1.29604C14.381 0.9412 15.5462 1.22 16.686 1.19466C17.1419 1.16931 17.6232 1.27069 18.0791 1.29604C18.535 1.32138 19.0163 1.34673 19.3203 0.865163C19.4722 0.865163 19.5989 0.865163 19.7509 0.865163C19.9028 0.966546 20.0548 1.19466 20.2068 1.19466C20.8907 1.22 21.5745 1.16931 22.2584 1.14397C22.5117 1.14397 22.7904 1.01724 22.993 1.09327C23.6769 1.37208 24.3354 1.34673 25.0446 1.16931C25.2726 1.09327 25.5766 1.04258 25.7792 1.11862C26.6404 1.47346 27.4762 1.29604 28.3374 1.14397C28.4894 1.11862 28.6668 1.06793 28.8187 1.09327C29.376 1.24535 29.9079 1.42277 30.4398 1.57484C30.5918 1.60019 30.7437 1.60019 30.8957 1.5495C31.3516 1.44811 31.7822 1.32138 32.2128 1.19466C32.5928 0.966545 32.7447 0.814472 32.8967 0.71309ZM10.379 32.1163C10.4044 32.1163 10.455 32.1163 10.4803 32.1163C10.4297 32.5472 10.3537 32.9781 10.3284 33.4089C10.3031 34.4735 9.74577 35.5887 10.531 36.6278C10.607 36.7292 10.5816 36.9573 10.531 37.1094C10.1257 38.7062 10.1764 40.3536 10.1004 41.9758C10.0751 42.3559 9.9991 42.7361 9.9991 43.091C9.9991 43.7246 9.89774 44.3329 10.2777 44.9412C10.607 45.4481 10.531 46.0057 10.4297 46.5887C10.2524 47.6025 9.99906 48.6923 10.151 49.6808C10.3283 50.7707 10.5057 51.8352 10.4297 52.9504C10.4044 53.3306 10.607 53.7361 10.5057 54.0656C10.2777 54.9274 10.6829 55.5864 11.0376 56.2707C11.7214 57.538 12.4813 58.7292 13.5198 59.743C14.4317 60.6555 15.3182 61.6186 16.3061 62.455C17.2686 63.2407 18.3324 63.8997 19.3456 64.6094C20.8906 65.6993 22.6131 66.4089 24.3861 67.0172C25.5259 67.4228 26.7417 67.7016 27.9322 67.9297C29.376 68.2085 30.845 68.4873 32.3141 68.538C34.6191 68.5887 36.9494 68.4619 39.2544 68.3352C40.4702 68.2592 41.6606 68.0311 42.8511 67.8283C43.8389 67.6509 44.8015 67.3974 45.764 67.1693C48.2716 66.561 50.7792 65.9527 53.2614 65.3698C54.2999 65.1163 55.3384 64.8629 56.3769 64.6601C57.5167 64.4573 58.6819 64.3306 59.8217 64.2039C61.1388 64.0518 62.456 63.8237 63.7731 63.7983C65.3688 63.773 66.9899 63.849 68.5856 64.0011C70.0801 64.1532 71.5745 64.3053 73.0182 64.6854C74.8166 65.167 76.615 65.6486 78.2614 66.561C79.9838 67.4734 81.6555 68.4112 83.0739 69.7546C84.0618 70.6923 84.999 71.7062 85.9868 72.644C86.1641 72.8214 86.4174 72.8974 86.6453 73.0241C86.6707 72.796 86.7214 72.5426 86.7467 72.3145C86.772 72.2131 86.7467 72.0864 86.7467 71.985C86.772 70.9711 86.8226 69.9573 86.848 68.9435C86.848 68.8421 86.8987 68.7661 86.8733 68.69C86.8733 68.3859 86.8227 68.0564 86.8227 67.7523C86.8227 67.4735 86.7467 67.1186 86.8733 66.8905C87.1519 66.4596 87.1266 66.0794 86.924 65.6486C86.7213 65.243 86.6453 64.8629 86.924 64.432C87.1773 64.0518 87.1013 63.6209 87 63.1647C86.7973 62.2269 86.5947 61.2891 86.5187 60.326C86.468 59.4642 86.5947 58.6025 86.5947 57.7407C86.5947 56.8029 86.6707 55.8905 86.9746 54.9781C87.0759 54.6993 87 54.3191 86.8733 54.0656C86.3921 53.2292 87.0253 52.3421 86.6707 51.5057C86.6453 51.4804 86.696 51.4043 86.7213 51.3536C87.2786 50.6186 87.1519 49.7315 87.1266 48.8951C87.1266 47.5011 87 46.1324 86.924 44.7384C86.8986 44.2062 86.848 43.6993 86.7973 43.167C86.696 41.9758 86.4934 40.7592 86.924 39.5679C87 39.3398 86.924 39.0357 86.848 38.7822C86.7213 38.4527 86.5441 38.0979 86.8227 37.7937C87.2279 37.3375 87.1519 36.9066 86.8986 36.4251C86.62 35.8675 86.468 35.2845 86.7213 34.6762C87.3039 33.2315 87.1773 31.7615 87.0506 30.2661C87 29.7338 87.1012 29.2016 87.1519 28.644C87.1772 28.1877 87.3292 27.7315 87.2786 27.3006C87.1519 26.0841 86.8733 24.8675 87.1773 23.6762C87.3292 23.0679 87.2026 22.5357 86.924 22.0541C86.696 21.6739 86.7213 21.3951 86.8986 20.9896C87.3799 19.9251 87.2786 18.8099 87 17.72C86.848 17.1371 86.4934 16.6048 86.7973 15.9965C86.9746 15.667 87.1519 15.3375 87.2786 14.9827C87.5572 14.2223 87.8105 13.4619 87.4052 12.6509C87.2786 12.4228 87.2026 12.144 87.1773 11.8905C87.0759 10.902 86.544 10.1417 85.5815 10.0149C84.5177 9.88821 83.4286 9.78682 82.3141 10.0149C81.3769 10.2177 80.389 10.2177 79.4265 10.2937C78.9199 10.3191 78.4134 10.3191 77.8814 10.2937C77.5268 10.2937 77.1975 10.2937 76.8429 10.2684C76.311 10.1924 75.8044 9.98959 75.2725 9.98959C74.6393 10.0149 74.0061 10.2937 73.3728 9.86286C73.3222 9.83751 73.2209 9.91355 73.1195 9.91355C72.5876 9.98959 72.0557 10.167 71.5491 10.1417C70.8399 10.091 70.156 9.8882 69.4468 9.78682C68.8389 9.68544 68.155 9.40664 67.5978 9.55871C66.2553 9.91355 64.9129 9.96424 63.5451 9.9389C61.5187 9.91355 59.5177 9.98959 57.5167 9.55871C56.6302 9.38129 55.5917 9.58406 54.6292 9.53337C53.6414 9.48267 52.6282 9.78682 51.6403 9.78682C50.7285 9.78682 49.842 9.55871 48.9301 9.48268C47.0558 9.3306 45.232 9.63475 43.4083 9.96424C42.4205 10.1417 41.4833 10.3698 40.4702 9.96424C39.9129 9.73613 39.229 9.78682 38.5958 9.81217C37.8359 9.83751 37.0507 9.96424 36.2909 10.0149C35.8603 10.0403 35.4296 9.91355 34.999 9.91355C33.7832 9.8882 32.5674 9.91355 31.3263 9.88821C30.997 9.88821 30.6678 9.73613 30.3385 9.71078C29.9079 9.66009 29.4519 9.63475 29.0213 9.6094C28.8947 9.6094 28.768 9.71079 28.6667 9.66009C27.9069 9.38129 27.1723 9.6601 26.4631 9.86286C25.3233 10.2177 24.2088 10.0656 23.1197 9.66009C22.6891 9.50802 22.3344 9.50802 21.9038 9.68544C21.5999 9.81217 21.2453 9.76148 20.8907 9.78682C20.5867 9.81217 20.2828 9.83751 20.0041 9.88821C19.7509 9.9389 19.4975 10.091 19.2696 10.091C18.6617 10.0403 18.0791 9.91355 17.4712 9.78682C16.7873 9.66009 16.1541 9.3306 15.3942 9.55871C14.7103 9.76148 13.9505 9.78682 13.2413 9.88821C12.6587 9.98959 12.0508 10.091 11.4682 10.2177C10.759 10.3698 10.379 10.8767 10.2524 11.5103C10.1004 12.296 10.0498 13.1071 9.9991 13.9182C9.94844 14.5265 9.92308 15.1347 9.97374 15.743C10.0497 16.7822 10.227 17.8467 10.303 18.8859C10.3537 19.3928 10.2524 19.9251 10.3537 20.4066C10.455 20.9642 10.5816 21.4965 10.3537 22.0794C10.303 22.2315 10.3284 22.4343 10.379 22.5864C10.6577 23.4988 10.759 24.4112 10.4297 25.3237C10.227 25.8559 10.2524 26.3882 10.3537 26.9712C10.5057 27.7822 10.531 28.6693 10.5057 29.5057C10.607 30.5195 10.455 31.3306 10.379 32.1163ZM18.3324 78.6255C18.4084 78.6509 18.4844 78.6509 18.5604 78.6762C18.611 78.8029 18.687 78.9297 18.7123 79.0564C18.763 79.6394 18.7883 80.2476 18.839 80.8306C18.8643 81.4389 18.9656 82.0472 18.915 82.6555C18.7883 83.9228 19.0163 83.9734 19.8775 83.8974C20.4094 83.8721 20.5614 83.644 20.4347 83.137C20.3841 82.9343 20.3841 82.7569 20.3841 82.5541C20.3841 81.9205 20.4094 81.2615 20.3587 80.6278C20.3081 79.9435 20.2067 79.2845 20.1561 78.6002C20.1054 77.7384 20.1054 76.8767 20.0294 76.0149C20.0041 75.8375 19.8015 75.5587 19.6495 75.5334C19.2696 75.4573 18.839 75.432 18.459 75.5334C18.2057 75.5841 17.8511 75.8375 17.7752 76.0656C17.2939 77.485 16.8886 78.955 16.4327 80.3744C16.382 80.5771 16.2554 80.7292 16.1541 80.932C16.0021 80.7799 15.8754 80.6025 15.7235 80.4251C15.6728 80.3744 15.6729 80.2983 15.6475 80.2223C15.2929 78.9804 14.9383 77.7384 14.5584 76.4965C14.2544 75.4827 14.229 75.4827 13.1905 75.4827C12.3293 75.4827 12.1774 75.6601 12.1521 76.5472C12.1268 77.4089 12.1014 78.2707 12.0507 79.1578C11.9494 80.5265 11.8228 81.8698 11.7468 83.2384C11.7215 83.796 11.9748 84.0241 12.532 83.9735C12.912 83.9228 13.2412 83.7707 13.2665 83.2638C13.2919 82.0472 13.3172 80.8306 13.3932 79.6394C13.4185 79.3352 13.5452 79.0564 13.6212 78.7776C13.6718 78.7776 13.7478 78.7776 13.7985 78.7776C13.8998 79.0564 14.0518 79.3099 14.1278 79.5887C14.5077 80.8559 14.837 82.1486 15.2422 83.4158C15.3182 83.644 15.7235 83.8721 15.9768 83.8974C16.2301 83.8974 16.6353 83.6693 16.7366 83.4665C17.1166 82.4274 17.4205 81.3628 17.7498 80.3237C17.9271 79.7407 18.1298 79.1831 18.3324 78.6255ZM65.1155 79.69C65.0648 79.3605 65.0395 78.955 64.9635 78.5495C64.7862 77.5357 64.3303 76.6739 63.4691 76.0403C62.7092 75.508 61.848 75.3052 60.9361 75.4066C59.8723 75.508 58.9605 75.9389 58.3019 76.8513C57.4661 78.0172 57.2635 79.3099 57.4408 80.7039C57.5674 81.6163 57.922 82.5034 58.5806 83.137C59.8977 84.4043 61.7214 84.5564 63.2918 83.5933C64.6849 82.7062 65.0395 81.2868 65.1155 79.69ZM66.078 79.7914C66.078 80.9573 66.078 82.1232 66.078 83.2891C66.078 83.72 66.23 83.9481 66.6859 83.9228C66.8632 83.9228 67.0912 83.9734 67.2178 83.8974C67.4204 83.796 67.6991 83.5679 67.6991 83.3905C67.7244 82.7062 67.6738 82.0218 67.6231 81.3375C67.5724 80.8052 67.9524 80.4504 68.4843 80.5518C69.3455 80.7292 69.7508 81.4135 69.8521 82.2753C69.9027 82.7822 70.1054 83.3145 70.3587 83.7707C70.4347 83.9228 70.8906 83.8721 71.1692 83.8974C71.7518 83.9481 71.9291 83.7453 71.7771 83.1877C71.6504 82.7315 71.5238 82.2753 71.3718 81.8191C71.2452 81.4389 71.1945 81.0334 70.9666 80.7292C70.3587 79.8928 70.4853 79.9435 71.0678 79.3352C71.6251 78.7523 71.8277 78.0679 71.5998 77.2822C71.3465 76.3698 70.7639 75.7615 69.8521 75.6347C68.9656 75.508 68.0537 75.508 67.1418 75.508C66.2553 75.5334 66.1034 75.7361 66.1034 76.6232C66.078 77.6877 66.078 78.7523 66.078 79.7914ZM34.8977 80.0449C34.9231 80.0449 34.9484 80.0449 34.999 80.0449C34.999 81.1601 34.999 82.2753 34.999 83.3652C34.999 83.5172 35.0497 83.796 35.1003 83.796C35.4803 83.8467 35.8602 83.9228 36.2149 83.8467C36.3668 83.8214 36.5188 83.4412 36.5188 83.2384C36.5188 82.6048 36.4428 81.9711 36.4428 81.3375C36.4428 81.008 36.4681 80.7039 36.8987 80.6025C37.456 80.4504 38.0385 80.6278 38.2918 81.1854C38.5705 81.8191 38.8491 82.4781 38.9251 83.137C39.0011 83.796 39.381 83.8974 39.8369 83.9735C40.5208 84.1002 40.7487 83.796 40.5461 83.137C40.4701 82.8836 40.4448 82.6048 40.3688 82.3513C40.1915 81.7684 40.0902 81.1601 39.7862 80.6532C39.3556 79.9688 39.2543 79.9942 39.8622 79.4366C40.9261 78.4481 40.7488 76.1923 38.9757 75.6601C37.9119 75.3559 36.8734 75.508 35.8096 75.508C35.4043 75.508 34.9737 75.7361 34.9737 76.2684C34.8977 77.561 34.8977 78.8029 34.8977 80.0449ZM53.3121 78.7523C53.2361 78.7269 53.1348 78.7016 53.0588 78.6762C53.0081 78.4228 52.9068 78.1693 52.9068 77.9158C52.9068 77.3075 52.9828 76.6993 52.9828 76.091C52.9828 75.5841 52.7295 75.508 51.9443 75.508C51.4883 75.508 51.3617 75.7361 51.3617 76.1417C51.3617 78.5241 51.3617 80.9066 51.3617 83.2891C51.3617 83.796 51.5644 83.9735 52.1723 83.9735C52.7802 83.9988 53.0081 83.796 53.0081 83.2638C53.0081 82.5794 52.9575 81.9205 53.0334 81.2361C53.0588 80.9827 53.312 80.7546 53.464 80.5011C53.6667 80.6278 53.9706 80.7292 54.0973 80.932C54.5532 81.667 54.9838 82.4274 55.4144 83.1877C55.5917 83.5172 55.7437 83.8721 56.1996 83.8721C56.6049 83.8721 57.0355 83.8721 57.5674 83.8721C57.4661 83.5933 57.4154 83.3652 57.3141 83.1877C56.6049 82.0472 55.845 80.9066 55.1358 79.7661C54.8825 79.3605 54.7559 78.955 55.2118 78.5748C55.3384 78.4734 55.389 78.3214 55.4904 78.1946C56.0729 77.4596 56.6808 76.7246 57.2634 75.9642C57.3394 75.8629 57.3141 75.5587 57.2381 75.4827C56.9595 75.2799 55.7437 75.4827 55.5157 75.7615C55.0598 76.3444 54.6039 76.9527 54.1733 77.561C53.844 77.9919 53.5907 78.3721 53.3121 78.7523ZM47.4864 84.0241C47.993 84.0241 48.2969 83.6946 48.1702 83.3145C47.7903 82.1993 47.4104 81.1094 47.0558 79.9942C46.6252 78.6762 46.2452 77.3582 45.7893 76.0403C45.7133 75.8122 45.384 75.6347 45.1307 75.5334C44.9281 75.4573 44.6748 75.508 44.4215 75.508C43.7883 75.508 43.5856 75.6854 43.4083 76.2937C43.0791 77.4343 42.7498 78.5748 42.3952 79.7154C42.0406 80.9066 41.6353 82.0725 41.2807 83.2638C41.1287 83.7453 41.2554 83.8974 41.7366 83.8974C42.7245 83.9228 42.7245 83.9228 42.9777 82.9343C43.307 81.667 43.3577 81.6163 44.6748 81.6163C44.7761 81.6163 44.9028 81.6163 45.0041 81.6163C45.7893 81.6163 45.9666 81.743 46.1439 82.5287C46.1946 82.7315 46.2199 82.9089 46.2705 83.0864C46.4479 83.8214 46.7265 84.0241 47.4864 84.0241ZM24.6141 75.508C23.6262 75.508 23.6262 75.508 23.3222 76.4712C23.1703 76.902 23.0689 77.3582 22.9423 77.7891C22.3597 79.6394 21.7772 81.5149 21.22 83.3652C21.1693 83.4919 21.3466 83.8467 21.4733 83.8721C22.4611 84.1002 22.841 83.8467 23.0183 82.8582C23.2716 81.5656 23.4489 81.5656 24.5128 81.591C25.8046 81.6417 25.7538 81.3375 26.2351 82.8836C26.5644 83.8974 26.5644 83.8974 27.6282 83.8974C28.1854 83.8974 28.2362 83.8214 28.0589 83.2891C27.7296 82.3006 27.4003 81.3122 27.071 80.2983C26.6657 79.0057 26.2858 77.6877 25.8552 76.3951C25.5259 75.508 25.5259 75.508 24.6141 75.508ZM85.1763 83.4665C84.999 82.8836 84.847 82.3767 84.695 81.8444C84.1377 80.1209 83.5805 78.3721 82.9979 76.6486C82.5673 75.3813 82.7446 75.5587 81.4528 75.508C80.8956 75.4827 80.6423 75.7615 80.4904 76.243C80.3131 76.8006 80.1357 77.3582 79.9584 77.9158C79.4012 79.7154 78.8439 81.5149 78.312 83.3145C78.2614 83.4665 78.312 83.7707 78.4133 83.8721C78.8186 84.2523 79.8064 83.8721 79.9331 83.3398C80.0344 82.9089 80.1864 82.5034 80.3384 82.0725C80.4397 81.7684 80.6677 81.6163 80.997 81.6417C81.2249 81.667 81.4275 81.6417 81.6555 81.6417C82.77 81.6417 82.8207 81.4389 83.2766 82.8582C83.3272 83.0103 83.3779 83.1624 83.4032 83.3145C83.4539 83.7453 83.7325 83.8974 84.1124 83.9988C84.695 84.1255 85.1763 83.8467 85.1763 83.4665ZM75.1965 83.9228C75.8298 83.9228 76.463 83.9228 77.0962 83.9228C77.4508 83.9228 77.7548 83.8721 77.8561 83.4919C77.9321 83.1624 77.5522 82.6301 77.1976 82.6301C76.615 82.6301 76.0324 82.6301 75.4752 82.7315C74.6646 82.8582 74.2594 82.5541 74.2594 81.7684C74.2594 81.591 74.2594 81.4135 74.2594 81.2108C74.2594 80.3744 74.6646 80.0702 75.4752 80.2223C75.9311 80.2983 76.4124 80.3237 76.8683 80.3237C77.2989 80.2983 77.4002 79.9435 77.4002 79.5887C77.4002 79.2592 77.2735 79.0057 76.8429 79.0311C76.463 79.0564 76.083 79.0311 75.7031 79.0311C74.0314 79.0311 74.2594 79.1831 74.2594 77.4596C74.2594 77.4343 74.2594 77.4343 74.2594 77.4089C74.2847 77.0287 74.462 76.902 74.8419 76.9274C75.5258 76.9527 76.2097 76.9527 76.9189 76.9527C77.4002 76.9527 77.6028 76.7246 77.5522 76.243C77.5268 75.8122 77.4255 75.5334 76.8936 75.5334C75.7284 75.5587 74.5633 75.5334 73.3982 75.5334C72.7143 75.5334 72.613 75.6347 72.613 76.3191C72.613 77.5103 72.613 78.7016 72.613 79.8675C72.613 81.008 72.613 82.1232 72.613 83.2638C72.613 83.6946 72.7396 83.9734 73.2715 83.9481C73.9301 83.8974 74.5633 83.9228 75.1965 83.9228ZM31.4276 75.508C30.8703 75.508 30.2878 75.5334 29.7305 75.508C29.2746 75.4827 29.0467 75.6094 29.072 76.1417C29.1227 76.9274 29.072 77.7131 29.072 78.4988C29.072 80.1209 29.072 81.743 29.072 83.3652C29.072 83.8214 29.3506 84.0241 29.7053 84.0241C30.0345 83.9988 30.5917 84.0748 30.6171 83.4919C30.6424 82.7569 30.6424 81.9965 30.5918 81.2615C30.5664 80.7292 30.7184 80.4504 31.2503 80.4504C31.8582 80.4504 32.4408 80.4504 33.0487 80.4504C33.5806 80.4504 33.6312 80.0195 33.6566 79.6647C33.6819 79.3352 33.4793 79.1071 33.074 79.1324C32.4914 79.1578 31.9089 79.1324 31.3263 79.1324C30.8704 79.1324 30.5664 78.9804 30.6171 78.4481C30.6424 78.1693 30.6424 77.8905 30.6171 77.637C30.5917 77.1555 30.7691 76.9274 31.2757 76.9527C31.8836 76.9781 32.5168 76.9781 33.1247 76.9527C33.6819 76.9527 33.7832 76.8006 33.7832 76.167C33.7832 75.6854 33.5806 75.5334 33.1247 75.5334C32.5675 75.508 32.0102 75.508 31.4276 75.508Z" fill="white"/>
<path d="M66.5593 40.962C66.5086 39.8721 66.4579 38.8076 66.4073 37.7178C66.4073 37.5657 66.4073 37.3883 66.4073 37.2362C66.4073 35.4367 66.4073 33.6371 66.4073 31.8376C66.4073 31.7362 66.4073 31.6095 66.4073 31.5081C66.3566 30.4182 66.3819 30.3929 67.5217 30.3929C67.7497 30.3929 68.003 30.3168 68.155 30.4182C68.3576 30.5196 68.6616 30.7731 68.6616 30.9505C68.6616 32.8514 68.6109 34.7523 68.5856 36.6533C68.5603 39.5427 68.5603 42.4321 68.5856 45.3215C68.5856 45.8284 68.3576 46.0058 67.9017 46.0058C67.5471 46.0058 67.2178 45.9804 66.8632 46.0058C66.306 46.0818 65.9767 45.7777 65.774 45.3215C64.5329 42.7109 63.3171 40.1256 62.1013 37.4897C61.772 36.7546 61.5441 35.9943 61.2401 35.2592C61.1895 35.1072 61.0628 35.0058 60.9615 34.8537C60.8855 35.0058 60.7335 35.1579 60.7082 35.3353C60.7082 35.6648 60.8095 36.0196 60.8095 36.3491C60.8095 39.3145 60.8095 42.28 60.8095 45.2454C60.8095 45.9297 60.7589 45.9804 60.075 45.9804C59.923 45.9804 59.771 45.9804 59.6444 45.9804C58.8085 46.0565 58.7579 46.0058 58.7579 45.144C58.7579 40.7086 58.7579 36.2731 58.7579 31.8376C58.7579 31.7362 58.7579 31.6095 58.7579 31.5081C58.7325 30.3675 58.7325 30.3675 59.8723 30.3675C61.5694 30.3929 61.2148 30.1141 62.0507 31.8376C62.5319 32.8261 63.0385 33.8145 63.4944 34.803C64.3303 36.6786 65.1408 38.5542 65.9767 40.4044C66.078 40.6072 66.23 40.7846 66.3566 40.9874C66.4073 41.038 66.4833 40.9874 66.5593 40.962Z" fill="white"/>
<path d="M20.2575 46.3605C17.9019 46.4365 16.0022 44.713 15.217 42.6854C14.6344 41.19 14.3052 39.6693 14.3812 38.0725C14.4825 36.0195 14.8624 34.0172 16.1795 32.2937C17.5473 30.5195 19.4723 29.8352 21.6253 30.3167C23.1957 30.6716 24.2596 31.7107 25.0195 33.0541C25.6527 34.1946 25.9819 35.4365 26.0579 36.7799C26.1592 38.4273 26.1846 40.0494 25.7033 41.6462C25.3487 42.8375 24.7662 43.9273 23.8796 44.8144C22.8918 45.8282 21.6507 46.3098 20.2575 46.3605ZM23.8036 38.3006C23.7783 38.2753 23.7276 38.2753 23.7023 38.2499C23.6516 37.7683 23.601 37.2868 23.5503 36.8052C23.4237 35.4365 23.0184 34.1693 21.9292 33.2315C20.6121 32.0909 19.447 32.3444 18.3072 33.561C17.5727 34.3467 17.2433 35.3352 17.1167 36.3743C16.99 37.3375 16.99 38.3259 16.99 39.2891C16.99 39.7706 17.0914 40.2776 17.218 40.7591C17.5473 42.0264 18.1299 43.167 19.371 43.7246C19.827 43.9273 20.4348 43.9527 20.9161 43.8259C22.0559 43.5218 22.7144 42.6094 23.0691 41.5448C23.3983 40.5057 23.5503 39.3905 23.8036 38.3006Z" fill="white"/>
<path d="M46.6505 41.3168C46.6505 42.2546 46.6252 43.167 46.6505 44.1048C46.7011 45.4228 46.4732 45.5242 45.308 45.8537C44.4215 46.1071 43.4843 46.2085 42.5472 46.2339C39.2037 46.3099 36.9747 44.3329 36.2655 41.2408C35.8349 39.3145 35.8602 37.4389 36.3161 35.5127C36.6201 34.2454 37.2027 33.1555 38.0385 32.2431C38.9757 31.2546 40.1662 30.4942 41.6353 30.4435C42.6231 30.3928 43.6109 30.3928 44.5988 30.4689C45.0547 30.4942 45.536 30.697 45.9413 30.9504C46.1186 31.0518 46.1946 31.4574 46.1693 31.7108C46.1439 32.0657 45.9919 32.4205 45.8906 32.8007C45.764 33.3076 45.4853 33.4343 44.9787 33.2315C43.535 32.6486 42.0912 32.6233 40.7235 33.409C39.6343 34.0426 39.0011 35.0311 38.6971 36.2477C38.5452 36.9067 38.3678 37.591 38.3931 38.25C38.4185 39.9228 38.7225 41.5703 39.9636 42.7868C40.9514 43.75 42.2179 44.1555 43.6616 43.826C44.2442 43.6993 44.3202 43.2938 44.3455 42.8882C44.3708 42.0772 44.2442 41.2661 44.2696 40.4551C44.2696 39.9228 44.0416 39.7454 43.5603 39.7454C43.535 39.7454 43.535 39.7454 43.5097 39.7454C42.0406 39.7707 42.1925 39.8214 42.1925 38.3767C42.1925 37.3629 42.2432 37.3629 43.2564 37.4389C44.0669 37.4896 44.8774 37.4389 45.688 37.3375C46.3718 37.2615 46.6758 37.4643 46.6758 38.1486C46.6505 39.1878 46.6505 40.2523 46.6505 41.3168Z" fill="white"/>
<path d="M29.3761 42.4827C29.4268 43.3445 29.4774 44.2062 29.5281 45.068C29.5787 45.7777 29.3761 46.0058 28.6669 46.0058C28.3883 46.0058 28.1097 46.0058 27.8564 46.0058C27.2231 46.0058 26.9192 45.6003 27.0458 44.992C27.0965 44.7892 27.1471 44.5611 27.1471 44.3583C27.1471 40.2777 27.1471 36.2224 27.1471 32.1417C27.1471 31.8122 27.0458 31.5081 27.0965 31.2039C27.1725 30.621 27.6537 30.4436 28.135 30.4182C29.0468 30.3675 29.9334 30.3168 30.8452 30.3168C31.8584 30.2915 32.8462 30.5196 33.7327 31.0012C34.1633 31.2293 34.5686 31.6348 34.8219 32.0657C35.9364 33.9413 35.8097 36.2224 34.366 37.8952C34.1127 38.174 33.6821 38.4021 33.6567 38.6809C33.6061 38.9344 34.0873 39.2132 34.214 39.5173C34.5433 40.3284 34.8979 41.1648 35.1258 42.0012C35.4298 43.091 35.5818 44.2316 35.8351 45.3214C35.9364 45.803 35.8351 45.9804 35.3285 46.0058C34.9486 46.0058 34.5686 46.0058 34.1887 46.0058C33.6568 46.0058 33.4034 45.7523 33.2768 45.2201C32.9982 43.8767 32.7449 42.5081 32.3903 41.1648C32.0863 39.9735 31.0732 39.568 29.984 39.6947C29.5787 39.7454 29.4774 40.1003 29.4774 40.4551C29.4774 41.1394 29.4774 41.7984 29.4774 42.4827C29.4014 42.4827 29.3761 42.4827 29.3761 42.4827ZM33.1249 34.8537C33.1249 34.144 32.8716 33.409 32.1117 32.9528C31.4025 32.5219 30.6172 32.5979 29.8574 32.6486C29.7307 32.6486 29.5534 32.8767 29.5534 33.0288C29.4774 33.485 29.4521 33.9666 29.4268 34.4228C29.4014 35.2085 29.4268 35.9943 29.4268 36.78C29.4268 37.1855 29.6041 37.4897 29.984 37.515C31.6051 37.6417 33.0489 37.1348 33.1249 34.8537Z" fill="white"/>
<path d="M52.451 30.4182C53.9454 30.4182 53.9454 30.4182 54.3506 31.939C54.8572 33.8906 55.3892 35.8168 55.8958 37.7431C56.5543 40.2523 57.2129 42.7615 57.8461 45.2708C57.9981 45.8284 57.8461 46.0311 57.2635 46.0311C56.9089 46.0311 56.529 46.0058 56.1744 46.0311C55.6425 46.0565 55.3892 45.8284 55.2625 45.3468C55.0092 44.333 54.7559 43.3191 54.5026 42.3053C54.376 41.8491 54.148 41.621 53.6161 41.6717C52.8562 41.7224 52.0964 41.6717 51.3365 41.6717C50.6019 41.6717 50.3993 41.8744 50.2473 42.6348C50.0447 43.5979 49.8421 44.5864 49.5634 45.5242C49.5128 45.727 49.1835 45.9804 48.9556 46.0058C48.4996 46.0818 48.0184 46.0565 47.5371 46.0311C47.1825 46.0058 47.0305 45.803 47.1065 45.4482C47.4358 44.2062 47.7904 42.939 48.1197 41.697C48.8036 39.0864 49.4621 36.4758 50.1207 33.8652C50.3486 32.9528 50.5513 32.0403 50.8046 31.1279C50.9312 30.697 51.1592 30.3675 51.6911 30.4436C51.9444 30.4436 52.1977 30.4182 52.451 30.4182ZM52.527 33.8145C52.4763 33.8145 52.4257 33.7892 52.375 33.7892C52.299 33.9413 52.1724 34.068 52.1217 34.2454C51.8938 35.1832 51.6911 36.1463 51.4631 37.0841C51.3365 37.591 51.2098 38.1233 51.0578 38.6302C50.9059 39.1878 51.0325 39.3652 51.5898 39.3652C52.1724 39.3652 52.7549 39.3652 53.3375 39.3652C53.7934 39.3652 53.9454 39.1118 53.7934 38.6809C53.6921 38.4274 53.5908 38.174 53.5401 37.9205C53.1855 36.5519 52.8562 35.1832 52.527 33.8145Z" fill="white"/>
<path d="M73.4993 37.743C73.4993 36.9066 73.6766 35.4112 74.3098 34.0679C75.095 32.3951 76.2855 31.0011 78.1092 30.4688C79.5529 30.0379 81.0727 30.0633 82.5671 30.5195C83.1244 30.6969 83.2763 31.0771 83.099 31.6601C82.9977 32.0149 82.8711 32.3697 82.7951 32.7246C82.6938 33.1808 82.4405 33.2061 82.0859 33.0541C80.8701 32.4965 79.629 32.4965 78.4638 33.0541C77.7293 33.4089 77.1467 34.0172 76.7161 34.8029C76.1335 35.9181 75.8802 37.1094 75.9055 38.3006C75.9562 39.9481 76.2348 41.5955 77.5519 42.8121C78.7171 43.902 80.3382 44.1301 81.8073 43.5218C82.5418 43.2177 82.8204 43.3697 82.8711 44.2061C82.8711 44.4596 82.9724 44.6877 83.0231 44.9412C83.1244 45.372 83.0484 45.6762 82.5671 45.8536C80.6675 46.5886 78.7677 46.614 76.9694 45.6762C75.6522 45.0172 74.7151 43.9273 74.1579 42.508C73.6766 41.19 73.4993 39.8213 73.4993 37.743Z" fill="white"/>
<path d="M70.2319 38.2246C70.2319 35.8675 70.2319 33.5103 70.2319 31.1278C70.2319 30.4689 70.2825 30.3928 70.9411 30.3928C71.2704 30.3928 71.5997 30.3928 71.929 30.3928C72.4356 30.3928 72.6382 30.6463 72.6382 31.1278C72.6382 33.0795 72.6382 35.0057 72.6382 36.9573C72.6382 39.644 72.6382 42.3306 72.6382 45.0172C72.6382 45.955 72.5875 46.0057 71.6757 46.0057C70.1053 46.0057 70.2319 46.1578 70.2319 44.5864C70.2319 42.4827 70.2319 40.3536 70.2319 38.2246Z" fill="white"/>
<path d="M63.4945 79.8929C63.3679 81.0588 63.0893 82.1233 61.9241 82.6809C61.2656 83.0104 60.1764 82.7316 59.7711 82.0979C58.9859 80.856 58.8846 79.538 59.3658 78.1947C59.7711 77.0795 61.0376 76.4205 61.9748 76.8514C62.7346 77.1809 63.1652 77.8399 63.3425 78.6763C63.4185 79.0565 63.4439 79.4873 63.4945 79.8929Z" fill="white"/>
<path d="M67.7245 78.0174C67.7245 77.8653 67.7245 77.7386 67.7245 77.5865C67.7245 76.7501 67.8765 76.598 68.7124 76.6994C69.4723 76.7754 70.1814 77.4851 70.0801 78.0934C69.9535 78.8538 68.915 79.5888 68.1804 79.4367C67.8765 79.386 67.6485 79.2339 67.6992 78.8538C67.7499 78.575 67.7245 78.2962 67.7245 78.0174Z" fill="white"/>
<path d="M37.3293 76.6233C37.6839 76.75 38.1398 76.8007 38.3931 77.0288C39.2543 77.7638 39.0263 78.6509 38.0131 79.2085C37.8105 79.3099 37.5826 79.3859 37.3546 79.4366C36.7214 79.5634 36.3414 79.1578 36.4681 78.5242C36.5187 78.2961 36.4934 78.0426 36.4427 77.8399C36.2654 77.0795 36.696 76.5979 37.3293 76.6233Z" fill="white"/>
<path d="M44.5479 80.4251C43.7121 80.4251 43.6361 80.2984 43.9147 79.4873C44.0667 79.0057 44.1933 78.5495 44.3706 78.068C44.4213 77.9666 44.5733 77.8145 44.6493 77.8398C44.7506 77.8398 44.8773 77.9919 44.9026 78.1186C45.0799 78.6762 45.2065 79.2592 45.3585 79.8168C45.4851 80.2477 45.3078 80.4504 44.8772 80.4504C44.7759 80.4251 44.6493 80.4251 44.5479 80.4251Z" fill="white"/>
<path d="M25.3737 79.8422C25.3737 80.3745 25.1964 80.5772 24.7405 80.4252C24.7152 80.4252 24.6646 80.4252 24.6392 80.3998C23.6261 80.2731 23.5247 80.121 23.93 79.1579C24.0566 78.8284 24.082 78.4736 24.1833 78.1441C24.2339 78.0173 24.3606 77.8399 24.4619 77.8146C24.5632 77.7892 24.7405 77.9413 24.7912 78.068C25.0191 78.6763 25.2218 79.31 25.3737 79.8422Z" fill="white"/>
<path d="M81.8073 77.5609C82.0606 78.4227 82.2886 79.1323 82.4405 79.842C82.5165 80.1969 82.3139 80.425 81.934 80.425C81.7313 80.425 81.5286 80.425 81.326 80.425C80.8701 80.425 80.7434 80.1462 80.8194 79.7913C80.9461 79.2591 81.0981 78.7268 81.2754 78.2199C81.3514 77.9918 81.554 77.8397 81.8073 77.5609Z" fill="white"/>
</svg>
