<svg width="100" height="99" viewBox="0 0 100 99" fill="none" xmlns="http://www.w3.org/2000/svg">
<path d="M49.8806 0C22.905 0 0.412598 21.9493 0.412598 49.5C0.412598 77.0507 22.3477 99 49.8806 99C77.4135 99 99.3486 77.0507 99.3486 49.5C99.3486 21.9493 76.8816 0 49.8806 0ZM49.8806 95.0714C24.5767 95.0714 4.33863 74.8203 4.33863 49.5C4.33863 24.1797 24.5767 3.92857 49.8806 3.92857C75.1845 3.92857 95.4226 24.1797 95.4226 49.5C95.4226 74.8203 75.1845 95.0714 49.8806 95.0714Z" fill="white"/>
<path d="M82.5047 62.5529C83.0619 62.5529 83.5179 63.0092 83.5179 63.5668V64.682C83.5179 66.7857 82.9353 68.3824 81.7955 69.447C80.8583 70.3087 79.5412 70.7649 78.0214 70.7649C77.1602 70.7649 76.451 70.6635 75.8431 70.4608L59.5057 90.6359C78.0721 86.4539 91.6485 70.3341 92.0791 50.4377L82.2767 62.5529H82.5047Z" fill="white"/>
<path d="M82.9353 59.613V60.7282C82.9353 60.7789 82.9353 60.8296 82.91 60.8803L92.0285 50.3618C92.0285 50.2605 92.0285 50.1337 92.0285 50.0323L82.5807 56.7996C82.8593 57.636 82.9353 58.6245 82.9353 59.613Z" fill="white"/>
<path d="M77.8947 61.8688C77.8947 63.6936 77.8947 65.3158 78.0467 65.8734C78.1227 65.4425 78.1227 64.53 78.1227 63.5669C78.1227 63.0093 78.5786 62.5531 79.1358 62.5531H81.5168L82.226 61.7167C82.1247 61.742 82.0487 61.7674 81.9221 61.7674H78.5533C78.3 61.7674 78.072 61.666 77.8694 61.5139C77.8947 61.6153 77.8947 61.742 77.8947 61.8688Z" fill="white"/>
<path d="M73.386 68.4839V69.7512C73.386 70.3088 72.9301 70.765 72.3729 70.765H69.0041C68.5988 70.765 68.2442 70.5369 68.0922 70.182C68.0162 70.2074 67.9656 70.2074 67.8896 70.2074H63.9636C63.9129 70.2074 63.8622 70.2074 63.8116 70.2074L36.6333 89.5968C40.7873 90.9654 45.2452 91.7005 49.9058 91.7005C52.2361 91.7005 54.5157 91.5231 56.7447 91.1682L74.9818 70.1314C74.2472 69.7258 73.7406 69.1682 73.386 68.4839Z" fill="white"/>
<path d="M16.2689 61.8687C16.2689 57.7627 16.9274 53.53 21.7906 53.53C24.2476 53.53 25.6407 54.6198 26.4006 56.2166V53.9862C26.4006 53.5046 26.7298 53.0991 27.1858 52.9977C27.2617 52.9724 27.3377 52.9723 27.4137 52.9723C27.7937 52.9723 28.1483 53.1751 28.3256 53.53L28.6042 54.0876H33.0368C36.7855 54.0876 37.3175 56.7995 37.4188 58.3456C37.5708 57.6866 37.7734 57.1037 38.052 56.5714C38.9892 54.8986 40.6609 54.0876 43.1432 54.0876C45.0175 54.0876 46.436 54.265 47.2718 55.1267C47.7024 55.5829 47.9304 56.1152 48.0317 56.7488L50.2354 56.3687L50.4127 55.6083L50.5393 55.1014L50.59 54.8733C50.6153 54.7719 50.6406 54.6705 50.6913 54.5945C50.8686 54.2903 51.1979 54.0876 51.5778 54.0876H54.9466C55.4279 54.0876 55.8331 54.417 55.9344 54.8733L56.0358 55.3295L57.3022 55.1014V55.076C57.3022 54.5184 57.7582 54.0622 58.3154 54.0622H62.2414C62.3934 54.0622 62.52 54.0876 62.6467 54.1636L89.4197 49.5H7.73291C7.73291 54.3664 8.56877 59.0553 10.0885 63.4401L16.2689 62.3502C16.2689 62.1982 16.2689 62.0461 16.2689 61.8687Z" fill="white"/>
<path d="M21.6638 61.4124L21.8918 61.3618C21.8918 59.9424 21.8918 58.7005 21.7905 58.0922C21.6891 58.7258 21.6638 59.9677 21.6638 61.4124Z" fill="white"/>
<path d="M32.3528 58.9792V59.5374L32.5809 59.4866C32.5809 59.309 32.581 59.1061 32.5556 59.0046C32.5049 59.0046 32.4542 58.9792 32.3528 58.9792Z" fill="white"/>
<path d="M63.4824 55.1268C63.4824 55 63.5077 54.8733 63.5584 54.7466L63.2037 54.8226C63.2037 54.848 63.2291 54.8733 63.2291 54.8733L63.4824 55.8871V55.1268Z" fill="white"/>
<path d="M43.2192 67.0399C43.2445 66.8369 43.2445 66.5832 43.2445 66.2534H43.1431C43.1178 66.2534 43.1178 66.2534 43.0924 66.2534C43.1178 66.6086 43.1431 66.8876 43.2192 67.0399Z" fill="white"/>
<path d="M67.8642 54.1129C68.0669 54.1129 68.2695 54.1636 68.4215 54.2903C68.5735 54.1889 68.7761 54.1129 68.9787 54.1129H72.3475C72.9048 54.1129 73.3607 54.5691 73.3607 55.1267V56.5968L73.4873 56.5461C74.2725 55.076 75.6403 54.1129 77.9706 54.1129C78.5025 54.1129 78.9584 54.1636 79.3637 54.2143L91.3444 49.5H89.9513L66.7498 54.1129H67.8642Z" fill="white"/>
<path d="M50.0072 57.4331L48.1075 57.8133C48.1075 58.1935 48.1075 58.599 48.1075 59.0299C48.1075 59.3847 48.1075 59.7649 48.1075 60.1958C48.1075 60.3985 48.0568 60.6013 47.9302 60.7534C48.0315 60.9055 48.1075 61.1082 48.1075 61.311V65.7211L50.0072 57.4331Z" fill="white"/>
<path d="M57.302 55.9884L56.2382 56.1912L57.302 60.8548V55.9884Z" fill="white"/>
<path d="M36.5322 62.4263C36.7602 62.7305 36.9375 63.06 37.0641 63.4148C37.0641 63.1107 37.0641 62.7812 37.0641 62.4263C37.0641 62.0969 37.0641 61.7674 37.0641 61.4379C36.9628 61.7927 36.7855 62.1475 36.5322 62.4263Z" fill="white"/>
<path d="M21.7905 65.6706C21.8665 65.1384 21.8918 64.1752 21.8918 63.0347L21.6638 63.0854C21.6638 64.2006 21.6891 65.1384 21.7905 65.6706Z" fill="white"/>
<path d="M37.8493 68.1797C37.672 67.7742 37.52 67.2926 37.3934 66.7604V66.9124V69.1682C37.3934 69.7258 36.9374 70.182 36.3802 70.182H33.0114C32.4542 70.182 31.9982 69.7258 31.9982 69.1682V66.3548V65.2396C31.9982 64.7834 31.9982 64.2765 31.9729 63.9977C31.9476 63.9977 31.9223 63.9977 31.8969 63.9977H31.7956V68.6106C31.7956 69.1682 31.3397 69.6244 30.7824 69.6244H27.4136C26.8564 69.6244 26.4005 69.1682 26.4005 68.6106V67.4954C25.6406 69.0921 24.2475 70.182 21.7906 70.182C17.8392 70.182 16.674 67.3686 16.3701 64.0991L10.7723 65.2143C12.6974 69.9792 15.4329 74.3387 18.8777 78.0645L39.3437 70.0046C38.7105 69.5991 38.2039 68.9908 37.8493 68.1797Z" fill="white"/>
<path d="M91.4458 49.5L79.845 54.3157C81.2127 54.6705 81.998 55.4309 82.4286 56.4194L92.0283 50.0069C92.0283 49.8295 92.0283 49.6774 92.0283 49.5H91.4458Z" fill="white"/>
<path d="M78.0721 57.8387C77.9708 58.1175 77.9201 58.7004 77.8948 59.4608L77.9201 59.4354L78.0974 58.9032C78.0974 58.4976 78.0974 58.0668 78.0721 57.8387Z" fill="white"/>
<path d="M61.6841 70.2073H59.2271C59.2018 70.258 59.1511 70.334 59.1258 70.3847C58.9232 70.6382 58.6445 70.7649 58.3406 70.7649H54.9718C54.4146 70.7649 53.9586 70.3087 53.9586 69.7511V68.5092H53.1734V69.7511C53.1734 70.3087 52.7175 70.7649 52.1603 70.7649H48.2342C47.9303 70.7649 47.6263 70.6128 47.449 70.3847C47.3984 70.334 47.3477 70.258 47.3224 70.182C47.2464 70.2073 47.1957 70.2073 47.1197 70.2073H44.8401C44.7135 70.2073 44.5868 70.182 44.4855 70.1566C43.7256 70.5875 42.8138 70.7903 42.0286 70.7903C41.5473 70.7903 41.0914 70.7396 40.6861 70.6382L19.9668 79.2557C23.9435 83.2857 28.756 86.5299 34.1512 88.6843L61.836 70.2327C61.76 70.182 61.7347 70.2073 61.6841 70.2073Z" fill="white"/>
<path d="M62.5958 69.6499L62.9758 69.3964L62.7225 68.408V69.1683C62.6971 69.3457 62.6718 69.5232 62.5958 69.6499Z" fill="white"/>
<path d="M30.1998 44.9885C33.5685 44.9885 35.8228 43.2904 35.8228 38.2466V25.8779H31.3142V39.3871C31.3142 41.6429 31.3142 41.6429 30.1998 41.6429C29.0853 41.6429 29.0853 41.0853 29.0853 39.3871V25.8779H24.5767V38.2466C24.5767 43.3157 26.831 44.9885 30.1998 44.9885Z" fill="white"/>
<path d="M43.1429 45.5712C47.069 45.5712 49.3233 47.2694 49.3233 39.9445C49.3233 32.6196 42.0031 34.8754 42.0031 30.9468C42.0031 29.8316 42.0031 29.2487 43.1176 29.2487C44.2321 29.2487 44.2321 29.8063 44.2321 31.5044H45.9291H49.8552C49.8552 27.5758 48.1581 25.8777 44.2321 25.8777C40.306 25.8777 38.609 25.3201 38.609 32.062C38.609 38.804 45.3466 36.5735 45.3466 40.5021C45.3466 41.6173 44.7893 42.2003 43.6495 42.2003C42.5097 42.2003 41.9524 41.6427 41.9524 39.3869C41.9524 39.3869 37.4438 39.3869 37.4438 39.9445C37.5198 43.8731 39.2169 45.5712 43.1429 45.5712Z" fill="white"/>
<path d="M62.8239 35.4332C62.8239 30.3641 62.2667 25.8779 57.2008 25.8779H51.0205V45.0139H57.2008C62.8239 44.9885 62.8239 40.5024 62.8239 35.4332ZM55.5038 41.06V40.5024V28.6913H56.6183C58.3153 28.6913 58.3153 29.2489 58.3153 34.8756C58.3153 40.5024 58.3153 41.06 56.6183 41.06H55.5038Z" fill="white"/>
<path d="M67.8643 44.9885V41.6175H71.7903V44.9885H76.2989L72.3729 25.8525H66.7498L62.8237 44.9885H67.8643ZM69.5613 29.8065L70.6758 37.6889H68.4215L69.5613 29.8065Z" fill="white"/>
<path d="M21.7906 54.5691C18.4218 54.5691 17.282 56.8249 17.282 61.894C17.282 61.9954 17.282 62.0967 17.282 62.1981C17.282 62.8318 17.3073 63.4147 17.358 63.947C17.6619 67.5714 18.9031 69.1935 21.7653 69.1935C25.0834 69.1935 26.2232 67.0391 26.2485 62.1728C26.2485 62.0714 26.2485 61.9954 26.2485 61.894C26.2485 61.4378 26.2485 61.0322 26.2232 60.6267C26.0712 56.4447 24.8554 54.5691 21.7906 54.5691ZM22.9051 61.8686C22.9051 62.1981 22.9051 62.5276 22.9051 62.8318C22.9051 66 22.8038 66.9378 21.7906 66.9378C20.8027 66.9378 20.6761 66.076 20.6761 63.288C20.6761 62.8571 20.6761 62.4009 20.6761 61.894C20.6761 61.7926 20.6761 61.6912 20.6761 61.6152C20.6761 57.9147 20.7014 56.8502 21.7906 56.8502C22.8544 56.8502 22.9051 57.8387 22.9051 61.235C22.9051 61.4124 22.9051 61.6405 22.9051 61.8686Z" fill="white"/>
<path d="M36.3294 60.1705C36.3801 59.841 36.3801 59.4861 36.3801 59.0806C36.3801 59.0046 36.3801 58.9285 36.3801 58.8271C36.3294 56.6981 35.7215 55.1267 33.0113 55.1267H27.9454L27.3882 54.0115V60.4239V61.97V68.6612H30.757V63.0345H31.8715C32.9859 63.0345 32.986 63.5921 32.986 65.2903V66.4055C32.986 66.9631 32.986 68.6612 32.986 69.2188H36.3547C36.3547 68.6612 36.3547 67.5207 36.3547 66.9631V65.8479C36.3547 63.5921 35.7975 62.4769 34.1004 62.4769C35.5189 62.4262 36.1521 61.6658 36.3294 60.1705ZM31.8968 61.311H31.3396V61.1589V59.7142V57.94H31.8968C33.4166 57.94 33.5685 58.3963 33.5938 59.3087C33.5938 59.4101 33.5938 59.5115 33.5938 59.6129C33.5938 60.0944 33.4672 60.4746 33.2646 60.7534C32.9859 61.1336 32.53 61.311 31.8968 61.311Z" fill="white"/>
<path d="M43.7003 60.196H47.0691C47.0691 59.3596 47.0944 58.6246 47.0944 58.0416C47.0944 57.6361 47.0691 57.2813 47.0184 56.9771C46.8158 55.6084 46.0053 55.1522 43.1177 55.1522C40.1542 55.1522 38.9131 56.3688 38.3812 58.4978C38.2798 58.9034 38.2038 59.3596 38.1532 59.8158C38.0772 60.6015 38.0519 61.4886 38.0519 62.4518C38.0519 66.2029 38.4571 68.7882 40.5341 69.5485C40.9394 69.7006 41.4207 69.7766 41.9779 69.7766C42.3072 69.7766 42.6618 69.7259 43.0164 69.6499C43.3963 69.5485 43.751 69.4218 44.0549 69.219C44.4855 68.9402 44.7895 68.5854 44.7895 68.1038V68.9149V69.219H47.0438V67.9771V66.9886V61.3366H42.5352L43.0924 62.4518V65.2651H44.2069C44.2069 68.0785 44.2069 68.0785 43.0924 68.0785C41.9779 68.0785 41.9779 66.9633 41.9779 63.0094C41.9779 61.0578 41.9779 59.7905 42.1046 59.0048C42.2565 58.219 42.5351 57.9402 43.0924 57.9402C43.6496 57.9402 43.6496 58.4978 43.6496 58.4978C43.6496 58.5739 43.6496 58.6246 43.6496 58.7006C43.7003 59.1822 43.7003 59.6891 43.7003 60.196Z" fill="white"/>
<path d="M51.3242 56.1912L51.0963 57.2304L49.0193 66.2027L48.7913 67.2419L48.2087 69.7511H52.1348V67.4954H54.9463V69.7511H57.4792H58.3151L58.2898 69.7004L57.8085 67.5714L57.3019 65.3663L56.9473 63.8456L56.7954 63.1359L55.2503 56.394L55.0476 55.5322L54.9463 55.1267H52.0841H51.5775L51.4509 55.6336L51.3242 56.1912ZM53.2493 64.1244H51.5522L52.3881 59.4862L53.2493 64.1244Z" fill="white"/>
<path d="M63.9383 69.1935H65.2047H67.8643V67.2673V66.1267V59.3087V58.7511V55.1267H64.4955V60.0945V60.7027V64.1244L63.7356 61.0322L63.5837 60.4493L62.2665 55.1267H61.6586H58.3152V55.7857V62.5276V63.2627V65.2396V67.4954V69.1935H58.7204H59.227H61.684V61.8686V61.2097V60.1958L61.9119 61.1083L62.0639 61.7166L63.837 68.8133L63.9383 69.1935Z" fill="white"/>
<path d="M69.0042 58.3203V58.8272V65.3663V66.4815V69.7511H72.3729V64.0737V63.1359V57.4332V56.9769V55.1267H69.0042V58.3203Z" fill="white"/>
<path d="M81.5927 56.9769C81.1368 55.7857 80.1236 55.1267 77.996 55.1267C77.9706 55.1267 77.9453 55.1267 77.92 55.1267C77.54 55.1267 77.1854 55.1521 76.8562 55.2281C76.3749 55.3295 75.9443 55.4815 75.5897 55.735C75.3111 55.9124 75.0578 56.1405 74.8298 56.4193C73.8926 57.5852 73.538 59.5368 73.5127 62.3756C73.5127 62.4009 73.5127 62.4262 73.5127 62.4262C73.5127 62.705 73.5127 62.9839 73.5127 63.2627C73.5634 66.5576 73.9686 68.5092 75.6403 69.3203C75.8936 69.447 76.1976 69.5484 76.5015 69.5991C76.9321 69.7004 77.4134 69.7511 77.996 69.7511C80.2503 69.7511 82.5046 68.6359 82.5046 64.682V63.5668H81.4154H80.6302H79.1358C79.1358 64.3018 79.1358 64.8594 79.1104 65.3157C79.0598 66.6083 78.8318 66.9378 77.996 66.9378C77.8947 66.9378 77.8187 66.9378 77.7173 66.9124C76.8561 66.7097 76.8562 65.4677 76.8562 61.8686C76.8562 61.5138 76.8562 61.1843 76.8562 60.8548C76.8562 60.6014 76.8562 60.3479 76.8562 60.1198C76.8815 57.5852 77.0335 56.7995 77.9706 56.7995C78.9838 56.7995 79.0851 57.2557 79.0851 58.6244C79.0851 58.7511 79.0851 58.9032 79.0851 59.0553L79.0091 59.3087L78.5279 60.7281H81.8967V59.6129C81.8967 58.7765 81.846 58.0161 81.694 57.4078C81.6687 57.2557 81.6434 57.129 81.5927 56.9769Z" fill="white"/>
</svg>
